<svg width="1353" height="880" viewBox="0 0 1353 880" fill="none" xmlns="http://www.w3.org/2000/svg">
<g clip-path="url(#clip0_97_125)">
<rect width="1351.26" height="880" transform="translate(0.869141)" fill="#E9F6F2"/>
<rect x="0.869141" width="1351.26" height="481.684" fill="#43A0A5"/>
<rect opacity="0.8" x="940.5" y="129.104" width="391.368" height="474.737" fill="#B8DDE0" stroke="#2C6063" stroke-width="1.15789"/>
<rect x="974" y="165" width="174" height="46" rx="8" fill="#72AFB3"/>
<rect x="974" y="228" width="65" height="20" rx="4" fill="#72AFB3"/>
<rect x="974" y="270" width="328" height="16" rx="4" fill="#72AFB3"/>
<rect x="974" y="301" width="328" height="16" rx="4" fill="#72AFB3"/>
<rect x="974" y="332" width="328" height="16" rx="4" fill="#72AFB3"/>
<rect x="974" y="363" width="328" height="16" rx="4" fill="#72AFB3"/>
<rect x="974" y="402" width="328" height="16" rx="4" fill="#72AFB3"/>
<rect x="974" y="433" width="328" height="16" rx="4" fill="#72AFB3"/>
<g clip-path="url(#clip1_97_125)">
<path d="M226.659 365.893C190.164 365.893 155.864 351.682 130.045 325.875C104.226 300.067 90.0264 265.759 90.0264 229.263C90.0264 192.767 104.24 158.467 130.045 132.648C155.849 106.829 190.164 92.6328 226.659 92.6328C263.155 92.6328 297.455 106.844 323.271 132.648C349.087 158.453 363.292 192.767 363.292 229.263C363.292 265.759 349.079 300.059 323.271 325.875C297.464 351.691 263.155 365.893 226.659 365.893ZM226.659 97.5885C191.488 97.5885 158.423 111.286 133.553 136.156C108.683 161.027 94.9849 194.091 94.9849 229.263C94.9849 264.434 108.683 297.499 133.553 322.369C158.423 347.24 191.488 360.935 226.659 360.935C261.831 360.935 294.896 347.24 319.766 322.369C344.636 297.499 358.331 264.434 358.331 229.263C358.331 194.091 344.636 161.027 319.766 136.156C294.896 111.286 261.831 97.5885 226.659 97.5885Z" fill="#2C6063"/>
<path d="M129.812 223.94H119.164V234.588H129.812V223.94Z" fill="#2C6063"/>
<path d="M334.171 223.94H323.523V234.588H334.171V223.94Z" fill="#2C6063"/>
<path d="M244.903 283.221H210.674C210.128 283.222 209.597 283.04 209.164 282.706C208.732 282.371 208.424 281.902 208.287 281.373L189.943 210.437C189.849 210.072 189.84 209.69 189.916 209.321C189.992 208.952 190.152 208.605 190.382 208.308C190.613 208.01 190.909 207.769 191.247 207.602C191.585 207.436 191.957 207.35 192.334 207.35H262.269C262.643 207.35 263.013 207.435 263.349 207.599C263.685 207.762 263.98 208 264.211 208.294C264.442 208.589 264.603 208.932 264.683 209.297C264.762 209.663 264.757 210.042 264.668 210.405L247.296 281.341C247.165 281.877 246.858 282.354 246.424 282.695C245.991 283.036 245.455 283.221 244.903 283.221ZM212.586 278.289H242.968L259.122 212.285H195.509L212.586 278.289Z" fill="#2C6063"/>
<path d="M188.716 230.194C188.609 230.194 188.502 230.182 188.398 230.157C183.281 228.908 178.722 225.998 175.434 221.882C172.075 217.694 170.254 212.479 170.275 207.11C170.28 201.131 172.544 195.375 176.612 190.994C180.681 186.613 186.255 183.932 192.217 183.486C198.179 183.04 204.089 184.863 208.764 188.59C213.439 192.317 216.533 197.673 217.427 203.584C217.453 203.759 217.445 203.937 217.402 204.108C217.359 204.279 217.283 204.441 217.178 204.583C217.073 204.724 216.94 204.844 216.789 204.935C216.638 205.026 216.47 205.086 216.295 205.112C216.121 205.138 215.942 205.129 215.771 205.086C215.6 205.043 215.439 204.967 215.297 204.862C215.155 204.757 215.035 204.625 214.944 204.474C214.854 204.322 214.793 204.154 214.767 203.98C213.981 198.733 211.24 193.978 207.094 190.668C202.947 187.359 197.703 185.74 192.412 186.136C187.122 186.532 182.177 188.914 178.57 192.804C174.963 196.694 172.96 201.804 172.964 207.11C172.948 211.871 174.566 216.494 177.55 220.205C180.461 223.853 184.499 226.433 189.032 227.543C189.35 227.622 189.628 227.815 189.814 228.085C190 228.355 190.082 228.683 190.043 229.009C190.005 229.335 189.848 229.635 189.604 229.854C189.36 230.072 189.044 230.194 188.716 230.197V230.194Z" fill="#2C6063"/>
<path d="M212.041 280.431C211.916 280.431 211.79 280.42 211.666 280.397C211.405 280.349 211.156 280.25 210.934 280.105C210.711 279.961 210.52 279.774 210.37 279.554C210.221 279.335 210.116 279.089 210.063 278.829C210.009 278.569 210.007 278.301 210.058 278.041L225.312 197.007C225.369 196.701 225.496 196.412 225.683 196.163C225.871 195.914 226.114 195.712 226.393 195.574L262.711 177.471C262.948 177.353 263.205 177.282 263.47 177.264C263.734 177.245 263.999 177.279 264.25 177.363C264.501 177.447 264.733 177.579 264.933 177.753C265.133 177.927 265.297 178.138 265.415 178.375C265.533 178.612 265.603 178.87 265.622 179.134C265.64 179.398 265.607 179.663 265.523 179.915C265.439 180.166 265.306 180.398 265.133 180.598C264.959 180.797 264.748 180.961 264.511 181.079L229.09 198.738L214.031 278.786C213.946 279.251 213.7 279.67 213.336 279.971C212.972 280.272 212.514 280.435 212.041 280.431Z" fill="#2C6063"/>
<path d="M256.574 234.422H198.338C198.156 234.431 197.975 234.402 197.804 234.338C197.633 234.274 197.477 234.177 197.346 234.051C197.214 233.925 197.109 233.774 197.038 233.606C196.966 233.439 196.929 233.259 196.929 233.077C196.929 232.894 196.966 232.714 197.038 232.547C197.109 232.379 197.214 232.228 197.346 232.102C197.477 231.977 197.633 231.879 197.804 231.815C197.975 231.751 198.156 231.723 198.338 231.731H256.574C256.92 231.747 257.247 231.896 257.486 232.146C257.726 232.397 257.859 232.73 257.859 233.077C257.859 233.423 257.726 233.756 257.486 234.007C257.247 234.258 256.92 234.406 256.574 234.422Z" fill="#2C6063"/>
<path d="M125.424 281.021C124.782 281.021 123.79 281.058 123.573 281.05C123.237 281.024 122.79 280.838 122.475 280.156L120.288 275.409L140.412 266.114C140.58 266.053 140.766 266.058 140.932 266.128C141.097 266.198 141.23 266.328 141.303 266.492L143.86 272.024H141.994C141.673 272.024 141.197 271.855 140.882 271.164L140.088 269.444C140.06 269.376 140.018 269.314 139.966 269.263C139.913 269.212 139.85 269.172 139.781 269.147C139.712 269.121 139.638 269.11 139.565 269.114C139.491 269.119 139.419 269.138 139.354 269.172L133.197 272.015L134.673 275.211C134.031 275.211 133.011 275.263 132.793 275.257C132.458 275.231 132.025 275.074 131.71 274.397L131.3 273.509C131.234 273.379 131.122 273.278 130.985 273.228C130.848 273.178 130.697 273.182 130.563 273.239L123.375 276.561L125.424 281.021Z" fill="#2C6063"/>
<path d="M133.043 297.694L132.435 296.808C131.716 295.756 132.435 295.026 132.762 294.687L140.655 286.249L130.134 293.443L128.809 291.506L147.643 278.628L148.251 279.514C148.988 280.591 148.603 281.13 148.139 281.606L139.707 290.293L150.553 282.879L151.877 284.816L133.043 297.694Z" fill="#2C6063"/>
<path d="M160.261 294.514C160.354 294.596 160.429 294.697 160.48 294.811C160.531 294.924 160.558 295.047 160.558 295.171C160.558 295.296 160.531 295.419 160.48 295.532C160.429 295.646 160.354 295.747 160.261 295.829L146.291 309.045C145.746 309.562 145.021 309.844 144.271 309.832C143.521 309.82 142.805 309.514 142.278 308.979L142.255 309.002L141.246 307.936C140.99 307.66 140.791 307.336 140.661 306.982C140.53 306.629 140.47 306.253 140.485 305.877C140.499 305.501 140.588 305.131 140.746 304.789C140.904 304.447 141.127 304.139 141.404 303.883L141.736 303.571C142.281 303.055 142.765 303.046 143.083 303.193C143.267 303.244 144.155 303.614 144.749 303.86L143.258 305.271C143.14 305.382 143.045 305.516 142.979 305.665C142.912 305.813 142.876 305.973 142.871 306.136C142.867 306.299 142.894 306.461 142.952 306.613C143.01 306.765 143.098 306.904 143.209 307.022C143.321 307.14 143.455 307.235 143.604 307.301C143.752 307.368 143.912 307.404 144.075 307.409C144.238 307.413 144.4 307.386 144.552 307.328C144.703 307.27 144.843 307.182 144.961 307.071L159.303 293.496L160.261 294.514Z" fill="#2C6063"/>
<path d="M170.868 303.498C171.445 303.98 171.816 304.664 171.904 305.41C171.992 306.157 171.791 306.909 171.341 307.511L160.667 321.389C160.197 321.973 159.521 322.355 158.778 322.456C158.035 322.558 157.281 322.371 156.672 321.934L155.239 320.839C154.635 320.369 154.237 319.682 154.131 318.924C154.024 318.166 154.215 317.397 154.666 316.778L165.354 302.925C165.589 302.622 165.881 302.369 166.215 302.179C166.548 301.99 166.915 301.868 167.296 301.82C167.676 301.773 168.062 301.801 168.432 301.903C168.801 302.005 169.147 302.179 169.449 302.415L170.868 303.498ZM157.311 319.836C157.442 319.936 157.592 320.009 157.752 320.051C157.912 320.092 158.079 320.102 158.242 320.078C158.406 320.055 158.563 319.999 158.705 319.914C158.847 319.829 158.97 319.717 159.068 319.584L169.203 306.399C169.307 306.27 169.384 306.122 169.429 305.963C169.475 305.804 169.489 305.637 169.47 305.473C169.451 305.309 169.399 305.15 169.318 305.006C169.236 304.861 169.127 304.735 168.997 304.633L168.71 304.416C168.441 304.225 168.108 304.144 167.781 304.191C167.454 304.238 167.158 304.409 166.953 304.668L156.818 317.852C156.62 318.117 156.53 318.447 156.569 318.775C156.607 319.103 156.77 319.404 157.024 319.615L157.311 319.836Z" fill="#2C6063"/>
<path d="M177.025 323.419L172.502 331.756L171.04 330.965C170.884 330.876 170.767 330.73 170.714 330.558C170.66 330.385 170.675 330.199 170.754 330.037L174.95 322.298L178.845 309.242L180.361 310.068C180.533 310.172 180.659 310.338 180.712 310.532C180.765 310.726 180.742 310.933 180.648 311.111L177.848 319.423L183.293 312.544C183.392 312.369 183.553 312.237 183.744 312.176C183.936 312.115 184.143 312.129 184.325 312.214L185.844 313.037L177.025 323.419Z" fill="#2C6063"/>
<path d="M211.89 341.986C211.534 342.519 210.995 343.354 210.866 343.531C210.654 343.792 210.247 344.053 209.508 343.927L204.369 343.053L208.095 321.206C208.14 321.032 208.249 320.881 208.4 320.785C208.552 320.688 208.735 320.652 208.912 320.685L214.931 321.711L213.873 323.25C213.695 323.516 213.283 323.823 212.543 323.683L210.68 323.364C210.608 323.349 210.534 323.348 210.461 323.363C210.389 323.378 210.321 323.407 210.261 323.45C210.2 323.493 210.15 323.547 210.112 323.61C210.074 323.674 210.05 323.744 210.041 323.817L208.894 330.501L212.363 331.095C212.007 331.628 211.463 332.493 211.334 332.671C211.121 332.932 210.746 333.199 210.007 333.072L209.043 332.906C208.899 332.886 208.753 332.922 208.634 333.006C208.516 333.09 208.433 333.217 208.404 333.359L207.069 341.167L211.89 341.986Z" fill="#2C6063"/>
<path d="M227.135 345.173H226.126H225.963C224.788 345.153 224.616 343.74 224.587 343.554L221.672 322.267L223.464 322.295C223.627 322.295 224.017 322.433 224.134 323.187L226.086 337.518L228.646 322.367L230.993 322.404L227.135 345.173Z" fill="#2C6063"/>
<path d="M248.984 340.758C248.818 341.377 248.574 342.34 248.506 342.549C248.391 342.865 248.087 343.24 247.359 343.358L242.2 344.169L238.76 322.271C238.748 322.092 238.804 321.914 238.917 321.774C239.029 321.634 239.19 321.541 239.368 321.514L245.387 320.568L244.88 322.365C244.797 322.675 244.499 323.085 243.756 323.2L241.89 323.486C241.817 323.494 241.746 323.518 241.682 323.555C241.619 323.592 241.563 323.641 241.52 323.701C241.476 323.761 241.446 323.829 241.43 323.901C241.415 323.973 241.414 324.047 241.429 324.12L242.481 330.818L245.958 330.271C245.791 330.89 245.553 331.884 245.487 332.093C245.37 332.409 245.101 332.781 244.358 332.899L243.392 333.051C243.249 333.078 243.122 333.159 243.036 333.276C242.951 333.394 242.913 333.54 242.931 333.684L244.163 341.509L248.984 340.758Z" fill="#2C6063"/>
<path d="M264.674 338.783L262.02 330.872C261.665 329.82 260.994 329.668 260.409 329.866L259.234 330.259L262.355 339.56L260.131 340.308L252.871 318.688L256.918 317.329C257.275 317.209 257.652 317.161 258.028 317.186C258.404 317.212 258.771 317.312 259.108 317.479C259.445 317.647 259.746 317.88 259.994 318.164C260.241 318.448 260.43 318.778 260.55 319.135L262.791 325.81C262.791 325.81 263.456 327.479 262.631 327.995C263.642 328.138 264.118 329.766 264.118 329.766L266.898 338.046L264.674 338.783ZM259.704 327.762C260.277 327.567 260.765 327.132 260.432 326.143L258.475 320.333C258.205 319.531 257.546 319.407 256.958 319.605L255.783 320.001L258.529 328.146L259.704 327.762Z" fill="#2C6063"/>
<path d="M277.105 322.989L281.516 331.387L280.046 332.161C279.884 332.239 279.698 332.252 279.527 332.199C279.355 332.146 279.21 332.03 279.12 331.874L275.027 324.084L266.345 313.582L267.876 312.78C268.058 312.695 268.266 312.684 268.457 312.748C268.648 312.812 268.807 312.946 268.902 313.124L274.239 320.071L271.55 311.725C271.457 311.547 271.435 311.341 271.489 311.148C271.542 310.955 271.666 310.789 271.837 310.684L273.367 309.882L277.105 322.989Z" fill="#2C6063"/>
<path d="M298.943 296.648L297.034 294.825C296.916 294.712 296.778 294.623 296.626 294.564C296.474 294.504 296.312 294.475 296.15 294.479C295.987 294.482 295.826 294.517 295.677 294.582C295.527 294.648 295.393 294.742 295.28 294.859C295.167 294.977 295.078 295.115 295.019 295.267C294.959 295.419 294.93 295.58 294.934 295.743C294.937 295.906 294.972 296.067 295.037 296.216C295.103 296.365 295.197 296.5 295.314 296.613L296.89 298.124C297.856 299.047 299.805 299.511 299.805 299.511L305.558 301.133C307.851 301.752 308.894 302.882 308.894 302.882L310.992 304.888C311.268 305.154 311.488 305.472 311.641 305.824C311.793 306.175 311.875 306.553 311.882 306.936C311.888 307.319 311.819 307.7 311.678 308.056C311.537 308.412 311.328 308.737 311.061 309.013L310.046 310.073C309.503 310.595 308.781 310.891 308.028 310.9C307.274 310.908 306.546 310.629 305.991 310.119L304.294 308.497C304.096 308.339 303.948 308.128 303.865 307.889C303.782 307.65 303.769 307.393 303.827 307.147C303.913 306.96 304.259 305.986 304.477 305.381L307.344 308.13C307.463 308.241 307.602 308.327 307.755 308.384C307.907 308.441 308.07 308.467 308.232 308.461C308.395 308.455 308.555 308.417 308.703 308.35C308.851 308.282 308.984 308.186 309.095 308.067C309.206 307.948 309.292 307.808 309.349 307.655C309.406 307.503 309.432 307.341 309.426 307.178C309.42 307.015 309.382 306.856 309.315 306.708C309.247 306.56 309.151 306.426 309.032 306.315L307.149 304.513C306.18 303.59 304.211 303.102 304.211 303.102L298.478 301.503C296.185 300.887 295.142 299.755 295.142 299.755L293.445 298.135C292.299 297.029 292.155 295.097 293.282 293.919L294.294 292.859C295.4 291.749 297.315 291.821 298.447 292.904L299.083 293.512C299.28 293.67 299.429 293.881 299.512 294.119C299.595 294.358 299.608 294.616 299.55 294.862C299.507 295.068 299.175 296.02 298.943 296.648Z" fill="#2C6063"/>
<path d="M302.975 282.576C303.041 282.471 303.127 282.381 303.229 282.311C303.331 282.241 303.446 282.193 303.568 282.17C303.689 282.147 303.814 282.149 303.935 282.177C304.055 282.204 304.169 282.256 304.268 282.329L322.179 294.941L321.225 296.299C320.904 296.752 320.583 296.646 320.431 296.586L302.17 283.722L302.975 282.576Z" fill="#2C6063"/>
<path d="M310.513 269.733C310.855 269.042 311.453 268.512 312.18 268.255C312.907 267.998 313.705 268.035 314.406 268.358L319.685 270.992C321.669 271.98 322.617 273.654 321.614 275.669L320.989 276.922L330.147 281.491L329.407 282.978C329.158 283.474 328.834 283.417 328.677 283.342L308.696 273.379L310.513 269.733ZM313.781 270.559C313.493 270.451 313.175 270.455 312.889 270.569C312.604 270.683 312.371 270.899 312.236 271.175L311.683 272.281L319.035 275.947L319.588 274.838C319.726 274.564 319.757 274.248 319.676 273.952C319.594 273.656 319.405 273.401 319.146 273.236L313.781 270.559Z" fill="#2C6063"/>
<path d="M125.843 176.747C122.228 173.952 120.548 176.238 119.534 175.387C118.974 174.917 119.561 174.217 119.561 174.217L121.88 171.454C126.87 165.508 143.272 169.973 151.81 172.727L138.554 161.602C134.938 158.806 133.258 161.092 132.244 160.241C131.684 159.771 132.271 159.072 132.271 159.072L135.941 154.7C136.322 154.245 136.703 154.147 137.088 154.47C138.102 155.321 136.142 157.372 139.522 160.448L154.143 172.718C157.758 175.513 159.439 173.227 160.453 174.079C161.013 174.548 160.425 175.248 160.425 175.248L155.993 180.53C155.494 181.124 154.699 180.934 153.235 180.122C149.827 178.216 129.341 173.006 127.022 175.769L141.433 187.863C145.048 190.659 146.728 188.373 147.742 189.224C148.302 189.694 147.715 190.393 147.715 190.393L144.046 194.766C143.664 195.22 143.284 195.318 142.899 194.996C141.884 194.144 143.844 192.093 140.464 189.018L125.843 176.747Z" fill="#2C6063"/>
<path d="M167.836 133.612C165.797 130.471 164.153 130.287 163.581 129.406C163.009 128.525 164.081 127.829 164.081 127.829L169.175 124.521C170.247 123.825 170.819 124.706 170.819 124.706C171.391 125.587 170.891 127.164 172.93 130.304L182.828 145.546C184.868 148.686 186.512 148.871 187.084 149.752C187.656 150.633 186.584 151.329 186.584 151.329L181.49 154.637C180.418 155.333 179.846 154.452 179.846 154.452C179.274 153.571 179.774 151.994 177.735 148.854L167.836 133.612Z" fill="#2C6063"/>
<path d="M217.516 118.052C217.516 114.308 216.237 113.258 216.237 112.207C216.237 111.523 216.648 111.157 217.516 111.157H223.589C224.867 111.157 224.867 112.207 224.867 112.207C224.867 113.258 223.589 114.308 223.589 118.052V125.085C228.384 123.212 231.169 118.326 231.945 113.806C232.037 113.029 231.26 112.39 231.26 111.934C231.26 111.431 231.763 111.157 232.813 111.157H236.009C237.562 111.157 237.562 111.934 237.562 111.934C237.562 112.527 237.06 112.755 236.74 113.532C235.461 118.326 231.717 123.349 226.374 125.815C233.178 127.094 235.553 137.505 236.283 139.286C236.831 140.656 238.064 140.838 238.064 142.071C238.064 142.893 237.425 143.122 236.694 143.122H230.941C230.164 143.122 229.799 142.391 229.479 140.747C228.749 136.911 226.922 127.733 223.589 127.733V136.226C223.589 139.971 224.867 141.021 224.867 142.071C224.867 142.756 224.456 143.122 223.589 143.122H217.516C216.237 143.122 216.237 142.071 216.237 142.071C216.237 141.021 217.516 139.971 217.516 136.226V118.052Z" fill="#2C6063"/>
<path d="M270.816 153.343C262.764 148.114 261.955 139.857 267.253 131.7C272.55 123.543 280.422 120.923 288.474 126.152C296.527 131.382 297.335 139.638 292.038 147.796C286.741 155.953 278.869 158.572 270.816 153.343ZM274.939 136.691C269.642 144.849 269.741 150.191 271.937 151.617C274.133 153.044 279.054 150.961 284.351 142.804C289.649 134.647 289.55 129.304 287.354 127.878C285.157 126.452 280.237 128.534 274.939 136.691Z" fill="#2C6063"/>
<path d="M318.474 166.359C321.342 163.952 321.325 162.297 322.13 161.622C322.934 160.947 323.756 161.927 323.756 161.927L327.66 166.579C328.482 167.559 327.677 168.234 327.677 168.234C326.873 168.909 325.246 168.604 322.378 171.011L308.456 182.693C305.587 185.1 305.605 186.755 304.8 187.43C303.995 188.105 303.174 187.125 303.174 187.125L299.27 182.473C298.448 181.494 299.252 180.819 299.252 180.819C300.057 180.143 301.683 180.448 304.552 178.041L318.474 166.359Z" fill="#2C6063"/>
</g>
<g clip-path="url(#clip2_97_125)">
<g clip-path="url(#clip3_97_125)">
<path d="M1169.19 761.891C1132.69 761.891 1098.39 747.68 1072.57 721.873C1046.75 696.065 1032.55 661.757 1032.55 625.261C1032.55 588.765 1046.77 554.465 1072.57 528.646C1098.38 502.827 1132.69 488.631 1169.19 488.631C1205.68 488.631 1239.98 502.842 1265.8 528.646C1291.61 554.451 1305.82 588.765 1305.82 625.261C1305.82 661.757 1291.6 696.057 1265.8 721.873C1239.99 747.689 1205.68 761.891 1169.19 761.891ZM1169.19 493.587C1134.01 493.587 1100.95 507.284 1076.08 532.155C1051.21 557.025 1037.51 590.09 1037.51 625.261C1037.51 660.432 1051.21 693.497 1076.08 718.368C1100.95 743.238 1134.01 756.933 1169.19 756.933C1204.36 756.933 1237.42 743.238 1262.29 718.368C1287.16 693.497 1300.86 660.432 1300.86 625.261C1300.86 590.09 1287.16 557.025 1262.29 532.155C1237.42 507.284 1204.36 493.587 1169.19 493.587Z" fill="#2C6063"/>
<path d="M1072.34 619.938H1061.69V630.587H1072.34V619.938Z" fill="#2C6063"/>
<path d="M1276.7 619.938H1266.05V630.587H1276.7V619.938Z" fill="#2C6063"/>
<path d="M1187.43 679.22H1153.2C1152.65 679.22 1152.12 679.038 1151.69 678.704C1151.26 678.369 1150.95 677.9 1150.81 677.371L1132.47 606.435C1132.38 606.07 1132.37 605.688 1132.44 605.319C1132.52 604.95 1132.68 604.604 1132.91 604.306C1133.14 604.008 1133.43 603.767 1133.77 603.601C1134.11 603.434 1134.48 603.348 1134.86 603.348H1204.8C1205.17 603.348 1205.54 603.433 1205.87 603.597C1206.21 603.76 1206.51 603.998 1206.74 604.293C1206.97 604.587 1207.13 604.93 1207.21 605.295C1207.29 605.661 1207.28 606.04 1207.19 606.403L1189.82 677.339C1189.69 677.875 1189.38 678.352 1188.95 678.693C1188.52 679.034 1187.98 679.219 1187.43 679.22ZM1155.11 674.287H1185.49L1201.65 608.283H1138.04L1155.11 674.287Z" fill="#2C6063"/>
<path d="M1131.24 626.192C1131.14 626.192 1131.03 626.18 1130.92 626.155C1125.81 624.906 1121.25 621.996 1117.96 617.88C1114.6 613.692 1112.78 608.477 1112.8 603.108C1112.81 597.129 1115.07 591.373 1119.14 586.992C1123.21 582.612 1128.78 579.93 1134.74 579.484C1140.7 579.038 1146.62 580.861 1151.29 584.588C1155.96 588.315 1159.06 593.671 1159.95 599.582C1159.98 599.757 1159.97 599.935 1159.93 600.106C1159.88 600.278 1159.81 600.439 1159.7 600.581C1159.6 600.722 1159.47 600.842 1159.31 600.933C1159.16 601.024 1159 601.084 1158.82 601.11C1158.65 601.136 1158.47 601.127 1158.3 601.084C1158.13 601.042 1157.96 600.965 1157.82 600.86C1157.68 600.755 1157.56 600.623 1157.47 600.472C1157.38 600.32 1157.32 600.152 1157.29 599.978C1156.51 594.731 1153.77 589.976 1149.62 586.666C1145.47 583.357 1140.23 581.738 1134.94 582.134C1129.65 582.53 1124.7 584.912 1121.1 588.802C1117.49 592.692 1115.49 597.802 1115.49 603.108C1115.47 607.869 1117.09 612.492 1120.08 616.203C1122.99 619.851 1127.02 622.431 1131.56 623.541C1131.88 623.62 1132.15 623.813 1132.34 624.083C1132.53 624.353 1132.61 624.681 1132.57 625.007C1132.53 625.333 1132.37 625.633 1132.13 625.852C1131.89 626.07 1131.57 626.192 1131.24 626.195V626.192Z" fill="#2C6063"/>
<path d="M1154.57 676.429C1154.44 676.429 1154.32 676.418 1154.19 676.395C1153.93 676.347 1153.68 676.248 1153.46 676.104C1153.24 675.959 1153.05 675.772 1152.9 675.553C1152.75 675.333 1152.64 675.087 1152.59 674.827C1152.54 674.567 1152.53 674.299 1152.58 674.039L1167.84 593.005C1167.89 592.699 1168.02 592.41 1168.21 592.161C1168.4 591.912 1168.64 591.711 1168.92 591.572L1205.24 573.469C1205.47 573.351 1205.73 573.28 1206 573.262C1206.26 573.243 1206.53 573.277 1206.78 573.361C1207.03 573.445 1207.26 573.578 1207.46 573.751C1207.66 573.925 1207.82 574.136 1207.94 574.373C1208.06 574.61 1208.13 574.868 1208.15 575.132C1208.17 575.396 1208.13 575.661 1208.05 575.913C1207.97 576.164 1207.83 576.396 1207.66 576.596C1207.49 576.796 1207.27 576.959 1207.04 577.077L1171.62 594.736L1156.56 674.784C1156.47 675.249 1156.23 675.668 1155.86 675.969C1155.5 676.27 1155.04 676.433 1154.57 676.429Z" fill="#2C6063"/>
<path d="M1199.1 630.42H1140.86C1140.68 630.429 1140.5 630.4 1140.33 630.336C1140.16 630.273 1140 630.175 1139.87 630.049C1139.74 629.923 1139.64 629.772 1139.56 629.605C1139.49 629.437 1139.45 629.257 1139.45 629.075C1139.45 628.893 1139.49 628.712 1139.56 628.545C1139.64 628.377 1139.74 628.226 1139.87 628.1C1140 627.975 1140.16 627.877 1140.33 627.813C1140.5 627.749 1140.68 627.721 1140.86 627.729H1199.1C1199.45 627.745 1199.77 627.894 1200.01 628.144C1200.25 628.395 1200.39 628.728 1200.39 629.075C1200.39 629.421 1200.25 629.754 1200.01 630.005C1199.77 630.256 1199.45 630.404 1199.1 630.42Z" fill="#2C6063"/>
<path d="M1067.95 677.019C1067.31 677.019 1066.32 677.056 1066.1 677.048C1065.76 677.022 1065.32 676.836 1065 676.154L1062.81 671.407L1082.94 662.112C1083.11 662.051 1083.29 662.056 1083.46 662.126C1083.62 662.196 1083.76 662.326 1083.83 662.49L1086.39 668.022H1084.52C1084.2 668.022 1083.72 667.853 1083.41 667.162L1082.61 665.442C1082.59 665.374 1082.54 665.313 1082.49 665.261C1082.44 665.21 1082.38 665.17 1082.31 665.145C1082.24 665.119 1082.16 665.108 1082.09 665.112C1082.02 665.117 1081.95 665.137 1081.88 665.17L1075.72 668.013L1077.2 671.209C1076.56 671.209 1075.54 671.261 1075.32 671.255C1074.98 671.229 1074.55 671.072 1074.24 670.395L1073.83 669.507C1073.76 669.377 1073.65 669.276 1073.51 669.226C1073.37 669.176 1073.22 669.18 1073.09 669.237L1065.9 672.559L1067.95 677.019Z" fill="#2C6063"/>
<path d="M1075.57 693.692L1074.96 692.806C1074.24 691.755 1074.96 691.024 1075.29 690.685L1083.18 682.247L1072.66 689.442L1071.34 687.504L1090.17 674.626L1090.78 675.512C1091.51 676.589 1091.13 677.128 1090.67 677.604L1082.23 686.292L1093.08 678.877L1094.4 680.814L1075.57 693.692Z" fill="#2C6063"/>
<path d="M1102.79 690.512C1102.88 690.594 1102.95 690.695 1103.01 690.809C1103.06 690.922 1103.08 691.045 1103.08 691.169C1103.08 691.294 1103.06 691.417 1103.01 691.53C1102.95 691.644 1102.88 691.745 1102.79 691.827L1088.82 705.043C1088.27 705.56 1087.55 705.842 1086.8 705.83C1086.05 705.818 1085.33 705.512 1084.8 704.977L1084.78 705L1083.77 703.934C1083.52 703.658 1083.32 703.334 1083.19 702.98C1083.06 702.627 1083 702.252 1083.01 701.875C1083.03 701.499 1083.11 701.129 1083.27 700.787C1083.43 700.445 1083.65 700.137 1083.93 699.881L1084.26 699.569C1084.81 699.053 1085.29 699.044 1085.61 699.191C1085.79 699.242 1086.68 699.612 1087.27 699.858L1085.78 701.269C1085.67 701.38 1085.57 701.514 1085.5 701.663C1085.44 701.811 1085.4 701.972 1085.4 702.134C1085.39 702.297 1085.42 702.459 1085.48 702.611C1085.54 702.763 1085.62 702.902 1085.74 703.02C1085.85 703.138 1085.98 703.233 1086.13 703.299C1086.28 703.366 1086.44 703.402 1086.6 703.407C1086.76 703.411 1086.93 703.384 1087.08 703.326C1087.23 703.268 1087.37 703.18 1087.49 703.069L1101.83 689.494L1102.79 690.512Z" fill="#2C6063"/>
<path d="M1113.39 699.496C1113.97 699.978 1114.34 700.662 1114.43 701.409C1114.52 702.155 1114.32 702.907 1113.87 703.509L1103.19 717.387C1102.72 717.971 1102.05 718.353 1101.3 718.454C1100.56 718.556 1099.81 718.369 1099.2 717.932L1097.76 716.837C1097.16 716.367 1096.76 715.68 1096.66 714.922C1096.55 714.164 1096.74 713.395 1097.19 712.776L1107.88 698.923C1108.11 698.62 1108.41 698.367 1108.74 698.177C1109.07 697.988 1109.44 697.866 1109.82 697.818C1110.2 697.771 1110.59 697.799 1110.96 697.901C1111.33 698.003 1111.67 698.177 1111.98 698.413L1113.39 699.496ZM1099.84 715.834C1099.97 715.934 1100.12 716.007 1100.28 716.049C1100.44 716.09 1100.6 716.1 1100.77 716.076C1100.93 716.053 1101.09 715.997 1101.23 715.912C1101.37 715.827 1101.5 715.715 1101.59 715.582L1111.73 702.397C1111.83 702.268 1111.91 702.12 1111.96 701.961C1112 701.802 1112.02 701.635 1112 701.471C1111.98 701.307 1111.92 701.148 1111.84 701.004C1111.76 700.859 1111.65 700.733 1111.52 700.631L1111.24 700.414C1110.97 700.223 1110.63 700.142 1110.31 700.189C1109.98 700.236 1109.68 700.407 1109.48 700.666L1099.34 713.85C1099.15 714.115 1099.06 714.445 1099.09 714.773C1099.13 715.101 1099.3 715.402 1099.55 715.613L1099.84 715.834Z" fill="#2C6063"/>
<path d="M1119.55 719.418L1115.03 727.755L1113.57 726.964C1113.41 726.875 1113.29 726.729 1113.24 726.557C1113.19 726.384 1113.2 726.198 1113.28 726.036L1117.48 718.297L1121.37 705.241L1122.89 706.067C1123.06 706.171 1123.18 706.337 1123.24 706.531C1123.29 706.725 1123.27 706.932 1123.17 707.11L1120.37 715.422L1125.82 708.543C1125.92 708.368 1126.08 708.236 1126.27 708.175C1126.46 708.114 1126.67 708.128 1126.85 708.213L1128.37 709.036L1119.55 719.418Z" fill="#2C6063"/>
<path d="M1154.42 737.984C1154.06 738.518 1153.52 739.352 1153.39 739.529C1153.18 739.79 1152.77 740.051 1152.03 739.925L1146.9 739.051L1150.62 717.204C1150.67 717.03 1150.78 716.879 1150.93 716.783C1151.08 716.686 1151.26 716.65 1151.44 716.683L1157.46 717.709L1156.4 719.248C1156.22 719.514 1155.81 719.821 1155.07 719.681L1153.21 719.363C1153.13 719.347 1153.06 719.346 1152.99 719.361C1152.92 719.376 1152.85 719.405 1152.79 719.448C1152.73 719.491 1152.68 719.545 1152.64 719.609C1152.6 719.672 1152.58 719.742 1152.57 719.815L1151.42 726.499L1154.89 727.093C1154.53 727.626 1153.99 728.491 1153.86 728.669C1153.65 728.93 1153.27 729.197 1152.53 729.07L1151.57 728.904C1151.43 728.885 1151.28 728.92 1151.16 729.004C1151.04 729.089 1150.96 729.215 1150.93 729.357L1149.59 737.165L1154.42 737.984Z" fill="#2C6063"/>
<path d="M1169.66 741.172H1168.65H1168.49C1167.31 741.151 1167.14 739.738 1167.11 739.552L1164.2 718.265L1165.99 718.293C1166.15 718.293 1166.54 718.431 1166.66 719.185L1168.61 733.516L1171.17 718.365L1173.52 718.402L1169.66 741.172Z" fill="#2C6063"/>
<path d="M1191.51 736.757C1191.34 737.376 1191.1 738.339 1191.03 738.548C1190.92 738.864 1190.61 739.239 1189.89 739.357L1184.73 740.168L1181.29 718.27C1181.27 718.091 1181.33 717.913 1181.44 717.773C1181.56 717.633 1181.72 717.54 1181.89 717.513L1187.91 716.567L1187.41 718.365C1187.32 718.674 1187.02 719.084 1186.28 719.199L1184.42 719.485C1184.34 719.493 1184.27 719.517 1184.21 719.554C1184.14 719.591 1184.09 719.64 1184.05 719.7C1184 719.76 1183.97 719.828 1183.96 719.9C1183.94 719.972 1183.94 720.046 1183.96 720.119L1185.01 726.817L1188.48 726.27C1188.32 726.889 1188.08 727.883 1188.01 728.092C1187.9 728.408 1187.63 728.78 1186.88 728.898L1185.92 729.05C1185.78 729.077 1185.65 729.158 1185.56 729.275C1185.48 729.393 1185.44 729.539 1185.46 729.683L1186.69 737.508L1191.51 736.757Z" fill="#2C6063"/>
<path d="M1207.2 734.783L1204.55 726.872C1204.19 725.82 1203.52 725.668 1202.94 725.866L1201.76 726.259L1204.88 735.56L1202.66 736.308L1195.4 714.688L1199.44 713.329C1199.8 713.209 1200.18 713.161 1200.55 713.186C1200.93 713.212 1201.3 713.312 1201.63 713.479C1201.97 713.647 1202.27 713.88 1202.52 714.164C1202.77 714.448 1202.96 714.778 1203.08 715.135L1205.32 721.81C1205.32 721.81 1205.98 723.479 1205.16 723.995C1206.17 724.138 1206.64 725.766 1206.64 725.766L1209.42 734.046L1207.2 734.783ZM1202.23 723.762C1202.8 723.567 1203.29 723.132 1202.96 722.143L1201 716.333C1200.73 715.531 1200.07 715.407 1199.48 715.605L1198.31 716.001L1201.06 724.146L1202.23 723.762Z" fill="#2C6063"/>
<path d="M1219.63 718.988L1224.04 727.386L1222.57 728.16C1222.41 728.238 1222.22 728.251 1222.05 728.198C1221.88 728.145 1221.74 728.029 1221.65 727.873L1217.55 720.083L1208.87 709.581L1210.4 708.779C1210.58 708.694 1210.79 708.683 1210.98 708.747C1211.17 708.811 1211.33 708.945 1211.43 709.123L1216.77 716.07L1214.08 707.724C1213.98 707.546 1213.96 707.34 1214.01 707.147C1214.07 706.954 1214.19 706.788 1214.36 706.683L1215.89 705.881L1219.63 718.988Z" fill="#2C6063"/>
<path d="M1241.47 692.646L1239.56 690.823C1239.44 690.71 1239.3 690.621 1239.15 690.562C1239 690.502 1238.84 690.474 1238.68 690.477C1238.51 690.48 1238.35 690.515 1238.2 690.58C1238.05 690.646 1237.92 690.74 1237.81 690.857C1237.69 690.975 1237.6 691.113 1237.54 691.265C1237.49 691.417 1237.46 691.578 1237.46 691.741C1237.46 691.904 1237.5 692.065 1237.56 692.214C1237.63 692.363 1237.72 692.498 1237.84 692.611L1239.42 694.122C1240.38 695.045 1242.33 695.509 1242.33 695.509L1248.08 697.131C1250.38 697.75 1251.42 698.88 1251.42 698.88L1253.52 700.886C1253.79 701.152 1254.01 701.47 1254.17 701.822C1254.32 702.173 1254.4 702.551 1254.41 702.934C1254.41 703.317 1254.35 703.698 1254.2 704.054C1254.06 704.41 1253.85 704.735 1253.59 705.011L1252.57 706.071C1252.03 706.593 1251.31 706.889 1250.55 706.898C1249.8 706.906 1249.07 706.627 1248.52 706.117L1246.82 704.495C1246.62 704.337 1246.47 704.126 1246.39 703.887C1246.31 703.648 1246.3 703.391 1246.35 703.145C1246.44 702.958 1246.79 701.984 1247 701.379L1249.87 704.128C1249.99 704.239 1250.13 704.325 1250.28 704.382C1250.43 704.439 1250.6 704.465 1250.76 704.459C1250.92 704.453 1251.08 704.415 1251.23 704.348C1251.38 704.28 1251.51 704.184 1251.62 704.065C1251.73 703.946 1251.82 703.806 1251.88 703.653C1251.93 703.501 1251.96 703.339 1251.95 703.176C1251.95 703.013 1251.91 702.854 1251.84 702.706C1251.77 702.558 1251.68 702.424 1251.56 702.313L1249.68 700.511C1248.71 699.588 1246.74 699.1 1246.74 699.1L1241 697.501C1238.71 696.885 1237.67 695.753 1237.67 695.753L1235.97 694.133C1234.83 693.027 1234.68 691.095 1235.81 689.917L1236.82 688.857C1237.93 687.747 1239.84 687.819 1240.97 688.902L1241.61 689.51C1241.81 689.668 1241.96 689.879 1242.04 690.118C1242.12 690.356 1242.13 690.614 1242.08 690.86C1242.03 691.066 1241.7 692.018 1241.47 692.646Z" fill="#2C6063"/>
<path d="M1245.5 678.574C1245.57 678.469 1245.65 678.379 1245.76 678.309C1245.86 678.239 1245.97 678.191 1246.09 678.168C1246.22 678.145 1246.34 678.147 1246.46 678.175C1246.58 678.202 1246.69 678.254 1246.79 678.327L1264.71 690.939L1263.75 692.297C1263.43 692.75 1263.11 692.644 1262.96 692.584L1244.7 679.72L1245.5 678.574Z" fill="#2C6063"/>
<path d="M1253.04 665.732C1253.38 665.041 1253.98 664.511 1254.71 664.254C1255.43 663.997 1256.23 664.034 1256.93 664.357L1262.21 666.991C1264.19 667.979 1265.14 669.653 1264.14 671.668L1263.52 672.921L1272.67 677.49L1271.93 678.977C1271.68 679.473 1271.36 679.416 1271.2 679.341L1251.22 669.378L1253.04 665.732ZM1256.31 666.558C1256.02 666.45 1255.7 666.454 1255.42 666.568C1255.13 666.682 1254.9 666.898 1254.76 667.174L1254.21 668.28L1261.56 671.946L1262.11 670.837C1262.25 670.563 1262.28 670.247 1262.2 669.951C1262.12 669.655 1261.93 669.4 1261.67 669.235L1256.31 666.558Z" fill="#2C6063"/>
<path d="M1068.37 572.747C1064.75 569.952 1063.07 572.238 1062.06 571.387C1061.5 570.917 1062.09 570.217 1062.09 570.217L1064.41 567.454C1069.4 561.508 1085.8 565.973 1094.34 568.727L1081.08 557.602C1077.46 554.806 1075.78 557.092 1074.77 556.241C1074.21 555.771 1074.8 555.072 1074.8 555.072L1078.47 550.7C1078.85 550.245 1079.23 550.147 1079.61 550.47C1080.63 551.321 1078.67 553.372 1082.05 556.448L1096.67 568.718C1100.28 571.513 1101.96 569.227 1102.98 570.079C1103.54 570.548 1102.95 571.248 1102.95 571.248L1098.52 576.53C1098.02 577.124 1097.23 576.934 1095.76 576.122C1092.35 574.216 1071.87 569.006 1069.55 571.769L1083.96 583.863C1087.57 586.659 1089.25 584.373 1090.27 585.224C1090.83 585.694 1090.24 586.393 1090.24 586.393L1086.57 590.766C1086.19 591.22 1085.81 591.318 1085.42 590.996C1084.41 590.144 1086.37 588.093 1082.99 585.018L1068.37 572.747Z" fill="#2C6063"/>
<path d="M1110.36 529.613C1108.32 526.472 1106.68 526.288 1106.11 525.407C1105.53 524.526 1106.61 523.83 1106.61 523.83L1111.7 520.522C1112.77 519.826 1113.34 520.707 1113.34 520.707C1113.92 521.588 1113.42 523.165 1115.46 526.305L1125.35 541.547C1127.39 544.687 1129.04 544.872 1129.61 545.753C1130.18 546.634 1129.11 547.33 1129.11 547.33L1124.02 550.638C1122.94 551.334 1122.37 550.453 1122.37 550.453C1121.8 549.572 1122.3 547.995 1120.26 544.855L1110.36 529.613Z" fill="#2C6063"/>
<path d="M1160.04 514.054C1160.04 510.31 1158.76 509.26 1158.76 508.209C1158.76 507.524 1159.17 507.159 1160.04 507.159H1166.11C1167.39 507.159 1167.39 508.209 1167.39 508.209C1167.39 509.26 1166.11 510.31 1166.11 514.054V521.087C1170.91 519.214 1173.69 514.328 1174.47 509.808C1174.56 509.031 1173.79 508.392 1173.79 507.935C1173.79 507.433 1174.29 507.159 1175.34 507.159H1178.54C1180.09 507.159 1180.09 507.935 1180.09 507.935C1180.09 508.529 1179.59 508.757 1179.27 509.534C1177.99 514.328 1174.24 519.351 1168.9 521.817C1175.7 523.096 1178.08 533.507 1178.81 535.288C1179.36 536.658 1180.59 536.84 1180.59 538.073C1180.59 538.895 1179.95 539.124 1179.22 539.124H1173.47C1172.69 539.124 1172.32 538.393 1172.01 536.749C1171.27 532.913 1169.45 523.735 1166.11 523.735V532.228C1166.11 535.973 1167.39 537.023 1167.39 538.073C1167.39 538.758 1166.98 539.124 1166.11 539.124H1160.04C1158.76 539.124 1158.76 538.073 1158.76 538.073C1158.76 537.023 1160.04 535.973 1160.04 532.228V514.054Z" fill="#2C6063"/>
<path d="M1213.34 549.344C1205.29 544.115 1204.48 535.858 1209.78 527.701C1215.08 519.544 1222.95 516.924 1231 522.153C1239.05 527.383 1239.86 535.639 1234.56 543.796C1229.27 551.954 1221.39 554.573 1213.34 549.344ZM1217.46 532.692C1212.17 540.85 1212.27 546.192 1214.46 547.618C1216.66 549.045 1221.58 546.962 1226.88 538.805C1232.17 530.648 1232.08 525.305 1229.88 523.879C1227.68 522.453 1222.76 524.535 1217.46 532.692Z" fill="#2C6063"/>
<path d="M1261 562.36C1263.87 559.953 1263.85 558.298 1264.66 557.623C1265.46 556.948 1266.28 557.928 1266.28 557.928L1270.19 562.58C1271.01 563.56 1270.2 564.235 1270.2 564.235C1269.4 564.91 1267.77 564.605 1264.9 567.012L1250.98 578.694C1248.11 581.101 1248.13 582.756 1247.33 583.431C1246.52 584.106 1245.7 583.126 1245.7 583.126L1241.8 578.474C1240.97 577.495 1241.78 576.819 1241.78 576.819C1242.58 576.144 1244.21 576.449 1247.08 574.042L1261 562.36Z" fill="#2C6063"/>
</g>
</g>
<path opacity="0.4" d="M629.326 316.74C634.202 316.009 637.453 314.444 638.103 311.864C638.277 310.426 637.973 308.972 637.239 307.723C636.505 306.475 635.38 305.503 634.039 304.957C630.7 303.658 627.089 303.218 623.536 303.677C623.983 299.187 619.859 293.905 615.795 291.649C611.732 289.394 604.357 288.886 600.193 292.3C598.994 284.295 593.834 280.354 585.768 277.55C582.264 276.354 578.507 276.1 574.874 276.813C571.24 277.526 567.858 279.181 565.066 281.613C560.393 272.857 546.436 267.615 532.113 273.345C526.467 275.649 521.867 279.952 519.192 285.433C517.86 288.561 517.117 291.908 516.998 295.306C515.073 293.959 512.806 293.184 510.459 293.069C508.112 292.954 505.78 293.504 503.732 294.656C502.171 295.627 500.899 296.999 500.049 298.628C499.199 300.257 498.801 302.085 498.896 303.92C495.938 304.111 493.033 304.797 490.303 305.952C487.194 307.252 483.964 310.178 485.102 313.246C485.955 315.562 488.84 316.476 491.379 316.841C496.431 317.532 501.57 317.207 506.495 315.887C511.104 318.914 516.526 320.466 522.039 320.335C527.552 320.205 532.894 318.398 537.355 315.155C539.371 316.676 541.504 318.035 543.734 319.218C546.088 320.271 548.588 320.956 551.15 321.25C555.477 321.717 561.572 320.905 564.944 318.06C565.363 317.589 565.928 317.274 566.549 317.167C567.042 317.201 567.518 317.362 567.931 317.634C571.237 319.379 574.966 320.165 578.696 319.903C582.426 319.641 586.009 318.341 589.039 316.151C592.933 319.631 598.029 321.459 603.247 321.247C608.466 321.035 613.396 318.799 616.994 315.013C620.855 316.756 625.135 317.356 629.326 316.74Z" fill="white"/>
<path opacity="0.4" d="M676.094 363.324C669.572 362.349 665.204 360.236 664.351 356.782C663.498 353.329 666.383 348.88 669.755 347.539C674.224 345.8 679.057 345.207 683.814 345.812C683.225 339.717 688.73 332.728 694.175 329.721C699.62 326.715 709.514 326.004 715.06 330.595C716.685 319.868 723.593 314.606 734.401 310.827C740.333 308.796 752.686 307.516 762.112 316.17C768.39 304.448 787.061 297.419 806.239 305.098C813.814 308.198 819.978 313.986 823.548 321.351C825.334 325.548 826.326 330.039 826.474 334.597C829.059 332.803 832.096 331.771 835.24 331.62C838.383 331.469 841.506 332.205 844.251 333.744C846.342 335.045 848.046 336.882 849.186 339.066C850.326 341.249 850.859 343.698 850.731 346.157C854.694 346.385 858.589 347.285 862.251 348.819C866.314 350.566 870.722 354.466 869.219 358.57C868.061 361.679 864.201 362.918 860.808 363.385C854.02 364.329 847.111 363.901 840.492 362.126C834.316 366.154 827.058 368.206 819.687 368.006C812.315 367.806 805.179 365.365 799.23 361.008C796.524 363.06 793.665 364.901 790.677 366.514C787.52 367.894 784.169 368.778 780.742 369.135C774.952 369.765 766.805 368.667 762.275 364.868C762.065 364.54 761.786 364.261 761.458 364.051C761.13 363.841 760.76 363.704 760.374 363.65C759.988 363.596 759.595 363.626 759.222 363.738C758.848 363.85 758.504 364.042 758.212 364.299C753.777 366.63 748.779 367.675 743.782 367.316C738.785 366.957 733.988 365.208 729.932 362.268C724.716 366.898 717.926 369.355 710.956 369.135C704.012 368.817 697.46 365.825 692.672 360.785C687.505 363.21 681.749 364.091 676.094 363.324Z" fill="white"/>
<path d="M824.164 462.442C824.164 462.442 787.926 397.241 780.527 391.374C774.896 386.921 759.067 349.747 747.593 323.749C746.208 320.603 740.911 323.185 739.648 320.275C735.359 310.417 731.879 302.229 730.087 298.013C726.443 289.418 705.323 293.385 701.872 298.013C700.099 300.394 687.58 335.473 679.611 352.073C677.047 357.413 660.228 360.826 653.321 363.566C646.64 366.214 628.739 416.673 623.558 420.335C594.912 440.593 587.829 458.706 582.132 462.381H824.164V462.442Z" fill="#37474F"/>
<path d="M759.72 462.31C759.72 462.31 694.52 438.827 686.259 435.765C682.724 434.453 660.85 398.221 658.864 396.101C655.766 392.802 645.501 389.346 640.071 383.284C638.789 381.857 630.595 371.658 629.915 370.984C627.849 368.961 619.795 369.411 615.683 369.411C611.206 369.411 576.881 422.256 573.303 426.709C569.725 431.161 550.385 447.197 544.396 448.825C538.407 450.453 521.921 462.31 521.921 462.31H759.72Z" fill="#455A64"/>
<path opacity="0.6" d="M849.687 461.952H616.869C616.869 461.952 659.388 451.772 674.999 451.772C690.609 451.772 715.052 452.13 715.052 452.13C715.052 452.13 743.746 442.314 762.534 442.314C781.321 442.314 849.687 461.952 849.687 461.952Z" fill="white"/>
<path opacity="0.8" d="M494.132 462.032H757.886C757.886 462.032 709.699 447.01 692.035 447.01C674.371 447.01 646.661 447.539 646.661 447.539C646.661 447.539 614.158 433.052 592.874 433.052C571.59 433.052 494.132 462.032 494.132 462.032Z" fill="white"/>
<rect x="0.869141" y="462.001" width="1351.26" height="159.789" fill="#95D6D8"/>
<path d="M326.892 501.37H377.651M448.899 505.267H398.141M364.955 514.054H405.947M462.563 506.248H481.116M506.495 501.37H557.254M628.502 505.267H577.744M544.558 514.054H585.562M642.166 506.248H660.719M686.098 501.37H736.857M808.105 505.267H757.359M724.161 514.054H765.165M821.781 506.248H840.322M865.701 501.37H916.46M987.72 505.267H936.962M903.764 514.054H944.768M1001.38 506.248H1019.93M959.412 545.936H917.512M858.708 539.827H900.596M927.984 526.104H894.153M847.423 538.309H832.121M811.165 545.936H769.277M710.461 539.827H752.362M779.749 526.104H745.918M699.188 538.309H683.875M662.931 545.936H621.042M562.227 539.827H604.127M631.514 526.104H597.672M550.954 538.309H535.64M514.696 545.936H472.808M413.992 539.827H455.88M483.28 526.104H449.437M402.719 538.309H387.405M1059.95 583.581H1003.33M923.836 575.332H980.464M1017.49 556.779H971.749M908.594 573.276H887.913M859.605 583.581H802.977M723.492 575.332H780.12M817.131 556.779H771.405M708.25 573.276H687.557M659.249 583.581H602.633M523.148 575.332H579.764M616.787 556.779H571.061M507.906 573.276H487.213M458.905 583.581H402.289M322.804 575.332H379.42M416.443 556.779H370.705M307.55 573.276H286.869" stroke="white" stroke-opacity="0.8" stroke-width="1.98831" stroke-miterlimit="10"/>
<path d="M523.746 451.343C524.209 482.744 529.044 513.928 538.111 543.995C546.671 571.624 564.669 600.295 579.689 622.059H554.695C554.695 622.059 533.125 568.632 528.346 544.65C517.717 491.059 521.856 450.613 521.856 450.613L523.746 451.343Z" fill="#806414"/>
<path d="M555.098 422.685L547.655 420.884L554.279 425.484C553.172 428.721 551.515 431.742 549.382 434.416L541.938 431.081L547.223 436.887C546.373 437.762 545.468 438.582 544.514 439.343L540.122 437.14L542.593 440.802C540.65 442.167 538.593 443.362 536.445 444.375L532.888 440.415L534.912 445.074C530.702 446.882 526.31 448.234 521.812 449.109L552.731 395.429C554.334 399.475 555.4 403.714 555.902 408.037H552.627L556.095 409.854C556.2 411.223 556.259 412.652 556.244 414.126L548.488 413.322L556.051 417.699C555.851 419.381 555.533 421.048 555.098 422.685Z" fill="#455A64"/>
<path d="M566.351 450.21L563.523 446.816L565.012 451.475C563.488 452.8 561.802 453.925 559.995 454.825L556.705 448.558L556.973 456.001C555.848 456.367 554.699 456.656 553.534 456.864L551.376 452.398L551.182 457.236C549.142 457.428 547.089 457.428 545.049 457.236L543.873 449.391L541.849 456.834C540.806 456.641 539.75 456.418 538.648 456.12V450.969L535.968 455.271C531.121 453.673 526.448 451.588 522.02 449.049L572.499 440.608C571.174 444.219 569.076 447.496 566.351 450.21Z" fill="#455A64"/>
<path d="M521.976 449.124C517.608 444.558 513.754 439.526 510.484 434.119L515.977 430.859L509.249 431.99C508.236 430.129 507.343 428.298 506.584 426.512L512.211 422.805L505.423 423.534C504.857 421.971 504.396 420.438 503.934 418.935L513.7 415.407L502.937 413.739C502.474 410.404 502.409 407.026 502.743 403.676L515.456 400.818L503.547 398.868C503.726 398.004 503.934 397.171 504.157 396.352L511.035 396.605L504.872 394.045C505.546 392.046 506.357 390.097 507.298 388.209L517.109 390.293L508.876 385.262C511.828 380.129 515.634 375.537 520.13 371.686L521.976 449.124Z" fill="#455A64"/>
<path d="M503.857 442.172L505.956 436.709L501.58 440.966C500.746 440.505 499.898 440.029 499.049 439.478L501.327 435.697L497.709 438.674C496.355 437.811 495.015 436.903 493.705 435.935L497.188 431.469L491.472 434.283C489.067 432.334 486.867 430.144 484.907 427.747L491.978 421.912L483.046 425.276C481.63 423.213 480.485 420.977 479.637 418.622L486.619 414.007L478.819 415.972C478.486 414.672 478.252 413.348 478.119 412.013L488.539 407.353L478 406.713C478.153 404.909 478.457 403.122 478.908 401.369L486.455 400.907L479.623 398.838C480.939 394.881 482.729 391.098 484.952 387.569C484.952 387.569 495.566 429.4 521.9 449.199C515.661 447.481 509.615 445.126 503.857 442.172Z" fill="#455A64"/>
<path d="M508.235 454.022L506.985 451.417L507.432 454.126C506.672 454.23 505.943 454.29 505.213 454.32L504.335 450.851L503.382 454.335C502.356 454.308 501.332 454.219 500.316 454.067L500.792 448.321L498.023 453.575C495.926 453.025 493.92 452.173 492.069 451.045L492.992 446.668L490.655 450.211C489.917 449.687 489.206 449.126 488.526 448.529L491.339 443.84L487.008 447.115C485.85 445.943 484.785 444.684 483.822 443.348L486.338 440.505L483.152 442.396C482.825 441.905 482.497 441.413 482.214 440.907L483.911 439.344L481.649 439.969C480.301 437.658 479.208 435.207 478.388 432.66C492.516 446.475 522.08 449.124 522.08 449.124C517.78 451.54 513.097 453.197 508.235 454.022Z" fill="#455A64"/>
<path d="M547.074 470.054L546.389 467.628L546.091 470.143C545.13 470.218 544.165 470.218 543.203 470.143L543.442 465.975L541.774 469.995C540.321 469.789 538.898 469.414 537.532 468.878L538.172 464.784L535.552 467.985C534.655 467.519 533.794 466.987 532.976 466.392L534.688 463.266L531.994 465.633C531.369 465.127 530.758 464.576 530.148 463.98L532.53 460.214L528.317 461.971C527.766 461.286 527.215 460.571 526.665 459.783L528.674 458.071L526.039 458.86C524.072 455.742 522.454 452.418 521.216 448.945C521.216 448.945 539.541 464.68 555.112 467.657C552.603 468.944 549.878 469.757 547.074 470.054Z" fill="#455A64"/>
<path d="M514.173 465.751L511.449 463.057L513.057 466.867C512.262 467.613 511.395 468.276 510.467 468.847L508.189 466.704L509.425 469.443C508.979 469.689 508.517 469.903 508.04 470.083L505.51 466.287L506.224 470.678C504.732 471.063 503.194 471.233 501.654 471.184L500.24 468.073L500.091 471.05C499.391 470.976 498.707 470.857 498.052 470.723L497.56 467.612L496.876 470.44C494.688 469.853 492.593 468.961 490.653 467.79C507.251 465.557 521.527 450.716 521.527 450.716C519.592 457.831 517.046 462.61 514.173 465.751Z" fill="#455A64"/>
<path d="M529.075 460.855C528.822 462.056 528.219 463.155 527.341 464.014C526.463 464.872 525.35 465.451 524.143 465.676C522.936 465.902 521.69 465.765 520.561 465.282C519.432 464.8 518.471 463.993 517.801 462.965C517.13 461.936 516.78 460.732 516.794 459.504C516.808 458.276 517.186 457.08 517.88 456.067C518.573 455.054 519.552 454.27 520.692 453.813C521.831 453.356 523.081 453.247 524.282 453.501C525.081 453.667 525.838 453.99 526.512 454.45C527.185 454.91 527.761 455.498 528.207 456.182C528.652 456.865 528.958 457.63 529.107 458.431C529.256 459.233 529.246 460.057 529.075 460.855Z" fill="#997717"/>
<path d="M524.969 454.35C524.715 455.552 524.111 456.651 523.232 457.509C522.353 458.367 521.239 458.945 520.032 459.17C518.824 459.394 517.577 459.256 516.448 458.772C515.319 458.287 514.36 457.479 513.69 456.449C513.021 455.419 512.672 454.214 512.689 452.986C512.705 451.758 513.085 450.562 513.781 449.55C514.476 448.538 515.457 447.755 516.598 447.3C517.739 446.846 518.989 446.74 520.191 446.996C520.988 447.164 521.744 447.488 522.416 447.949C523.088 448.409 523.662 448.998 524.106 449.681C524.55 450.364 524.855 451.128 525.003 451.93C525.151 452.731 525.139 453.553 524.969 454.35Z" fill="#B28B1B"/>
<path d="M531.282 454.542C531.028 455.744 530.425 456.843 529.547 457.701C528.669 458.559 527.556 459.138 526.349 459.364C525.142 459.59 523.896 459.453 522.767 458.97C521.638 458.487 520.677 457.681 520.007 456.652C519.337 455.623 518.986 454.419 519 453.191C519.014 451.964 519.392 450.768 520.086 449.755C520.779 448.742 521.758 447.957 522.898 447.5C524.037 447.044 525.287 446.935 526.488 447.188C527.287 447.355 528.044 447.677 528.718 448.137C529.392 448.597 529.967 449.186 530.413 449.869C530.858 450.552 531.164 451.317 531.313 452.119C531.462 452.921 531.452 453.744 531.282 454.542Z" fill="#CC9F1F"/>
<path d="M824.456 479.693C823.914 506.161 818.709 532.326 809.08 556.985C799.954 580.026 741.324 603.958 725.241 622.094H751.978C751.978 622.094 814.418 577.54 819.528 557.51C830.935 512.841 826.372 479.055 826.372 479.055L824.456 479.693Z" fill="#B28B1B"/>
<path d="M804.861 448.666H811.705L804.997 451.198C805.252 454.22 806.023 457.175 807.279 459.936L814.442 458.658L808.625 462.536C809.186 463.465 809.795 464.364 810.45 465.228L814.716 464.293L811.796 467.076C813.191 468.669 814.717 470.142 816.359 471.479L820.282 468.833L817.522 472.415C820.766 474.875 824.26 476.986 827.948 478.711L812.891 425.784C810.631 428.923 808.79 432.343 807.416 435.959L810.245 436.621L806.891 437.442C806.503 438.582 806.138 439.723 805.842 441.092L812.686 442.073L805.226 444.195C804.993 445.674 804.871 447.168 804.861 448.666Z" fill="#455A64"/>
<path d="M789.211 469.974L792.382 467.692L790.101 471.388C791.125 472.855 792.337 474.182 793.706 475.335L797.903 470.658L796.055 477.069C796.945 477.618 797.867 478.113 798.816 478.551L801.667 475.129L800.778 479.327C802.494 479.931 804.267 480.359 806.07 480.605L808.785 474.103L808.945 480.947C809.88 480.947 810.838 480.947 811.842 480.947L812.937 476.498L814.352 480.833C818.868 480.543 823.341 479.779 827.697 478.551L786.017 460.301C786.363 463.72 787.453 467.021 789.211 469.974Z" fill="#455A64"/>
<path d="M827.697 478.598C832.437 475.593 836.842 472.091 840.837 468.149L836.799 464.134L842.365 466.552C843.594 465.239 844.752 463.86 845.833 462.423L841.795 457.952L847.476 460.05C848.297 458.819 849.027 457.609 849.757 456.4L842.115 451.267L851.742 452.134C852.841 449.36 853.607 446.465 854.023 443.511L843.712 438.287L854.411 439.199C854.411 438.423 854.411 437.648 854.411 436.918L848.434 435.663L854.297 434.773C854.148 432.909 853.874 431.057 853.476 429.23L844.556 428.887L852.746 426.332C851.292 421.267 848.977 416.49 845.902 412.211L827.697 478.598Z" fill="#455A64"/>
<path d="M844.805 476.499L844.166 471.343L847.04 475.906C847.862 475.7 848.706 475.449 849.527 475.198L848.387 471.457L850.873 474.788C852.219 474.354 853.565 473.852 854.911 473.305L852.881 468.742L857.192 472.392C859.687 471.239 862.057 469.832 864.265 468.195L859.428 461.624L866.386 466.438C868.052 464.965 869.524 463.286 870.766 461.442L865.725 455.967L872.067 459.297C872.624 458.246 873.104 457.156 873.504 456.035L865.474 449.761L874.599 451.495C874.901 449.862 875.054 448.205 875.055 446.545L868.668 444.514L875.055 444.263C874.743 440.564 873.977 436.917 872.774 433.404C872.774 433.404 854.523 467.145 827.649 478.552C833.423 478.455 839.171 477.767 844.805 476.499Z" fill="#455A64"/>
<path d="M838.554 485.761L840.196 483.799L839.215 486.08C839.854 486.331 840.47 486.537 841.086 486.719L842.592 483.913V487.13C843.517 487.345 844.454 487.505 845.398 487.609L846.219 482.544L847.474 487.677C849.408 487.658 851.329 487.358 853.177 486.788L853.337 482.818L854.546 486.309C855.324 486.025 856.086 485.698 856.827 485.328L855.413 480.765L858.447 484.529C859.688 483.757 860.877 482.904 862.006 481.974L860.432 478.985L862.713 481.267C863.101 480.925 863.489 480.56 863.831 480.195L862.713 478.484L864.515 479.51C866.174 477.806 867.65 475.933 868.918 473.921C853.747 482.772 827.717 478.689 827.717 478.689C830.9 481.646 834.565 484.038 838.554 485.761Z" fill="#455A64"/>
<path d="M801.554 491.213L802.74 489.274L802.444 491.555C803.252 491.835 804.085 492.041 804.93 492.171L805.615 488.543L806.185 492.353C807.481 492.513 808.791 492.513 810.086 492.353L810.428 488.68L812.002 492.011C812.877 491.814 813.732 491.539 814.558 491.19L813.759 488.133L815.584 490.756C816.223 490.46 816.862 490.118 817.523 489.73L816.269 485.966L819.531 488.384C820.147 487.928 820.786 487.426 821.424 486.878L820.056 484.939L822.154 486.194C824.527 483.943 826.639 481.433 828.451 478.711C828.451 478.711 809.265 488.315 795.212 487.517C797.087 489.12 799.235 490.372 801.554 491.213Z" fill="#455A64"/>
<path d="M830.844 494.59L833.764 492.856L831.483 495.799C832.004 496.619 832.608 497.384 833.285 498.081L835.726 496.735L834.061 498.834C834.395 499.134 834.745 499.416 835.11 499.678L838.122 496.963L836.547 500.59C837.755 501.234 839.044 501.71 840.38 502.005L842.274 499.564L841.749 502.233C842.354 502.319 842.963 502.372 843.574 502.392L844.669 499.837V502.415C846.682 502.382 848.68 502.059 850.601 501.457C836.913 495.959 827.787 480.081 827.787 480.081C827.629 485.093 828.678 490.069 830.844 494.59Z" fill="#455A64"/>
<path d="M819.053 487.176C819.013 488.268 819.298 489.347 819.871 490.277C820.445 491.207 821.282 491.945 822.275 492.4C823.269 492.854 824.375 493.003 825.454 492.828C826.532 492.653 827.535 492.162 828.334 491.417C829.133 490.672 829.693 489.707 829.944 488.643C830.194 487.579 830.123 486.466 829.74 485.442C829.357 484.419 828.679 483.533 827.792 482.895C826.904 482.257 825.848 481.897 824.756 481.86C824.032 481.833 823.31 481.949 822.631 482.201C821.952 482.454 821.329 482.838 820.799 483.332C820.269 483.826 819.842 484.42 819.542 485.08C819.243 485.739 819.076 486.452 819.053 487.176Z" fill="#997717"/>
<path d="M823.979 482.451C823.939 483.542 824.223 484.62 824.796 485.55C825.369 486.479 826.204 487.217 827.197 487.672C828.189 488.127 829.294 488.277 830.372 488.104C831.45 487.93 832.452 487.441 833.252 486.699C834.052 485.956 834.614 484.993 834.867 483.931C835.12 482.869 835.052 481.756 834.672 480.733C834.293 479.709 833.618 478.821 832.734 478.181C831.85 477.541 830.796 477.177 829.705 477.136C828.98 477.108 828.256 477.224 827.576 477.476C826.896 477.729 826.272 478.113 825.74 478.606C825.208 479.1 824.779 479.694 824.477 480.354C824.174 481.013 824.005 481.726 823.979 482.451Z" fill="#B28B1B"/>
<path d="M818.501 481.244C818.461 482.335 818.746 483.413 819.318 484.343C819.891 485.272 820.727 486.01 821.719 486.465C822.711 486.92 823.816 487.07 824.894 486.896C825.972 486.723 826.974 486.234 827.774 485.492C828.574 484.749 829.136 483.786 829.389 482.724C829.642 481.662 829.574 480.549 829.194 479.526C828.815 478.502 828.14 477.614 827.256 476.974C826.372 476.334 825.318 475.97 824.227 475.929C823.502 475.901 822.779 476.017 822.098 476.269C821.418 476.522 820.794 476.906 820.262 477.399C819.73 477.893 819.301 478.487 818.999 479.146C818.697 479.806 818.527 480.519 818.501 481.244Z" fill="#CC9F1F"/>
<path d="M607.164 734.075C596.326 734.075 588.559 726.97 588.559 712.7C588.559 699.394 595.362 690.724 606.742 690.724C614.268 690.724 619.025 692.711 619.025 696.986C619.025 698.491 617.7 700.237 615.352 700.237C610.957 700.237 612.402 692.711 606.742 692.711C602.708 692.711 597.41 699.394 597.41 712.7C597.41 726.97 603.491 732.088 607.164 732.088C608.91 732.088 610.114 731.486 610.957 730.583V720.708C609.09 718.782 608.669 717.638 610.957 715.771L614.991 712.46C615.533 711.978 616.436 711.556 617.219 711.556C618.182 711.556 618.965 712.159 618.965 714.146V730.703C618.965 732.51 618.905 733.473 617.098 733.473C615.593 733.473 614.329 733.052 613.365 732.51C611.74 733.413 609.692 734.075 607.164 734.075Z" fill="#2C6063"/>
<path d="M639.926 734.075C629.45 734.075 623.248 724.682 623.248 712.279C623.248 699.876 629.45 690.724 639.926 690.724C650.403 690.724 656.604 699.876 656.604 712.279C656.604 724.682 650.403 734.075 639.926 734.075ZM632.099 712.279C632.099 724.682 636.193 732.088 639.926 732.088C643.659 732.088 647.754 724.682 647.754 712.279C647.754 699.876 643.659 692.711 639.926 692.711C636.193 692.711 632.099 699.876 632.099 712.279Z" fill="#2C6063"/>
<path d="M677.497 734.075C667.02 734.075 660.818 724.682 660.818 712.279C660.818 699.876 667.02 690.724 677.497 690.724C687.973 690.724 694.175 699.876 694.175 712.279C694.175 724.682 687.973 734.075 677.497 734.075ZM669.669 712.279C669.669 724.682 673.764 732.088 677.497 732.088C681.23 732.088 685.324 724.682 685.324 712.279C685.324 699.876 681.23 692.711 677.497 692.711C673.764 692.711 669.669 699.876 669.669 712.279Z" fill="#2C6063"/>
<path d="M698.389 692.711C698.389 691.326 700.075 691.326 700.075 691.326H724.942C726.387 691.326 726.025 692.229 725.664 692.831L723.376 696.564C723.015 697.166 722.593 697.407 722.112 697.407C721.51 697.407 721.811 697.588 721.329 697.287C720.125 696.564 720.486 693.313 714.766 693.313H709.648C708.504 693.313 708.083 696.203 708.083 700.418V711.978C714.104 711.737 713.863 708.004 715.609 708.004C716.572 708.004 716.572 709.208 716.572 709.208V716.735C716.572 717.939 715.609 717.939 715.609 717.939C713.863 717.939 714.104 714.206 708.083 713.965V724.381C708.083 728.596 708.504 731.486 709.648 731.486H716.03C722.112 731.486 723.677 725.826 725.664 725.826C725.845 725.826 726.025 725.887 726.206 726.007C727.591 726.79 724.4 732.269 724.339 732.329C723.798 733.292 722.172 733.473 721.269 733.473H700.075C698.389 733.473 698.389 732.088 698.389 732.088C698.389 730.703 700.075 729.319 700.075 724.381V700.418C700.075 695.48 698.389 694.095 698.389 692.711Z" fill="#2C6063"/>
<path d="M730.785 692.711C730.785 691.326 732.471 691.326 732.471 691.326H741.201C742.345 691.326 742.887 691.807 742.887 692.711C742.887 694.095 740.78 694.999 743.549 700.418L750.714 714.326L757.037 700.418C759.204 695.721 754.989 694.095 754.989 692.711C754.989 691.326 756.675 691.326 756.675 691.326H762.696C763.84 691.326 764.382 691.807 764.382 692.711C764.382 694.095 761.311 695.48 759.084 700.418L752.822 714.206C752.4 715.169 751.678 716.855 751.678 717.337V724.381C751.678 729.319 753.364 730.703 753.364 732.088C753.364 733.473 751.678 733.473 751.678 733.473H743.67C742.526 733.473 741.984 732.991 741.984 732.088C741.984 730.703 743.67 729.319 743.67 724.381V717.337C743.67 716.855 742.887 715.35 742.345 714.326L735.18 700.418C732.711 695.661 730.785 694.095 730.785 692.711Z" fill="#2C6063"/>
<path d="M528 758.711C528 757.807 528.542 757.326 529.686 757.326H543.233C549.856 757.326 555.155 761.842 555.155 768.284C555.155 772.318 553.349 775.931 550.398 778.159C553.891 779.965 556.359 783.337 556.359 787.491C556.359 793.994 551.061 799.473 544.437 799.473H529.686C528 799.473 528 798.088 528 798.088C528 796.703 529.686 795.319 529.686 790.381V766.418C529.686 761.48 528 760.095 528 758.711ZM537.694 790.381C537.694 793.271 537.573 796.101 538.717 796.101H542.029C546.304 796.101 547.508 791.044 547.508 787.491C547.508 783.999 545.702 779.905 541.427 779.905C541.246 779.905 541.066 779.905 540.825 779.905C539.44 779.905 537.694 779.965 537.694 781.41V790.381ZM538.717 760.698C537.573 760.698 537.694 763.527 537.694 766.418V775.449C537.694 776.774 539.5 776.894 540.704 776.894C541.005 776.894 541.246 776.894 541.427 776.894C545.702 776.894 546.304 771.836 546.304 768.284C546.304 764.792 545.1 760.698 540.825 760.698H538.717Z" fill="#2C6063"/>
<path d="M562.258 766.418C562.258 761.48 560.572 760.095 560.572 758.711C560.572 757.326 562.258 757.326 562.258 757.326H570.266C571.952 757.326 571.952 758.711 571.952 758.711C571.952 760.095 570.266 761.48 570.266 766.418V790.381C570.266 794.596 570.688 797.486 571.832 797.486H578.214C584.295 797.486 585.861 791.826 587.848 791.826C588.028 791.826 588.209 791.887 588.39 792.007C589.775 792.79 586.583 798.269 586.523 798.329C585.981 799.292 584.356 799.473 583.452 799.473H562.258C560.572 799.473 560.572 798.088 560.572 798.088C560.572 796.703 562.258 795.319 562.258 790.381V766.418Z" fill="#2C6063"/>
<path d="M594.654 766.418C594.654 761.48 592.969 760.095 592.969 758.711C592.969 757.326 594.654 757.326 594.654 757.326H602.662C604.348 757.326 604.348 758.711 604.348 758.711C604.348 760.095 602.662 761.48 602.662 766.418V788.575C602.662 794.355 606.697 797.306 610.791 797.306C614.825 797.306 618.859 794.355 618.859 788.575V765.815C618.618 759.794 614.885 760.035 614.885 758.289C614.885 757.326 616.089 757.326 616.089 757.326H623.616C624.82 757.326 624.82 758.289 624.82 758.289C624.82 760.035 621.087 759.794 620.846 765.815V788.575C620.846 796.222 614.283 800.075 607.78 800.075C601.217 800.075 594.654 796.222 594.654 788.575V766.418Z" fill="#2C6063"/>
<path d="M629.01 758.711C629.01 757.326 630.696 757.326 630.696 757.326H655.563C657.008 757.326 656.647 758.229 656.286 758.831L653.998 762.564C653.636 763.166 653.215 763.407 652.733 763.407C652.131 763.407 652.432 763.588 651.95 763.287C650.746 762.564 651.107 759.313 645.387 759.313H640.27C639.126 759.313 638.704 762.203 638.704 766.418V777.978C644.725 777.737 644.484 774.004 646.23 774.004C647.194 774.004 647.194 775.208 647.194 775.208V782.735C647.194 783.939 646.23 783.939 646.23 783.939C644.484 783.939 644.725 780.206 638.704 779.965V790.381C638.704 794.596 639.126 797.486 640.27 797.486H646.652C652.733 797.486 654.299 791.826 656.286 791.826C656.466 791.826 656.647 791.887 656.827 792.007C658.212 792.79 655.021 798.269 654.961 798.329C654.419 799.292 652.793 799.473 651.89 799.473H630.696C629.01 799.473 629.01 798.088 629.01 798.088C629.01 796.703 630.696 795.319 630.696 790.381V766.418C630.696 761.48 629.01 760.095 629.01 758.711Z" fill="#2C6063"/>
<path d="M661.406 758.711C661.406 757.807 661.948 757.326 663.092 757.326H676.64C683.263 757.326 688.561 761.842 688.561 768.284C688.561 772.318 686.755 775.931 683.805 778.159C687.297 779.965 689.765 783.337 689.765 787.491C689.765 793.994 684.467 799.473 677.844 799.473H663.092C661.406 799.473 661.406 798.088 661.406 798.088C661.406 796.703 663.092 795.319 663.092 790.381V766.418C663.092 761.48 661.406 760.095 661.406 758.711ZM671.1 790.381C671.1 793.271 670.98 796.101 672.124 796.101H675.435C679.71 796.101 680.914 791.044 680.914 787.491C680.914 783.999 679.108 779.905 674.833 779.905C674.653 779.905 674.472 779.905 674.231 779.905C672.846 779.905 671.1 779.965 671.1 781.41V790.381ZM672.124 760.698C670.98 760.698 671.1 763.527 671.1 766.418V775.449C671.1 776.774 672.906 776.894 674.111 776.894C674.412 776.894 674.653 776.894 674.833 776.894C679.108 776.894 679.71 771.836 679.71 768.284C679.71 764.792 678.506 760.698 674.231 760.698H672.124Z" fill="#2C6063"/>
<path d="M693.979 758.711C693.979 757.326 695.665 757.326 695.665 757.326H720.532C721.977 757.326 721.615 758.229 721.254 758.831L718.966 762.564C718.605 763.166 718.183 763.407 717.702 763.407C717.1 763.407 717.401 763.588 716.919 763.287C715.715 762.564 716.076 759.313 710.356 759.313H705.238C704.094 759.313 703.673 762.203 703.673 766.418V777.978C709.694 777.737 709.453 774.004 711.199 774.004C712.162 774.004 712.162 775.208 712.162 775.208V782.735C712.162 783.939 711.199 783.939 711.199 783.939C709.453 783.939 709.694 780.206 703.673 779.965V790.381C703.673 794.596 704.094 797.486 705.238 797.486H711.62C717.702 797.486 719.267 791.826 721.254 791.826C721.435 791.826 721.615 791.887 721.796 792.007C723.181 792.79 719.99 798.269 719.929 798.329C719.388 799.292 717.762 799.473 716.859 799.473H695.665C693.979 799.473 693.979 798.088 693.979 798.088C693.979 796.703 695.665 795.319 695.665 790.381V766.418C695.665 761.48 693.979 760.095 693.979 758.711Z" fill="#2C6063"/>
<path d="M726.375 798.088C726.375 796.703 728.061 795.319 728.061 790.381V766.418C728.061 761.48 726.375 760.095 726.375 758.711C726.375 757.807 726.917 757.326 728.061 757.326H736.069C736.671 757.326 737.032 757.567 737.634 757.567C738.056 757.567 738.477 757.446 737.514 757.928C739.139 757.145 740.886 756.724 742.812 756.724C749.435 756.724 754.734 761.721 754.734 770.03C754.734 776.774 751.242 781.711 746.365 783.337C751.121 786.889 752.807 792.609 753.53 794.415C754.252 796.222 755.878 796.463 755.878 798.088C755.878 799.172 755.035 799.473 754.072 799.473H746.485C745.462 799.473 744.98 798.51 744.558 796.342C743.836 792.549 742.632 786.407 739.982 783.517C738.598 783.156 737.273 782.494 736.069 781.591V790.381C736.069 795.319 737.755 796.703 737.755 798.088C737.755 798.991 737.213 799.473 736.069 799.473H728.061C726.375 799.473 726.375 798.088 726.375 798.088ZM736.069 766.418V778.52C737.273 779.724 738.778 780.507 740.404 780.507C744.679 780.507 745.883 775.329 745.883 770.03C745.883 764.671 744.679 760.095 740.404 760.095C736.189 760.095 736.069 762.925 736.069 766.418Z" fill="#2C6063"/>
<path d="M760.064 798.088C760.064 796.703 761.75 795.319 761.75 790.381V766.418C761.75 761.48 760.064 760.095 760.064 758.711C760.064 757.807 760.606 757.326 761.75 757.326H769.758C770.36 757.326 770.722 757.567 771.324 757.567C771.745 757.567 772.167 757.446 771.203 757.928C772.829 757.145 774.575 756.724 776.502 756.724C783.125 756.724 788.424 761.721 788.424 770.03C788.424 776.774 784.931 781.711 780.054 783.337C784.811 786.889 786.497 792.609 787.219 794.415C787.942 796.222 789.568 796.463 789.568 798.088C789.568 799.172 788.725 799.473 787.761 799.473H780.175C779.151 799.473 778.67 798.51 778.248 796.342C777.526 792.549 776.321 786.407 773.672 783.517C772.287 783.156 770.963 782.494 769.758 781.591V790.381C769.758 795.319 771.444 796.703 771.444 798.088C771.444 798.991 770.902 799.473 769.758 799.473H761.75C760.064 799.473 760.064 798.088 760.064 798.088ZM769.758 766.418V778.52C770.963 779.724 772.468 780.507 774.094 780.507C778.368 780.507 779.573 775.329 779.573 770.03C779.573 764.671 778.368 760.095 774.094 760.095C769.879 760.095 769.758 762.925 769.758 766.418Z" fill="#2C6063"/>
<path d="M791.343 758.711C791.343 757.326 793.029 757.326 793.029 757.326H801.76C802.904 757.326 803.446 757.807 803.446 758.711C803.446 760.095 801.338 760.999 804.108 766.418L811.273 780.326L817.595 766.418C819.763 761.721 815.548 760.095 815.548 758.711C815.548 757.326 817.234 757.326 817.234 757.326H823.255C824.399 757.326 824.941 757.807 824.941 758.711C824.941 760.095 821.87 761.48 819.642 766.418L813.38 780.206C812.959 781.169 812.236 782.855 812.236 783.337V790.381C812.236 795.319 813.922 796.703 813.922 798.088C813.922 799.473 812.236 799.473 812.236 799.473H804.228C803.084 799.473 802.543 798.991 802.543 798.088C802.543 796.703 804.228 795.319 804.228 790.381V783.337C804.228 782.855 803.446 781.35 802.904 780.326L795.739 766.418C793.27 761.661 791.343 760.095 791.343 758.711Z" fill="#2C6063"/>
<path d="M559.363 163.758C558.918 152.642 552.026 153.086 552.026 149.863C552.026 148.084 554.25 148.084 554.25 148.084H563.031C581.928 148.084 599.268 185.656 607.494 205.886V163.758C607.049 152.642 600.158 153.086 600.158 149.863C600.158 148.084 602.381 148.084 602.381 148.084H616.276C617.721 148.084 618.499 148.64 618.499 149.863C618.499 153.086 611.607 152.642 611.162 163.758V210.222C611.607 221.337 618.499 220.893 618.499 224.116C618.499 225.895 616.276 225.895 616.276 225.895H599.491C597.601 225.895 596.712 224.116 595.934 220.115C594.155 210.777 571.812 164.424 563.031 164.424V210.222C563.476 221.337 570.367 220.893 570.367 224.116C570.367 225.895 568.144 225.895 568.144 225.895H554.25C552.804 225.895 552.026 225.339 552.026 224.116C552.026 220.893 558.918 221.337 559.363 210.222V163.758Z" fill="white"/>
<path d="M629.384 164.869C629.384 155.754 626.272 153.197 626.272 150.641C626.272 148.084 629.384 148.084 629.384 148.084H644.168C647.281 148.084 647.281 150.641 647.281 150.641C647.281 153.197 644.168 155.754 644.168 164.869V209.11C644.168 218.225 647.281 220.782 647.281 223.338C647.281 225.895 644.168 225.895 644.168 225.895H629.384C626.272 225.895 626.272 223.338 626.272 223.338C626.272 220.782 629.384 218.225 629.384 209.11V164.869Z" fill="white"/>
<path d="M658.146 164.869C658.146 155.754 655.034 153.197 655.034 150.641C655.034 148.973 656.034 148.084 658.146 148.084H672.93C676.043 148.084 676.043 150.641 676.043 150.641C676.043 153.197 672.93 155.754 672.93 164.869V181.987C684.602 177.43 691.383 165.536 693.272 154.531C693.495 152.642 691.605 151.085 691.605 149.974C691.605 148.751 692.828 148.084 695.384 148.084H703.165C706.945 148.084 706.945 149.974 706.945 149.974C706.945 151.419 705.722 151.975 704.944 153.864C701.832 165.536 692.717 177.763 679.711 183.766C696.274 186.878 702.054 212.222 703.832 216.558C705.166 219.892 708.168 220.337 708.168 223.338C708.168 225.339 706.611 225.895 704.833 225.895H690.827C688.937 225.895 688.048 224.116 687.27 220.115C685.491 210.777 681.045 188.435 672.93 188.435V209.11C672.93 218.225 676.043 220.782 676.043 223.338C676.043 225.006 675.042 225.895 672.93 225.895H658.146C655.034 225.895 655.034 223.338 655.034 223.338C655.034 220.782 658.146 218.225 658.146 209.11V164.869Z" fill="white"/>
<path d="M741.182 227.006C721.841 227.006 710.392 209.666 710.392 186.767C710.392 163.869 721.841 146.973 741.182 146.973C760.524 146.973 771.973 163.869 771.973 186.767C771.973 209.666 760.524 227.006 741.182 227.006ZM726.732 186.767C726.732 209.666 734.29 223.338 741.182 223.338C748.074 223.338 755.633 209.666 755.633 186.767C755.633 163.869 748.074 150.641 741.182 150.641C734.29 150.641 726.732 163.869 726.732 186.767Z" fill="white"/>
<path d="M782.865 164.869C782.865 155.754 779.752 153.197 779.752 150.641C779.752 148.084 782.865 148.084 782.865 148.084H797.649C800.761 148.084 800.761 150.641 800.761 150.641C800.761 153.197 797.649 155.754 797.649 164.869V209.11C797.649 218.225 800.761 220.782 800.761 223.338C800.761 225.895 797.649 225.895 797.649 225.895H782.865C779.752 225.895 779.752 223.338 779.752 223.338C779.752 220.782 782.865 218.225 782.865 209.11V164.869Z" fill="white"/>
<path d="M575.214 270.594C576.153 270.742 577.005 271.125 577.771 271.742C578.561 272.36 579.179 273.126 579.623 274.04C580.093 274.954 580.327 275.929 580.327 276.967C580.327 278.276 579.994 279.462 579.327 280.524C578.66 281.561 577.684 282.389 576.4 283.006C575.14 283.599 573.645 283.896 571.916 283.896H562.283V258.07H571.546C573.3 258.07 574.794 258.366 576.029 258.959C577.264 259.527 578.19 260.305 578.808 261.293C579.426 262.282 579.734 263.393 579.734 264.628C579.734 266.16 579.314 267.432 578.475 268.445C577.659 269.433 576.573 270.149 575.214 270.594ZM565.654 269.223H571.323C572.904 269.223 574.127 268.852 574.992 268.111C575.856 267.37 576.288 266.345 576.288 265.036C576.288 263.727 575.856 262.701 574.992 261.96C574.127 261.219 572.88 260.849 571.249 260.849H565.654V269.223ZM571.62 281.117C573.3 281.117 574.609 280.721 575.547 279.931C576.486 279.14 576.955 278.041 576.955 276.633C576.955 275.201 576.461 274.077 575.473 273.261C574.485 272.422 573.164 272.002 571.509 272.002H565.654V281.117H571.62Z" fill="white"/>
<path d="M610.461 283.896L604.311 273.336H600.235V283.896H596.863V258.07H605.2C607.151 258.07 608.794 258.403 610.128 259.07C611.487 259.737 612.499 260.639 613.166 261.775C613.833 262.911 614.167 264.208 614.167 265.666C614.167 267.444 613.648 269.013 612.61 270.371C611.598 271.73 610.066 272.632 608.016 273.076L614.5 283.896H610.461ZM600.235 270.631H605.2C607.028 270.631 608.399 270.186 609.313 269.297C610.227 268.383 610.684 267.172 610.684 265.666C610.684 264.134 610.227 262.948 609.313 262.109C608.424 261.269 607.053 260.849 605.2 260.849H600.235V270.631Z" fill="white"/>
<path d="M634.634 260.812V269.445H644.046V272.224H634.634V281.117H645.157V283.896H631.263V258.033H645.157V260.812H634.634Z" fill="white"/>
<path d="M694.574 258.07L687.09 283.896H683.31L677.308 263.109L671.083 283.896L667.341 283.933L660.115 258.07H663.709L669.341 279.968L675.566 258.07H679.346L685.274 279.894L690.943 258.07H694.574Z" fill="white"/>
<path d="M713.493 258.07V283.896H710.121V258.07H713.493Z" fill="white"/>
<path d="M751.401 283.896H748.029L734.468 263.331V283.896H731.096V258.033H734.468L748.029 278.56V258.033H751.401V283.896Z" fill="white"/>
<path d="M788.57 265.554C787.853 264.048 786.816 262.887 785.457 262.072C784.099 261.232 782.518 260.812 780.714 260.812C778.911 260.812 777.281 261.232 775.823 262.072C774.391 262.887 773.254 264.072 772.415 265.629C771.599 267.16 771.192 268.939 771.192 270.964C771.192 272.99 771.599 274.768 772.415 276.3C773.254 277.831 774.391 279.017 775.823 279.857C777.281 280.672 778.911 281.08 780.714 281.08C783.234 281.08 785.309 280.326 786.939 278.819C788.57 277.313 789.521 275.275 789.792 272.706H779.492V269.964H793.386V272.557C793.189 274.682 792.522 276.633 791.386 278.412C790.249 280.166 788.755 281.561 786.902 282.599C785.05 283.611 782.987 284.118 780.714 284.118C778.318 284.118 776.132 283.562 774.156 282.45C772.18 281.314 770.611 279.746 769.45 277.745C768.314 275.744 767.746 273.484 767.746 270.964C767.746 268.445 768.314 266.184 769.45 264.184C770.611 262.158 772.18 260.589 774.156 259.478C776.132 258.342 778.318 257.773 780.714 257.773C783.456 257.773 785.877 258.453 787.977 259.811C790.101 261.17 791.645 263.084 792.608 265.554H788.57Z" fill="white"/>
<path d="M551.344 316.964C551.344 314.445 551.912 312.184 553.048 310.184C554.184 308.158 555.728 306.577 557.68 305.441C559.656 304.305 561.842 303.736 564.238 303.736C567.054 303.736 569.512 304.416 571.611 305.774C573.711 307.133 575.242 309.06 576.206 311.554H572.167C571.451 309.998 570.413 308.8 569.055 307.96C567.721 307.121 566.115 306.701 564.238 306.701C562.435 306.701 560.817 307.121 559.384 307.96C557.951 308.8 556.827 309.998 556.012 311.554C555.197 313.086 554.789 314.889 554.789 316.964C554.789 319.014 555.197 320.818 556.012 322.374C556.827 323.905 557.951 325.091 559.384 325.931C560.817 326.771 562.435 327.191 564.238 327.191C566.115 327.191 567.721 326.783 569.055 325.968C570.413 325.128 571.451 323.93 572.167 322.374H576.206C575.242 324.844 573.711 326.758 571.611 328.117C569.512 329.451 567.054 330.118 564.238 330.118C561.842 330.118 559.656 329.562 557.68 328.45C555.728 327.314 554.184 325.746 553.048 323.745C551.912 321.744 551.344 319.484 551.344 316.964Z" fill="white"/>
<path d="M604.79 330.155C602.394 330.155 600.208 329.599 598.232 328.488C596.256 327.351 594.687 325.783 593.526 323.782C592.39 321.756 591.822 319.484 591.822 316.964C591.822 314.445 592.39 312.184 593.526 310.184C594.687 308.158 596.256 306.589 598.232 305.478C600.208 304.342 602.394 303.773 604.79 303.773C607.211 303.773 609.41 304.342 611.386 305.478C613.362 306.589 614.918 308.146 616.054 310.146C617.191 312.147 617.759 314.42 617.759 316.964C617.759 319.508 617.191 321.781 616.054 323.782C614.918 325.783 613.362 327.351 611.386 328.488C609.41 329.599 607.211 330.155 604.79 330.155ZM604.79 327.228C606.594 327.228 608.212 326.808 609.644 325.968C611.102 325.128 612.238 323.93 613.053 322.374C613.893 320.818 614.313 319.014 614.313 316.964C614.313 314.889 613.893 313.086 613.053 311.554C612.238 309.998 611.114 308.8 609.681 307.96C608.249 307.121 606.618 306.701 604.79 306.701C602.963 306.701 601.332 307.121 599.9 307.96C598.467 308.8 597.331 309.998 596.491 311.554C595.676 313.086 595.268 314.889 595.268 316.964C595.268 319.014 595.676 320.818 596.491 322.374C597.331 323.93 598.467 325.128 599.9 325.968C601.357 326.808 602.987 327.228 604.79 327.228Z" fill="white"/>
<path d="M660.263 304.255V329.896H656.891V310.776L648.369 329.896H645.998L637.439 310.739V329.896H634.067V304.255H637.698L647.184 325.449L656.669 304.255H660.263Z" fill="white"/>
<path d="M695.105 311.629C695.105 313.778 694.364 315.569 692.882 317.001C691.424 318.409 689.189 319.113 686.175 319.113H681.21V329.896H677.838V304.07H686.175C689.09 304.07 691.301 304.774 692.808 306.182C694.339 307.59 695.105 309.405 695.105 311.629ZM686.175 316.334C688.052 316.334 689.436 315.927 690.325 315.112C691.214 314.296 691.659 313.135 691.659 311.629C691.659 308.442 689.831 306.849 686.175 306.849H681.21V316.334H686.175Z" fill="white"/>
<path d="M726.418 324.152H715.154L713.079 329.896H709.522L718.859 304.218H722.75L732.05 329.896H728.493L726.418 324.152ZM725.455 321.41L720.786 308.368L716.117 321.41H725.455Z" fill="white"/>
<path d="M768.281 329.896H764.909L751.348 309.331V329.896H747.976V304.033H751.348L764.909 324.56V304.033H768.281V329.896Z" fill="white"/>
<path d="M803.967 304.07L795.556 320.151V329.896H792.185V320.151L783.737 304.07H787.479L793.852 317.149L800.225 304.07H803.967Z" fill="white"/>
<path d="M147.357 693.94H146.074V802.989H147.357V693.94Z" fill="black"/>
<path d="M149.923 693.94H148.64V802.989H149.923V693.94Z" fill="black"/>
<path d="M152.488 693.94H151.206V796.575H152.488V693.94Z" fill="black"/>
<path d="M158.903 693.94H153.771V796.575H158.903V693.94Z" fill="black"/>
<path d="M164.035 693.94H161.469V796.575H164.035V693.94Z" fill="black"/>
<path d="M167.884 693.94H166.601V796.575H167.884V693.94Z" fill="black"/>
<path d="M174.298 693.94H171.732V796.575H174.298V693.94Z" fill="black"/>
<path d="M176.864 693.94H175.581V796.575H176.864V693.94Z" fill="black"/>
<path d="M181.996 693.94H178.147V796.575H181.996V693.94Z" fill="black"/>
<path d="M185.845 693.94H183.279V796.575H185.845V693.94Z" fill="black"/>
<path d="M188.41 693.94H187.127V796.575H188.41V693.94Z" fill="black"/>
<path d="M194.825 693.94H189.693V796.575H194.825V693.94Z" fill="black"/>
<path d="M198.674 693.94H197.391V796.575H198.674V693.94Z" fill="black"/>
<path d="M203.806 693.94H201.24V796.575H203.806V693.94Z" fill="black"/>
<path d="M206.372 693.94H205.089V802.989H206.372V693.94Z" fill="black"/>
<path d="M208.937 693.94H207.655V802.989H208.937V693.94Z" fill="black"/>
<path d="M211.503 693.94H210.22V796.575H211.503V693.94Z" fill="black"/>
<path d="M217.918 693.94H214.069V796.575H217.918V693.94Z" fill="black"/>
<path d="M220.484 693.94H219.201V796.575H220.484V693.94Z" fill="black"/>
<path d="M223.05 693.94H221.767V796.575H223.05V693.94Z" fill="black"/>
<path d="M232.03 693.94H228.181V796.575H232.03V693.94Z" fill="black"/>
<path d="M234.596 693.94H233.313V796.575H234.596V693.94Z" fill="black"/>
<path d="M238.445 693.94H237.162V796.575H238.445V693.94Z" fill="black"/>
<path d="M244.86 693.94H243.577V796.575H244.86V693.94Z" fill="black"/>
<path d="M248.708 693.94H246.142V796.575H248.708V693.94Z" fill="black"/>
<path d="M252.557 693.94H249.991V796.575H252.557V693.94Z" fill="black"/>
<path d="M256.406 693.94H255.123V796.575H256.406V693.94Z" fill="black"/>
<path d="M261.538 693.94H260.255V796.575H261.538V693.94Z" fill="black"/>
<path d="M265.386 693.94H264.104V802.989H265.386V693.94Z" fill="black"/>
<path d="M267.952 693.94H266.669V802.989H267.952V693.94Z" fill="black"/>
<path d="M135.943 808.664C135.943 808.476 135.926 808.294 135.89 808.118C135.714 807.306 135.261 806.718 134.532 806.354C134.156 806.165 133.75 806.071 133.315 806.071C132.409 806.071 131.71 806.448 131.216 807.2C130.922 807.635 130.775 808.112 130.775 808.629C130.775 808.817 130.792 809 130.828 809.176C130.992 809.964 131.445 810.534 132.186 810.887C132.551 811.064 132.933 811.152 133.333 811.152C134.262 811.152 134.985 810.781 135.502 810.04C135.796 809.617 135.943 809.158 135.943 808.664ZM132.133 805.048C132.568 804.872 132.962 804.784 133.315 804.784C134.491 804.784 135.467 805.219 136.243 806.089C136.702 806.595 137.002 807.183 137.143 807.853C137.202 808.112 137.231 808.382 137.231 808.664C137.231 809.641 136.861 810.511 136.12 811.275C135.355 812.051 134.415 812.439 133.297 812.439C132.074 812.439 131.081 811.957 130.316 810.993C129.94 810.523 129.693 809.987 129.575 809.388C129.516 809.141 129.487 808.894 129.487 808.647C129.487 807.647 129.875 806.483 130.651 805.154C130.804 804.895 130.898 804.737 130.934 804.678L133.985 799.121L135.079 799.774L132.133 805.048Z" fill="black" stroke="black" stroke-width="0.256586"/>
<path d="M154.816 801.362L153.069 802.861L152.24 801.873L154.833 799.633H156.174V812.175H154.816V801.362Z" fill="black" stroke="black" stroke-width="0.256586"/>
<path d="M160.8 805.912C160.8 803.842 161.247 802.172 162.14 800.902C162.893 799.844 163.828 799.314 164.945 799.314C166.298 799.314 167.344 800.073 168.085 801.59C168.356 802.143 168.567 802.772 168.72 803.478C168.885 804.242 168.967 805.053 168.967 805.912C168.967 808.017 168.515 809.693 167.609 810.939C166.88 811.939 165.968 812.439 164.875 812.439C163.522 812.439 162.47 811.698 161.717 810.216C161.423 809.652 161.194 808.999 161.029 808.258C160.876 807.517 160.8 806.735 160.8 805.912ZM162.158 805.912C162.158 806.676 162.235 807.405 162.387 808.099C162.74 809.769 163.364 810.775 164.257 811.116C164.457 811.186 164.663 811.222 164.875 811.222C165.874 811.222 166.627 810.493 167.133 809.034C167.45 808.105 167.609 807.064 167.609 805.912C167.609 805.089 167.533 804.307 167.38 803.566C167.003 801.837 166.345 800.843 165.404 800.585C165.251 800.549 165.098 800.532 164.945 800.532C163.981 800.532 163.234 801.237 162.705 802.648C162.34 803.625 162.158 804.712 162.158 805.912Z" fill="black" stroke="black" stroke-width="0.256586"/>
<path d="M179.361 799.633L174.581 812.175H173.011L177.456 800.921H171.018V799.633H179.361Z" fill="black" stroke="black" stroke-width="0.256586"/>
<path d="M187.762 808.664C187.762 808.476 187.744 808.294 187.709 808.118C187.532 807.306 187.08 806.718 186.351 806.354C185.974 806.165 185.568 806.071 185.133 806.071C184.228 806.071 183.528 806.448 183.034 807.2C182.74 807.635 182.593 808.112 182.593 808.629C182.593 808.817 182.611 809 182.646 809.176C182.811 809.964 183.263 810.534 184.004 810.887C184.369 811.064 184.751 811.152 185.151 811.152C186.08 811.152 186.803 810.781 187.321 810.04C187.615 809.617 187.762 809.158 187.762 808.664ZM183.951 805.048C184.387 804.872 184.781 804.784 185.133 804.784C186.309 804.784 187.285 805.219 188.062 806.089C188.52 806.595 188.82 807.183 188.961 807.853C189.02 808.112 189.05 808.382 189.05 808.664C189.05 809.641 188.679 810.511 187.938 811.275C187.174 812.051 186.233 812.439 185.116 812.439C183.893 812.439 182.899 811.957 182.135 810.993C181.758 810.523 181.511 809.987 181.394 809.388C181.335 809.141 181.305 808.894 181.305 808.647C181.305 807.647 181.694 806.483 182.47 805.154C182.623 804.895 182.717 804.737 182.752 804.678L185.804 799.121L186.897 799.774L183.951 805.048Z" fill="black" stroke="black" stroke-width="0.256586"/>
<path d="M192.581 802.614L191.382 802.138C191.641 801.209 192.229 800.462 193.146 799.898C193.805 799.498 194.498 799.298 195.228 799.298C196.18 799.298 197.021 799.645 197.75 800.339C198.338 800.903 198.72 801.615 198.897 802.473C198.979 802.873 199.02 803.29 199.02 803.726C199.02 804.737 198.544 805.795 197.591 806.901L195.951 808.7L195.915 808.735L193.834 810.958H199.249V812.175H191.082L195.474 807.571C196.227 806.76 196.668 806.266 196.797 806.089C197.397 805.29 197.697 804.502 197.697 803.726C197.697 803.337 197.662 802.979 197.591 802.649C197.356 801.544 196.786 800.862 195.88 800.603C195.669 800.544 195.451 800.515 195.228 800.515C194.345 800.515 193.628 800.885 193.075 801.626C192.864 801.92 192.699 802.25 192.581 802.614Z" fill="black" stroke="black" stroke-width="0.256586"/>
<path d="M216.958 805.224C216.123 805.224 215.393 805.483 214.77 806C214.747 806.024 214.729 806.041 214.717 806.053L213.465 805.4L214.276 799.632H220.062V800.849H215.405L214.841 804.536C215.358 804.218 216.064 804.06 216.958 804.06C218.239 804.06 219.245 804.548 219.974 805.524C220.315 805.994 220.55 806.535 220.68 807.147C220.75 807.488 220.786 807.846 220.786 808.223C220.786 809.516 220.368 810.575 219.533 811.398C218.816 812.092 217.94 812.439 216.905 812.439C215.54 812.439 214.459 811.909 213.659 810.851C213.33 810.404 213.083 809.898 212.918 809.334L214.259 809.087C214.741 810.51 215.623 811.221 216.905 811.221C217.869 811.221 218.581 810.792 219.039 809.934C219.31 809.44 219.445 808.864 219.445 808.205C219.445 807.958 219.421 807.717 219.374 807.482C219.186 806.588 218.733 805.935 218.016 805.524C217.675 805.324 217.322 805.224 216.958 805.224Z" fill="black" stroke="black" stroke-width="0.256586"/>
<path d="M229.451 808.664C229.451 808.476 229.433 808.294 229.398 808.118C229.222 807.306 228.769 806.718 228.04 806.354C227.663 806.165 227.258 806.071 226.822 806.071C225.917 806.071 225.217 806.448 224.723 807.2C224.429 807.635 224.282 808.112 224.282 808.629C224.282 808.817 224.3 809 224.335 809.176C224.5 809.964 224.953 810.534 225.693 810.887C226.058 811.064 226.44 811.152 226.84 811.152C227.769 811.152 228.492 810.781 229.01 810.04C229.304 809.617 229.451 809.158 229.451 808.664ZM225.64 805.048C226.076 804.872 226.47 804.784 226.822 804.784C227.998 804.784 228.975 805.219 229.751 806.089C230.209 806.595 230.509 807.183 230.65 807.853C230.709 808.112 230.738 808.382 230.738 808.664C230.738 809.641 230.368 810.511 229.627 811.275C228.863 812.051 227.922 812.439 226.805 812.439C225.582 812.439 224.588 811.957 223.823 810.993C223.447 810.523 223.2 809.987 223.083 809.388C223.024 809.141 222.994 808.894 222.994 808.647C222.994 807.647 223.382 806.483 224.159 805.154C224.312 804.895 224.406 804.737 224.441 804.678L227.493 799.121L228.586 799.774L225.64 805.048Z" fill="black" stroke="black" stroke-width="0.256586"/>
<path d="M234.535 803.109C234.535 803.297 234.553 803.479 234.588 803.656C234.765 804.467 235.218 805.055 235.947 805.42C236.323 805.608 236.729 805.702 237.164 805.702C238.069 805.702 238.769 805.326 239.263 804.573C239.557 804.138 239.704 803.662 239.704 803.144C239.704 802.956 239.686 802.774 239.651 802.597C239.487 801.81 239.034 801.239 238.293 800.886C237.928 800.71 237.546 800.622 237.146 800.622C236.217 800.622 235.494 800.992 234.977 801.733C234.682 802.156 234.535 802.615 234.535 803.109ZM238.346 806.725C237.911 806.902 237.517 806.99 237.164 806.99C235.988 806.99 235.012 806.555 234.235 805.684C233.777 805.179 233.477 804.591 233.336 803.92C233.277 803.662 233.248 803.391 233.248 803.109C233.248 802.133 233.618 801.263 234.359 800.498C235.123 799.722 236.064 799.334 237.181 799.334C238.404 799.334 239.398 799.816 240.163 800.78C240.539 801.251 240.786 801.786 240.903 802.386C240.962 802.633 240.992 802.88 240.992 803.127C240.992 804.126 240.604 805.291 239.827 806.619C239.675 806.878 239.58 807.037 239.545 807.096L236.493 812.652L235.4 812L238.346 806.725Z" fill="black" stroke="black" stroke-width="0.256586"/>
<path d="M243.289 810.006L244.629 809.6C244.947 810.282 245.464 810.764 246.182 811.046C246.464 811.164 246.746 811.223 247.028 811.223C248.087 811.223 248.851 810.858 249.322 810.129C249.58 809.729 249.71 809.253 249.71 808.7C249.71 808.488 249.686 808.283 249.639 808.083C249.463 807.201 248.916 806.625 247.999 806.354C247.705 806.26 247.393 806.213 247.064 806.213H246.393V805.066H247.064C248.016 805.066 248.692 804.725 249.092 804.043C249.304 803.702 249.41 803.296 249.41 802.826C249.41 802.603 249.386 802.391 249.339 802.191C249.151 801.285 248.604 800.739 247.699 800.55C247.499 800.503 247.281 800.48 247.046 800.48H246.993C246.193 800.48 245.564 800.768 245.105 801.344C244.976 801.497 244.876 801.662 244.806 801.838L243.624 801.291C244.047 800.468 244.735 799.88 245.688 799.527C246.134 799.363 246.587 799.28 247.046 799.28C248.34 799.28 249.339 799.727 250.045 800.621C250.362 801.033 250.574 801.497 250.68 802.015C250.739 802.273 250.768 802.544 250.768 802.826C250.768 804.049 250.209 805.002 249.092 805.684C249.692 805.86 250.186 806.266 250.574 806.901C250.774 807.218 250.915 807.559 250.997 807.924C251.044 808.171 251.068 808.43 251.068 808.7C251.068 810.076 250.527 811.105 249.445 811.787C248.763 812.222 247.957 812.44 247.028 812.44C246.088 812.44 245.211 812.111 244.4 811.452C243.894 811.04 243.524 810.558 243.289 810.006Z" fill="black" stroke="black" stroke-width="0.256586"/>
<path d="M254.529 802.614L253.33 802.138C253.588 801.209 254.176 800.462 255.094 799.898C255.752 799.498 256.446 799.298 257.175 799.298C258.128 799.298 258.969 799.645 259.698 800.339C260.286 800.903 260.668 801.615 260.845 802.473C260.927 802.873 260.968 803.29 260.968 803.726C260.968 804.737 260.492 805.795 259.539 806.901L257.899 808.7L257.863 808.735L255.782 810.958H261.197V812.175H253.03L257.422 807.571C258.175 806.76 258.616 806.266 258.745 806.089C259.345 805.29 259.645 804.502 259.645 803.726C259.645 803.337 259.61 802.979 259.539 802.649C259.304 801.544 258.733 800.862 257.828 800.603C257.616 800.544 257.399 800.515 257.175 800.515C256.293 800.515 255.576 800.885 255.023 801.626C254.811 801.92 254.647 802.25 254.529 802.614Z" fill="black" stroke="black" stroke-width="0.256586"/>
<path d="M282.998 799.633L278.217 812.175H276.647L281.093 800.921H274.654V799.633H282.998Z" fill="black" stroke="black" stroke-width="0.256586"/>
</g>
<defs>
<clipPath id="clip0_97_125">
<rect width="1351.26" height="880" fill="white" transform="translate(0.869141)"/>
</clipPath>
<clipPath id="clip1_97_125">
<rect width="273.263" height="273.263" fill="white" transform="translate(90.0269 92.6309)"/>
</clipPath>
<clipPath id="clip2_97_125">
<rect width="273.263" height="273.263" fill="white" transform="translate(1032.55 488.632)"/>
</clipPath>
<clipPath id="clip3_97_125">
<rect width="273.263" height="273.263" fill="white" transform="translate(1032.55 488.632)"/>
</clipPath>
</defs>
</svg>
