<svg width="1352" height="880" viewBox="0 0 1352 880" fill="none" xmlns="http://www.w3.org/2000/svg">
<g clip-path="url(#clip0_97_248)">
<rect width="1351.26" height="880" transform="translate(0.341553)" fill="#FFE4E0"/>
<rect x="0.341553" width="1351.26" height="481.684" fill="#DD6442"/>
<rect opacity="0.8" x="939.973" y="129.104" width="391.368" height="474.737" fill="#F5D5CC" stroke="#9E381B" stroke-width="1.15789"/>
<rect x="972" y="164" width="174" height="46" rx="8" fill="#C67A64"/>
<rect x="972" y="227" width="65" height="20" rx="4" fill="#C67A64"/>
<rect x="972" y="269" width="328" height="16" rx="4" fill="#C67A64"/>
<rect x="972" y="300" width="328" height="16" rx="4" fill="#C67A64"/>
<rect x="972" y="331" width="328" height="16" rx="4" fill="#C67A64"/>
<rect x="972" y="362" width="328" height="16" rx="4" fill="#C67A64"/>
<rect x="972" y="401" width="328" height="16" rx="4" fill="#C67A64"/>
<rect x="972" y="432" width="328" height="16" rx="4" fill="#C67A64"/>
<g clip-path="url(#clip1_97_248)">
<g clip-path="url(#clip2_97_248)">
<g clip-path="url(#clip3_97_248)">
<path d="M226.132 365.893C189.637 365.893 155.337 351.682 129.518 325.875C103.699 300.067 89.4994 265.759 89.4994 229.263C89.4994 192.767 103.713 158.467 129.518 132.648C155.322 106.829 189.637 92.6328 226.132 92.6328C262.628 92.6328 296.928 106.844 322.744 132.648C348.56 158.453 362.765 192.767 362.765 229.263C362.765 265.759 348.552 300.059 322.744 325.875C296.937 351.691 262.628 365.893 226.132 365.893ZM226.132 97.5885C190.961 97.5885 157.896 111.286 133.026 136.156C108.156 161.027 94.458 194.091 94.458 229.263C94.458 264.434 108.156 297.499 133.026 322.369C157.896 347.24 190.961 360.935 226.132 360.935C261.304 360.935 294.369 347.24 319.239 322.369C344.109 297.499 357.804 264.434 357.804 229.263C357.804 194.091 344.109 161.027 319.239 136.156C294.369 111.286 261.304 97.5885 226.132 97.5885Z" fill="#9E381B"/>
<path d="M129.285 223.94H118.637V234.588H129.285V223.94Z" fill="#9E381B"/>
<path d="M333.644 223.94H322.996V234.588H333.644V223.94Z" fill="#9E381B"/>
<path d="M244.376 283.221H210.147C209.601 283.222 209.07 283.04 208.637 282.706C208.205 282.371 207.896 281.902 207.76 281.373L189.416 210.437C189.322 210.072 189.313 209.69 189.389 209.321C189.465 208.952 189.624 208.605 189.855 208.308C190.086 208.01 190.382 207.769 190.72 207.602C191.058 207.436 191.43 207.35 191.806 207.35H261.742C262.116 207.35 262.486 207.435 262.822 207.599C263.158 207.762 263.453 208 263.684 208.294C263.915 208.589 264.076 208.932 264.155 209.297C264.235 209.663 264.23 210.042 264.141 210.405L246.769 281.341C246.638 281.877 246.331 282.354 245.897 282.695C245.463 283.036 244.928 283.221 244.376 283.221ZM212.059 278.289H242.441L258.595 212.285H194.982L212.059 278.289Z" fill="#9E381B"/>
<path d="M188.189 230.194C188.082 230.194 187.975 230.182 187.871 230.157C182.754 228.908 178.195 225.998 174.907 221.882C171.547 217.694 169.726 212.479 169.748 207.11C169.753 201.131 172.016 195.375 176.085 190.994C180.154 186.613 185.727 183.932 191.69 183.486C197.652 183.04 203.562 184.863 208.237 188.59C212.912 192.317 216.006 197.673 216.9 203.584C216.926 203.759 216.917 203.937 216.875 204.108C216.832 204.279 216.756 204.441 216.65 204.583C216.545 204.724 216.413 204.844 216.262 204.935C216.11 205.026 215.943 205.086 215.768 205.112C215.593 205.138 215.415 205.129 215.244 205.086C215.073 205.043 214.912 204.967 214.77 204.862C214.628 204.757 214.508 204.625 214.417 204.474C214.326 204.322 214.266 204.154 214.24 203.98C213.454 198.733 210.713 193.978 206.566 190.668C202.42 187.359 197.176 185.74 191.885 186.136C186.595 186.532 181.65 188.914 178.043 192.804C174.435 196.694 172.433 201.804 172.436 207.11C172.42 211.871 174.039 216.494 177.022 220.205C179.934 223.853 183.971 226.433 188.504 227.543C188.823 227.622 189.101 227.815 189.287 228.085C189.473 228.355 189.555 228.683 189.516 229.009C189.477 229.335 189.321 229.635 189.077 229.854C188.833 230.072 188.517 230.194 188.189 230.197V230.194Z" fill="#9E381B"/>
<path d="M211.515 280.431C211.389 280.431 211.263 280.42 211.139 280.397C210.878 280.349 210.629 280.25 210.407 280.105C210.185 279.961 209.993 279.774 209.844 279.554C209.694 279.335 209.589 279.089 209.536 278.829C209.482 278.569 209.481 278.301 209.531 278.041L224.785 197.007C224.842 196.701 224.969 196.412 225.156 196.163C225.344 195.914 225.587 195.712 225.866 195.574L262.184 177.471C262.421 177.353 262.679 177.282 262.943 177.264C263.207 177.245 263.472 177.279 263.723 177.363C263.974 177.447 264.206 177.579 264.406 177.753C264.606 177.927 264.77 178.138 264.888 178.375C265.006 178.612 265.077 178.87 265.095 179.134C265.114 179.398 265.08 179.663 264.996 179.915C264.912 180.166 264.779 180.398 264.606 180.598C264.432 180.797 264.221 180.961 263.984 181.079L228.563 198.738L213.504 278.786C213.419 279.251 213.173 279.67 212.809 279.971C212.445 280.272 211.987 280.435 211.515 280.431Z" fill="#9E381B"/>
<path d="M256.047 234.422H197.811C197.629 234.431 197.448 234.402 197.277 234.338C197.106 234.274 196.95 234.177 196.819 234.051C196.687 233.925 196.582 233.774 196.511 233.606C196.439 233.439 196.402 233.259 196.402 233.077C196.402 232.894 196.439 232.714 196.511 232.547C196.582 232.379 196.687 232.228 196.819 232.102C196.95 231.977 197.106 231.879 197.277 231.815C197.448 231.751 197.629 231.723 197.811 231.731H256.047C256.393 231.747 256.72 231.896 256.959 232.146C257.199 232.397 257.332 232.73 257.332 233.077C257.332 233.423 257.199 233.756 256.959 234.007C256.72 234.258 256.393 234.406 256.047 234.422Z" fill="#9E381B"/>
<path d="M124.897 281.021C124.255 281.021 123.264 281.058 123.046 281.05C122.71 281.024 122.263 280.838 121.948 280.156L119.761 275.409L139.885 266.114C140.054 266.053 140.239 266.058 140.405 266.128C140.57 266.198 140.703 266.328 140.776 266.492L143.333 272.024H141.467C141.146 272.024 140.67 271.855 140.355 271.164L139.561 269.444C139.533 269.376 139.492 269.314 139.439 269.263C139.386 269.212 139.323 269.172 139.254 269.147C139.185 269.121 139.111 269.11 139.038 269.114C138.964 269.119 138.893 269.138 138.827 269.172L132.67 272.015L134.147 275.211C133.505 275.211 132.484 275.263 132.266 275.257C131.931 275.231 131.498 275.074 131.183 274.397L130.773 273.509C130.707 273.379 130.595 273.278 130.458 273.228C130.321 273.178 130.17 273.182 130.036 273.239L122.848 276.561L124.897 281.021Z" fill="#9E381B"/>
<path d="M132.516 297.694L131.908 296.808C131.189 295.756 131.908 295.026 132.235 294.687L140.128 286.249L129.607 293.443L128.282 291.506L147.116 278.628L147.724 279.514C148.461 280.591 148.076 281.13 147.612 281.606L139.18 290.293L150.026 282.879L151.35 284.816L132.516 297.694Z" fill="#9E381B"/>
<path d="M159.733 294.514C159.827 294.596 159.901 294.697 159.953 294.811C160.004 294.924 160.03 295.047 160.03 295.171C160.03 295.296 160.004 295.419 159.953 295.532C159.901 295.646 159.827 295.747 159.733 295.829L145.763 309.045C145.219 309.562 144.494 309.844 143.743 309.832C142.993 309.82 142.278 309.514 141.751 308.979L141.728 309.002L140.719 307.936C140.463 307.66 140.264 307.336 140.133 306.982C140.003 306.629 139.943 306.253 139.957 305.877C139.972 305.501 140.061 305.131 140.218 304.789C140.376 304.447 140.6 304.139 140.876 303.883L141.209 303.571C141.753 303.055 142.238 303.046 142.556 303.193C142.739 303.244 143.628 303.614 144.221 303.86L142.731 305.271C142.613 305.382 142.518 305.516 142.451 305.665C142.385 305.813 142.348 305.973 142.344 306.136C142.339 306.299 142.367 306.461 142.425 306.613C142.483 306.765 142.57 306.904 142.682 307.022C142.794 307.14 142.928 307.235 143.076 307.301C143.225 307.368 143.385 307.404 143.548 307.409C143.71 307.413 143.872 307.386 144.024 307.328C144.176 307.27 144.315 307.182 144.433 307.071L158.776 293.496L159.733 294.514Z" fill="#9E381B"/>
<path d="M170.341 303.498C170.918 303.98 171.289 304.664 171.377 305.41C171.465 306.157 171.264 306.909 170.814 307.511L160.14 321.389C159.67 321.973 158.994 322.355 158.251 322.456C157.508 322.558 156.754 322.371 156.145 321.934L154.712 320.839C154.108 320.369 153.71 319.682 153.603 318.924C153.496 318.166 153.688 317.397 154.138 316.778L164.827 302.925C165.062 302.622 165.354 302.369 165.688 302.179C166.021 301.99 166.388 301.868 166.769 301.82C167.149 301.773 167.535 301.801 167.905 301.903C168.274 302.005 168.62 302.179 168.922 302.415L170.341 303.498ZM156.784 319.836C156.915 319.936 157.065 320.009 157.225 320.051C157.385 320.092 157.552 320.102 157.715 320.078C157.879 320.055 158.036 319.999 158.178 319.914C158.32 319.829 158.443 319.717 158.541 319.584L168.676 306.399C168.78 306.27 168.857 306.122 168.902 305.963C168.948 305.804 168.962 305.637 168.943 305.473C168.923 305.309 168.872 305.15 168.79 305.006C168.709 304.861 168.6 304.735 168.47 304.633L168.183 304.416C167.913 304.225 167.581 304.144 167.254 304.191C166.927 304.238 166.631 304.409 166.426 304.668L156.291 317.852C156.093 318.117 156.003 318.447 156.042 318.775C156.08 319.103 156.243 319.404 156.497 319.615L156.784 319.836Z" fill="#9E381B"/>
<path d="M176.498 323.419L171.975 331.756L170.513 330.965C170.357 330.876 170.24 330.73 170.187 330.558C170.133 330.385 170.148 330.199 170.227 330.037L174.423 322.298L178.318 309.242L179.834 310.068C180.006 310.172 180.132 310.338 180.185 310.532C180.238 310.726 180.215 310.933 180.121 311.111L177.321 319.423L182.766 312.544C182.865 312.369 183.026 312.237 183.217 312.176C183.409 312.115 183.617 312.129 183.798 312.214L185.317 313.037L176.498 323.419Z" fill="#9E381B"/>
<path d="M211.363 341.986C211.007 342.519 210.468 343.354 210.339 343.531C210.127 343.792 209.72 344.053 208.981 343.927L203.842 343.053L207.568 321.206C207.613 321.032 207.722 320.881 207.874 320.785C208.025 320.688 208.208 320.652 208.385 320.685L214.404 321.711L213.346 323.25C213.168 323.516 212.756 323.823 212.016 323.683L210.153 323.364C210.081 323.349 210.007 323.348 209.934 323.363C209.862 323.378 209.794 323.407 209.734 323.45C209.673 323.493 209.623 323.547 209.585 323.61C209.547 323.674 209.523 323.744 209.514 323.817L208.367 330.501L211.836 331.095C211.48 331.628 210.936 332.493 210.807 332.671C210.594 332.932 210.219 333.199 209.48 333.072L208.516 332.906C208.372 332.886 208.226 332.922 208.107 333.006C207.989 333.09 207.907 333.217 207.877 333.359L206.542 341.167L211.363 341.986Z" fill="#9E381B"/>
<path d="M226.608 345.173H225.599H225.436C224.261 345.153 224.089 343.74 224.06 343.554L221.145 322.267L222.937 322.295C223.1 322.295 223.49 322.433 223.607 323.187L225.559 337.518L228.119 322.367L230.466 322.404L226.608 345.173Z" fill="#9E381B"/>
<path d="M248.457 340.758C248.291 341.377 248.048 342.34 247.979 342.549C247.864 342.865 247.56 343.24 246.832 343.358L241.673 344.169L238.234 322.271C238.221 322.092 238.277 321.914 238.39 321.774C238.502 321.634 238.663 321.541 238.841 321.514L244.86 320.568L244.353 322.365C244.27 322.675 243.972 323.085 243.229 323.2L241.363 323.486C241.29 323.494 241.219 323.518 241.156 323.555C241.092 323.592 241.036 323.641 240.993 323.701C240.949 323.761 240.919 323.829 240.903 323.901C240.888 323.973 240.887 324.047 240.902 324.12L241.954 330.818L245.431 330.271C245.264 330.89 245.027 331.884 244.961 332.093C244.843 332.409 244.574 332.781 243.831 332.899L242.865 333.051C242.722 333.078 242.595 333.159 242.51 333.276C242.424 333.394 242.386 333.54 242.404 333.684L243.636 341.509L248.457 340.758Z" fill="#9E381B"/>
<path d="M264.147 338.783L261.493 330.872C261.138 329.82 260.467 329.668 259.882 329.866L258.707 330.259L261.828 339.56L259.604 340.308L252.344 318.688L256.391 317.329C256.748 317.209 257.125 317.161 257.501 317.186C257.877 317.212 258.244 317.312 258.581 317.479C258.918 317.647 259.219 317.88 259.467 318.164C259.714 318.448 259.903 318.778 260.023 319.135L262.264 325.81C262.264 325.81 262.929 327.479 262.103 327.995C263.115 328.138 263.591 329.766 263.591 329.766L266.371 338.046L264.147 338.783ZM259.177 327.762C259.75 327.567 260.238 327.132 259.905 326.143L257.947 320.333C257.678 319.531 257.019 319.407 256.431 319.605L255.256 320.001L258.002 328.146L259.177 327.762Z" fill="#9E381B"/>
<path d="M276.578 322.989L280.989 331.387L279.519 332.161C279.357 332.239 279.171 332.252 279 332.199C278.828 332.146 278.683 332.03 278.593 331.874L274.5 324.084L265.818 313.582L267.349 312.78C267.531 312.695 267.739 312.684 267.93 312.748C268.121 312.812 268.28 312.946 268.375 313.124L273.712 320.071L271.023 311.725C270.93 311.547 270.908 311.341 270.962 311.148C271.015 310.955 271.139 310.789 271.31 310.684L272.84 309.882L276.578 322.989Z" fill="#9E381B"/>
<path d="M298.416 296.648L296.507 294.825C296.389 294.712 296.251 294.623 296.099 294.564C295.947 294.504 295.785 294.475 295.622 294.479C295.46 294.482 295.299 294.517 295.15 294.582C295 294.648 294.865 294.742 294.752 294.859C294.64 294.977 294.551 295.115 294.492 295.267C294.432 295.419 294.403 295.58 294.406 295.743C294.41 295.906 294.445 296.067 294.51 296.216C294.575 296.365 294.669 296.5 294.787 296.613L296.363 298.124C297.329 299.047 299.278 299.511 299.278 299.511L305.031 301.133C307.324 301.752 308.367 302.882 308.367 302.882L310.465 304.888C310.741 305.154 310.961 305.472 311.114 305.824C311.266 306.175 311.348 306.553 311.355 306.936C311.361 307.319 311.292 307.7 311.151 308.056C311.01 308.412 310.8 308.737 310.534 309.013L309.519 310.073C308.976 310.595 308.254 310.891 307.501 310.9C306.747 310.908 306.018 310.629 305.464 310.119L303.767 308.497C303.569 308.339 303.421 308.128 303.338 307.889C303.255 307.65 303.242 307.393 303.3 307.147C303.386 306.96 303.732 305.986 303.95 305.381L306.816 308.13C306.936 308.241 307.075 308.327 307.228 308.384C307.38 308.441 307.543 308.467 307.705 308.461C307.868 308.455 308.028 308.417 308.176 308.35C308.324 308.282 308.457 308.186 308.568 308.067C308.679 307.948 308.765 307.808 308.822 307.655C308.879 307.503 308.905 307.341 308.899 307.178C308.893 307.015 308.855 306.856 308.788 306.708C308.72 306.56 308.624 306.426 308.505 306.315L306.622 304.513C305.653 303.59 303.684 303.102 303.684 303.102L297.951 301.503C295.658 300.887 294.615 299.755 294.615 299.755L292.918 298.135C291.772 297.029 291.628 295.097 292.755 293.919L293.767 292.859C294.873 291.749 296.788 291.821 297.92 292.904L298.556 293.512C298.753 293.67 298.902 293.881 298.985 294.119C299.067 294.358 299.081 294.616 299.023 294.862C298.98 295.068 298.648 296.02 298.416 296.648Z" fill="#9E381B"/>
<path d="M302.448 282.576C302.514 282.471 302.6 282.381 302.702 282.311C302.804 282.241 302.92 282.193 303.041 282.17C303.162 282.147 303.287 282.149 303.408 282.177C303.528 282.204 303.642 282.256 303.741 282.329L321.652 294.941L320.698 296.299C320.377 296.752 320.056 296.646 319.904 296.586L301.643 283.722L302.448 282.576Z" fill="#9E381B"/>
<path d="M309.987 269.733C310.328 269.042 310.926 268.512 311.653 268.255C312.38 267.998 313.179 268.035 313.879 268.358L319.158 270.992C321.142 271.98 322.091 273.654 321.087 275.669L320.463 276.922L329.62 281.491L328.881 282.978C328.631 283.474 328.307 283.417 328.15 283.342L308.169 273.379L309.987 269.733ZM313.254 270.559C312.966 270.451 312.648 270.455 312.363 270.569C312.077 270.683 311.844 270.899 311.709 271.175L311.156 272.281L318.508 275.947L319.061 274.838C319.199 274.564 319.231 274.248 319.149 273.952C319.067 273.656 318.879 273.401 318.62 273.236L313.254 270.559Z" fill="#9E381B"/>
<path d="M125.316 176.747C121.701 173.952 120.021 176.238 119.006 175.387C118.447 174.917 119.034 174.217 119.034 174.217L121.353 171.454C126.343 165.508 142.745 169.973 151.283 172.727L138.027 161.602C134.411 158.806 132.731 161.092 131.717 160.241C131.157 159.771 131.744 159.072 131.744 159.072L135.414 154.7C135.795 154.245 136.176 154.147 136.56 154.47C137.575 155.321 135.615 157.372 138.995 160.448L153.616 172.718C157.231 175.513 158.911 173.227 159.926 174.079C160.485 174.548 159.898 175.248 159.898 175.248L155.466 180.53C154.967 181.124 154.172 180.934 152.708 180.122C149.3 178.216 128.814 173.006 126.495 175.769L140.906 187.863C144.521 190.659 146.201 188.373 147.215 189.224C147.775 189.694 147.188 190.393 147.188 190.393L143.518 194.766C143.137 195.22 142.757 195.318 142.372 194.996C141.357 194.144 143.317 192.093 139.937 189.018L125.316 176.747Z" fill="#9E381B"/>
<path d="M167.309 133.612C165.27 130.471 163.625 130.287 163.053 129.406C162.481 128.525 163.554 127.829 163.554 127.829L168.647 124.521C169.719 123.825 170.291 124.706 170.291 124.706C170.863 125.587 170.363 127.164 172.402 130.304L182.301 145.546C184.34 148.686 185.984 148.871 186.556 149.752C187.128 150.633 186.056 151.329 186.056 151.329L180.963 154.637C179.89 155.333 179.318 154.452 179.318 154.452C178.746 153.571 179.247 151.994 177.207 148.854L167.309 133.612Z" fill="#9E381B"/>
<path d="M216.988 118.052C216.988 114.308 215.71 113.258 215.71 112.207C215.71 111.523 216.121 111.157 216.988 111.157H223.062C224.34 111.157 224.34 112.207 224.34 112.207C224.34 113.258 223.062 114.308 223.062 118.052V125.085C227.856 123.212 230.642 118.326 231.418 113.806C231.509 113.029 230.733 112.39 230.733 111.934C230.733 111.431 231.235 111.157 232.286 111.157H235.482C237.035 111.157 237.035 111.934 237.035 111.934C237.035 112.527 236.532 112.755 236.213 113.532C234.934 118.326 231.19 123.349 225.847 125.815C232.651 127.094 235.025 137.505 235.756 139.286C236.304 140.656 237.537 140.838 237.537 142.071C237.537 142.893 236.898 143.122 236.167 143.122H230.413C229.637 143.122 229.272 142.391 228.952 140.747C228.222 136.911 226.395 127.733 223.062 127.733V136.226C223.062 139.971 224.34 141.021 224.34 142.071C224.34 142.756 223.929 143.122 223.062 143.122H216.988C215.71 143.122 215.71 142.071 215.71 142.071C215.71 141.021 216.988 139.971 216.988 136.226V118.052Z" fill="#9E381B"/>
<path d="M270.289 153.343C262.236 148.114 261.428 139.857 266.725 131.7C272.023 123.543 279.894 120.923 287.947 126.152C295.999 131.382 296.808 139.638 291.511 147.796C286.213 155.953 278.342 158.572 270.289 153.343ZM274.412 136.691C269.115 144.849 269.213 150.191 271.41 151.617C273.606 153.044 278.527 150.961 283.824 142.804C289.121 134.647 289.022 129.304 286.826 127.878C284.63 126.452 279.709 128.534 274.412 136.691Z" fill="#9E381B"/>
<path d="M317.946 166.359C320.815 163.952 320.797 162.297 321.602 161.622C322.406 160.947 323.228 161.927 323.228 161.927L327.132 166.579C327.954 167.559 327.149 168.234 327.149 168.234C326.345 168.909 324.719 168.604 321.85 171.011L307.928 182.693C305.06 185.1 305.077 186.755 304.272 187.43C303.468 188.105 302.646 187.125 302.646 187.125L298.742 182.473C297.92 181.494 298.725 180.819 298.725 180.819C299.529 180.143 301.156 180.448 304.024 178.041L317.946 166.359Z" fill="#9E381B"/>
</g>
</g>
</g>
<g clip-path="url(#clip4_97_248)">
<g clip-path="url(#clip5_97_248)">
<g clip-path="url(#clip6_97_248)">
<path d="M1168.66 761.891C1132.16 761.891 1097.86 747.68 1072.04 721.873C1046.22 696.065 1032.03 661.757 1032.03 625.261C1032.03 588.765 1046.24 554.465 1072.04 528.646C1097.85 502.827 1132.16 488.631 1168.66 488.631C1205.15 488.631 1239.45 502.842 1265.27 528.646C1291.09 554.451 1305.29 588.765 1305.29 625.261C1305.29 661.757 1291.08 696.057 1265.27 721.873C1239.46 747.689 1205.15 761.891 1168.66 761.891ZM1168.66 493.587C1133.49 493.587 1100.42 507.284 1075.55 532.155C1050.68 557.025 1036.98 590.09 1036.98 625.261C1036.98 660.432 1050.68 693.497 1075.55 718.368C1100.42 743.238 1133.49 756.933 1168.66 756.933C1203.83 756.933 1236.89 743.238 1261.76 718.368C1286.63 693.497 1300.33 660.432 1300.33 625.261C1300.33 590.09 1286.63 557.025 1261.76 532.155C1236.89 507.284 1203.83 493.587 1168.66 493.587Z" fill="#9E381B"/>
<path d="M1071.81 619.938H1061.16V630.587H1071.81V619.938Z" fill="#9E381B"/>
<path d="M1276.17 619.938H1265.52V630.587H1276.17V619.938Z" fill="#9E381B"/>
<path d="M1186.9 679.22H1152.67C1152.13 679.22 1151.6 679.038 1151.16 678.704C1150.73 678.369 1150.42 677.9 1150.29 677.371L1131.94 606.435C1131.85 606.07 1131.84 605.688 1131.91 605.319C1131.99 604.95 1132.15 604.604 1132.38 604.306C1132.61 604.008 1132.91 603.767 1133.25 603.601C1133.58 603.434 1133.96 603.348 1134.33 603.348H1204.27C1204.64 603.348 1205.01 603.433 1205.35 603.597C1205.68 603.76 1205.98 603.998 1206.21 604.293C1206.44 604.587 1206.6 604.93 1206.68 605.295C1206.76 605.661 1206.76 606.04 1206.67 606.403L1189.29 677.339C1189.16 677.875 1188.86 678.352 1188.42 678.693C1187.99 679.034 1187.45 679.219 1186.9 679.22ZM1154.58 674.287H1184.97L1201.12 608.283H1137.51L1154.58 674.287Z" fill="#9E381B"/>
<path d="M1130.71 626.192C1130.61 626.192 1130.5 626.18 1130.4 626.155C1125.28 624.906 1120.72 621.996 1117.43 617.88C1114.07 613.692 1112.25 608.477 1112.27 603.108C1112.28 597.129 1114.54 591.373 1118.61 586.992C1122.68 582.612 1128.25 579.93 1134.22 579.484C1140.18 579.038 1146.09 580.861 1150.76 584.588C1155.44 588.315 1158.53 593.671 1159.43 599.582C1159.45 599.757 1159.44 599.935 1159.4 600.106C1159.36 600.278 1159.28 600.439 1159.18 600.581C1159.07 600.722 1158.94 600.842 1158.79 600.933C1158.64 601.024 1158.47 601.084 1158.29 601.11C1158.12 601.136 1157.94 601.127 1157.77 601.084C1157.6 601.042 1157.44 600.965 1157.3 600.86C1157.15 600.755 1157.03 600.623 1156.94 600.472C1156.85 600.32 1156.79 600.152 1156.77 599.978C1155.98 594.731 1153.24 589.976 1149.09 586.666C1144.95 583.357 1139.7 581.738 1134.41 582.134C1129.12 582.53 1124.18 584.912 1120.57 588.802C1116.96 592.692 1114.96 597.802 1114.96 603.108C1114.95 607.869 1116.56 612.492 1119.55 616.203C1122.46 619.851 1126.5 622.431 1131.03 623.541C1131.35 623.62 1131.63 623.813 1131.81 624.083C1132 624.353 1132.08 624.681 1132.04 625.007C1132 625.333 1131.85 625.633 1131.6 625.852C1131.36 626.07 1131.04 626.192 1130.71 626.195V626.192Z" fill="#9E381B"/>
<path d="M1154.04 676.429C1153.91 676.429 1153.79 676.418 1153.66 676.395C1153.4 676.347 1153.16 676.248 1152.93 676.104C1152.71 675.959 1152.52 675.772 1152.37 675.553C1152.22 675.333 1152.12 675.087 1152.06 674.827C1152.01 674.567 1152.01 674.299 1152.06 674.039L1167.31 593.005C1167.37 592.699 1167.49 592.41 1167.68 592.161C1167.87 591.912 1168.11 591.711 1168.39 591.572L1204.71 573.469C1204.95 573.351 1205.2 573.28 1205.47 573.262C1205.73 573.243 1206 573.277 1206.25 573.361C1206.5 573.445 1206.73 573.578 1206.93 573.751C1207.13 573.925 1207.3 574.136 1207.41 574.373C1207.53 574.61 1207.6 574.868 1207.62 575.132C1207.64 575.396 1207.61 575.661 1207.52 575.913C1207.44 576.164 1207.31 576.396 1207.13 576.596C1206.96 576.796 1206.75 576.959 1206.51 577.077L1171.09 594.736L1156.03 674.784C1155.94 675.249 1155.7 675.668 1155.33 675.969C1154.97 676.27 1154.51 676.433 1154.04 676.429Z" fill="#9E381B"/>
<path d="M1198.57 630.42H1140.34C1140.16 630.429 1139.97 630.4 1139.8 630.336C1139.63 630.273 1139.48 630.175 1139.34 630.049C1139.21 629.923 1139.11 629.772 1139.04 629.605C1138.96 629.437 1138.93 629.257 1138.93 629.075C1138.93 628.893 1138.96 628.712 1139.04 628.545C1139.11 628.377 1139.21 628.226 1139.34 628.1C1139.48 627.975 1139.63 627.877 1139.8 627.813C1139.97 627.749 1140.16 627.721 1140.34 627.729H1198.57C1198.92 627.745 1199.25 627.894 1199.49 628.144C1199.72 628.395 1199.86 628.728 1199.86 629.075C1199.86 629.421 1199.72 629.754 1199.49 630.005C1199.25 630.256 1198.92 630.404 1198.57 630.42Z" fill="#9E381B"/>
<path d="M1067.42 677.019C1066.78 677.019 1065.79 677.056 1065.57 677.048C1065.24 677.022 1064.79 676.836 1064.47 676.154L1062.29 671.407L1082.41 662.112C1082.58 662.051 1082.77 662.056 1082.93 662.126C1083.1 662.196 1083.23 662.326 1083.3 662.49L1085.86 668.022H1083.99C1083.67 668.022 1083.2 667.853 1082.88 667.162L1082.09 665.442C1082.06 665.374 1082.02 665.313 1081.96 665.261C1081.91 665.21 1081.85 665.17 1081.78 665.145C1081.71 665.119 1081.64 665.108 1081.56 665.112C1081.49 665.117 1081.42 665.137 1081.35 665.17L1075.2 668.013L1076.67 671.209C1076.03 671.209 1075.01 671.261 1074.79 671.255C1074.46 671.229 1074.02 671.072 1073.71 670.395L1073.3 669.507C1073.23 669.377 1073.12 669.276 1072.98 669.226C1072.85 669.176 1072.7 669.18 1072.56 669.237L1065.37 672.559L1067.42 677.019Z" fill="#9E381B"/>
<path d="M1075.04 693.692L1074.43 692.806C1073.71 691.755 1074.43 691.024 1074.76 690.685L1082.65 682.247L1072.13 689.442L1070.81 687.504L1089.64 674.626L1090.25 675.512C1090.99 676.589 1090.6 677.128 1090.14 677.604L1081.71 686.292L1092.55 678.877L1093.88 680.814L1075.04 693.692Z" fill="#9E381B"/>
<path d="M1102.26 690.512C1102.35 690.594 1102.43 690.695 1102.48 690.809C1102.53 690.922 1102.56 691.045 1102.56 691.169C1102.56 691.294 1102.53 691.417 1102.48 691.53C1102.43 691.644 1102.35 691.745 1102.26 691.827L1088.29 705.043C1087.74 705.56 1087.02 705.842 1086.27 705.83C1085.52 705.818 1084.8 705.512 1084.28 704.977L1084.25 705L1083.24 703.934C1082.99 703.658 1082.79 703.334 1082.66 702.98C1082.53 702.627 1082.47 702.252 1082.48 701.875C1082.5 701.499 1082.59 701.129 1082.74 700.787C1082.9 700.445 1083.13 700.137 1083.4 699.881L1083.73 699.569C1084.28 699.053 1084.76 699.044 1085.08 699.191C1085.27 699.242 1086.15 699.612 1086.75 699.858L1085.26 701.269C1085.14 701.38 1085.04 701.514 1084.98 701.663C1084.91 701.811 1084.87 701.972 1084.87 702.134C1084.87 702.297 1084.89 702.459 1084.95 702.611C1085.01 702.763 1085.1 702.902 1085.21 703.02C1085.32 703.138 1085.45 703.233 1085.6 703.299C1085.75 703.366 1085.91 703.402 1086.07 703.407C1086.24 703.411 1086.4 703.384 1086.55 703.326C1086.7 703.268 1086.84 703.18 1086.96 703.069L1101.3 689.494L1102.26 690.512Z" fill="#9E381B"/>
<path d="M1112.87 699.496C1113.44 699.978 1113.81 700.662 1113.9 701.409C1113.99 702.155 1113.79 702.907 1113.34 703.509L1102.67 717.387C1102.2 717.971 1101.52 718.353 1100.78 718.454C1100.03 718.556 1099.28 718.369 1098.67 717.932L1097.24 716.837C1096.63 716.367 1096.24 715.68 1096.13 714.922C1096.02 714.164 1096.21 713.395 1096.66 712.776L1107.35 698.923C1107.59 698.62 1107.88 698.367 1108.21 698.177C1108.55 697.988 1108.91 697.866 1109.29 697.818C1109.67 697.771 1110.06 697.799 1110.43 697.901C1110.8 698.003 1111.15 698.177 1111.45 698.413L1112.87 699.496ZM1099.31 715.834C1099.44 715.934 1099.59 716.007 1099.75 716.049C1099.91 716.09 1100.08 716.1 1100.24 716.076C1100.4 716.053 1100.56 715.997 1100.7 715.912C1100.85 715.827 1100.97 715.715 1101.07 715.582L1111.2 702.397C1111.31 702.268 1111.38 702.12 1111.43 701.961C1111.47 701.802 1111.49 701.635 1111.47 701.471C1111.45 701.307 1111.4 701.148 1111.32 701.004C1111.24 700.859 1111.13 700.733 1111 700.631L1110.71 700.414C1110.44 700.223 1110.11 700.142 1109.78 700.189C1109.45 700.236 1109.16 700.407 1108.95 700.666L1098.82 713.85C1098.62 714.115 1098.53 714.445 1098.57 714.773C1098.61 715.101 1098.77 715.402 1099.02 715.613L1099.31 715.834Z" fill="#9E381B"/>
<path d="M1119.02 719.418L1114.5 727.755L1113.04 726.964C1112.88 726.875 1112.77 726.729 1112.71 726.557C1112.66 726.384 1112.67 726.198 1112.75 726.036L1116.95 718.297L1120.84 705.241L1122.36 706.067C1122.53 706.171 1122.66 706.337 1122.71 706.531C1122.76 706.725 1122.74 706.932 1122.65 707.11L1119.85 715.422L1125.29 708.543C1125.39 708.368 1125.55 708.236 1125.74 708.175C1125.93 708.114 1126.14 708.128 1126.32 708.213L1127.84 709.036L1119.02 719.418Z" fill="#9E381B"/>
<path d="M1153.89 737.984C1153.53 738.518 1152.99 739.352 1152.87 739.529C1152.65 739.79 1152.25 740.051 1151.51 739.925L1146.37 739.051L1150.09 717.204C1150.14 717.03 1150.25 716.879 1150.4 716.783C1150.55 716.686 1150.73 716.65 1150.91 716.683L1156.93 717.709L1155.87 719.248C1155.69 719.514 1155.28 719.821 1154.54 719.681L1152.68 719.363C1152.61 719.347 1152.53 719.346 1152.46 719.361C1152.39 719.376 1152.32 719.405 1152.26 719.448C1152.2 719.491 1152.15 719.545 1152.11 719.609C1152.07 719.672 1152.05 719.742 1152.04 719.815L1150.89 726.499L1154.36 727.093C1154.01 727.626 1153.46 728.491 1153.33 728.669C1153.12 728.93 1152.74 729.197 1152.01 729.07L1151.04 728.904C1150.9 728.885 1150.75 728.92 1150.63 729.004C1150.51 729.089 1150.43 729.215 1150.4 729.357L1149.07 737.165L1153.89 737.984Z" fill="#9E381B"/>
<path d="M1169.13 741.172H1168.13H1167.96C1166.79 741.151 1166.61 739.738 1166.59 739.552L1163.67 718.265L1165.46 718.293C1165.63 718.293 1166.02 718.431 1166.13 719.185L1168.08 733.516L1170.64 718.365L1172.99 718.402L1169.13 741.172Z" fill="#9E381B"/>
<path d="M1190.98 736.757C1190.82 737.376 1190.57 738.339 1190.5 738.548C1190.39 738.864 1190.09 739.239 1189.36 739.357L1184.2 740.168L1180.76 718.27C1180.75 718.091 1180.8 717.913 1180.92 717.773C1181.03 717.633 1181.19 717.54 1181.37 717.513L1187.39 716.567L1186.88 718.365C1186.8 718.674 1186.5 719.084 1185.76 719.199L1183.89 719.485C1183.82 719.493 1183.75 719.517 1183.68 719.554C1183.62 719.591 1183.56 719.64 1183.52 719.7C1183.48 719.76 1183.44 719.828 1183.43 719.9C1183.41 719.972 1183.41 720.046 1183.43 720.119L1184.48 726.817L1187.96 726.27C1187.79 726.889 1187.55 727.883 1187.49 728.092C1187.37 728.408 1187.1 728.78 1186.36 728.898L1185.39 729.05C1185.25 729.077 1185.12 729.158 1185.04 729.275C1184.95 729.393 1184.91 729.539 1184.93 729.683L1186.16 737.508L1190.98 736.757Z" fill="#9E381B"/>
<path d="M1206.67 734.783L1204.02 726.872C1203.66 725.82 1202.99 725.668 1202.41 725.866L1201.23 726.259L1204.35 735.56L1202.13 736.308L1194.87 714.688L1198.92 713.329C1199.27 713.209 1199.65 713.161 1200.03 713.186C1200.4 713.212 1200.77 713.312 1201.11 713.479C1201.44 713.647 1201.75 713.88 1201.99 714.164C1202.24 714.448 1202.43 714.778 1202.55 715.135L1204.79 721.81C1204.79 721.81 1205.45 723.479 1204.63 723.995C1205.64 724.138 1206.12 725.766 1206.12 725.766L1208.9 734.046L1206.67 734.783ZM1201.7 723.762C1202.28 723.567 1202.76 723.132 1202.43 722.143L1200.47 716.333C1200.2 715.531 1199.54 715.407 1198.96 715.605L1197.78 716.001L1200.53 724.146L1201.7 723.762Z" fill="#9E381B"/>
<path d="M1219.1 718.988L1223.51 727.386L1222.04 728.16C1221.88 728.238 1221.7 728.251 1221.53 728.198C1221.35 728.145 1221.21 728.029 1221.12 727.873L1217.03 720.083L1208.34 709.581L1209.87 708.779C1210.06 708.694 1210.27 708.683 1210.46 708.747C1210.65 708.811 1210.81 708.945 1210.9 709.123L1216.24 716.07L1213.55 707.724C1213.46 707.546 1213.43 707.34 1213.49 707.147C1213.54 706.954 1213.67 706.788 1213.84 706.683L1215.37 705.881L1219.1 718.988Z" fill="#9E381B"/>
<path d="M1240.94 692.646L1239.03 690.823C1238.92 690.71 1238.78 690.621 1238.62 690.562C1238.47 690.502 1238.31 690.474 1238.15 690.477C1237.99 690.48 1237.82 690.515 1237.68 690.58C1237.53 690.646 1237.39 690.74 1237.28 690.857C1237.17 690.975 1237.08 691.113 1237.02 691.265C1236.96 691.417 1236.93 691.578 1236.93 691.741C1236.94 691.904 1236.97 692.065 1237.04 692.214C1237.1 692.363 1237.2 692.498 1237.31 692.611L1238.89 694.122C1239.86 695.045 1241.8 695.509 1241.8 695.509L1247.56 697.131C1249.85 697.75 1250.89 698.88 1250.89 698.88L1252.99 700.886C1253.27 701.152 1253.49 701.47 1253.64 701.822C1253.79 702.173 1253.87 702.551 1253.88 702.934C1253.89 703.317 1253.82 703.698 1253.68 704.054C1253.54 704.41 1253.33 704.735 1253.06 705.011L1252.05 706.071C1251.5 706.593 1250.78 706.889 1250.03 706.898C1249.27 706.906 1248.54 706.627 1247.99 706.117L1246.29 704.495C1246.1 704.337 1245.95 704.126 1245.86 703.887C1245.78 703.648 1245.77 703.391 1245.83 703.145C1245.91 702.958 1246.26 701.984 1246.48 701.379L1249.34 704.128C1249.46 704.239 1249.6 704.325 1249.75 704.382C1249.91 704.439 1250.07 704.465 1250.23 704.459C1250.39 704.453 1250.55 704.415 1250.7 704.348C1250.85 704.28 1250.98 704.184 1251.09 704.065C1251.2 703.946 1251.29 703.806 1251.35 703.653C1251.4 703.501 1251.43 703.339 1251.42 703.176C1251.42 703.013 1251.38 702.854 1251.31 702.706C1251.25 702.558 1251.15 702.424 1251.03 702.313L1249.15 700.511C1248.18 699.588 1246.21 699.1 1246.21 699.1L1240.48 697.501C1238.18 696.885 1237.14 695.753 1237.14 695.753L1235.44 694.133C1234.3 693.027 1234.15 691.095 1235.28 689.917L1236.29 688.857C1237.4 687.747 1239.31 687.819 1240.45 688.902L1241.08 689.51C1241.28 689.668 1241.43 689.879 1241.51 690.118C1241.59 690.356 1241.61 690.614 1241.55 690.86C1241.51 691.066 1241.17 692.018 1240.94 692.646Z" fill="#9E381B"/>
<path d="M1244.97 678.574C1245.04 678.469 1245.13 678.379 1245.23 678.309C1245.33 678.239 1245.45 678.191 1245.57 678.168C1245.69 678.145 1245.81 678.147 1245.93 678.175C1246.05 678.202 1246.17 678.254 1246.27 678.327L1264.18 690.939L1263.22 692.297C1262.9 692.75 1262.58 692.644 1262.43 692.584L1244.17 679.72L1244.97 678.574Z" fill="#9E381B"/>
<path d="M1252.51 665.732C1252.85 665.041 1253.45 664.511 1254.18 664.254C1254.91 663.997 1255.7 664.034 1256.4 664.357L1261.68 666.991C1263.67 667.979 1264.62 669.653 1263.61 671.668L1262.99 672.921L1272.15 677.49L1271.41 678.977C1271.16 679.473 1270.83 679.416 1270.68 679.341L1250.7 669.378L1252.51 665.732ZM1255.78 666.558C1255.49 666.45 1255.17 666.454 1254.89 666.568C1254.6 666.682 1254.37 666.898 1254.23 667.174L1253.68 668.28L1261.03 671.946L1261.59 670.837C1261.72 670.563 1261.76 670.247 1261.67 669.951C1261.59 669.655 1261.4 669.4 1261.15 669.235L1255.78 666.558Z" fill="#9E381B"/>
<path d="M1067.84 572.747C1064.23 569.952 1062.55 572.238 1061.53 571.387C1060.97 570.917 1061.56 570.217 1061.56 570.217L1063.88 567.454C1068.87 561.508 1085.27 565.973 1093.81 568.727L1080.55 557.602C1076.94 554.806 1075.26 557.092 1074.24 556.241C1073.68 555.771 1074.27 555.072 1074.27 555.072L1077.94 550.7C1078.32 550.245 1078.7 550.147 1079.09 550.47C1080.1 551.321 1078.14 553.372 1081.52 556.448L1096.14 568.718C1099.76 571.513 1101.44 569.227 1102.45 570.079C1103.01 570.548 1102.42 571.248 1102.42 571.248L1097.99 576.53C1097.49 577.124 1096.7 576.934 1095.23 576.122C1091.83 574.216 1071.34 569.006 1069.02 571.769L1083.43 583.863C1087.05 586.659 1088.73 584.373 1089.74 585.224C1090.3 585.694 1089.71 586.393 1089.71 586.393L1086.04 590.766C1085.66 591.22 1085.28 591.318 1084.9 590.996C1083.88 590.144 1085.84 588.093 1082.46 585.018L1067.84 572.747Z" fill="#9E381B"/>
<path d="M1109.83 529.613C1107.8 526.472 1106.15 526.288 1105.58 525.407C1105.01 524.526 1106.08 523.83 1106.08 523.83L1111.17 520.522C1112.25 519.826 1112.82 520.707 1112.82 520.707C1113.39 521.588 1112.89 523.165 1114.93 526.305L1124.83 541.547C1126.87 544.687 1128.51 544.872 1129.08 545.753C1129.65 546.634 1128.58 547.33 1128.58 547.33L1123.49 550.638C1122.42 551.334 1121.84 550.453 1121.84 550.453C1121.27 549.572 1121.77 547.995 1119.73 544.855L1109.83 529.613Z" fill="#9E381B"/>
<path d="M1159.51 514.054C1159.51 510.31 1158.24 509.26 1158.24 508.209C1158.24 507.524 1158.65 507.159 1159.51 507.159H1165.59C1166.87 507.159 1166.87 508.209 1166.87 508.209C1166.87 509.26 1165.59 510.31 1165.59 514.054V521.087C1170.38 519.214 1173.17 514.328 1173.94 509.808C1174.04 509.031 1173.26 508.392 1173.26 507.935C1173.26 507.433 1173.76 507.159 1174.81 507.159H1178.01C1179.56 507.159 1179.56 507.935 1179.56 507.935C1179.56 508.529 1179.06 508.757 1178.74 509.534C1177.46 514.328 1173.72 519.351 1168.37 521.817C1175.18 523.096 1177.55 533.507 1178.28 535.288C1178.83 536.658 1180.06 536.84 1180.06 538.073C1180.06 538.895 1179.42 539.124 1178.69 539.124H1172.94C1172.16 539.124 1171.8 538.393 1171.48 536.749C1170.75 532.913 1168.92 523.735 1165.59 523.735V532.228C1165.59 535.973 1166.87 537.023 1166.87 538.073C1166.87 538.758 1166.46 539.124 1165.59 539.124H1159.51C1158.24 539.124 1158.24 538.073 1158.24 538.073C1158.24 537.023 1159.51 535.973 1159.51 532.228V514.054Z" fill="#9E381B"/>
<path d="M1212.81 549.344C1204.76 544.115 1203.95 535.858 1209.25 527.701C1214.55 519.544 1222.42 516.924 1230.47 522.153C1238.53 527.383 1239.33 535.639 1234.04 543.796C1228.74 551.954 1220.87 554.573 1212.81 549.344ZM1216.94 532.692C1211.64 540.85 1211.74 546.192 1213.94 547.618C1216.13 549.045 1221.05 546.962 1226.35 538.805C1231.65 530.648 1231.55 525.305 1229.35 523.879C1227.16 522.453 1222.23 524.535 1216.94 532.692Z" fill="#9E381B"/>
<path d="M1260.47 562.36C1263.34 559.953 1263.32 558.298 1264.13 557.623C1264.93 556.948 1265.75 557.928 1265.75 557.928L1269.66 562.58C1270.48 563.56 1269.68 564.235 1269.68 564.235C1268.87 564.91 1267.24 564.605 1264.38 567.012L1250.45 578.694C1247.59 581.101 1247.6 582.756 1246.8 583.431C1245.99 584.106 1245.17 583.126 1245.17 583.126L1241.27 578.474C1240.45 577.495 1241.25 576.819 1241.25 576.819C1242.06 576.144 1243.68 576.449 1246.55 574.042L1260.47 562.36Z" fill="#9E381B"/>
</g>
</g>
</g>
<path opacity="0.4" d="M628.799 316.74C633.675 316.009 636.925 314.444 637.576 311.864C637.749 310.426 637.446 308.972 636.712 307.723C635.977 306.475 634.853 305.503 633.512 304.957C630.173 303.658 626.562 303.218 623.009 303.677C623.456 299.187 619.332 293.905 615.268 291.649C611.205 289.394 603.83 288.886 599.666 292.3C598.467 284.295 593.307 280.354 585.241 277.55C581.737 276.354 577.98 276.1 574.347 276.813C570.713 277.526 567.331 279.181 564.539 281.613C559.866 272.857 545.909 267.615 531.586 273.345C525.94 275.649 521.34 279.952 518.665 285.433C517.333 288.561 516.59 291.908 516.471 295.306C514.545 293.959 512.279 293.184 509.931 293.069C507.584 292.954 505.253 293.504 503.205 294.656C501.644 295.627 500.372 296.999 499.522 298.628C498.672 300.257 498.273 302.085 498.369 303.92C495.411 304.111 492.506 304.797 489.776 305.952C486.667 307.252 483.437 310.178 484.575 313.246C485.428 315.562 488.313 316.476 490.852 316.841C495.904 317.532 501.043 317.207 505.968 315.887C510.577 318.914 515.999 320.466 521.512 320.335C527.025 320.205 532.367 318.398 536.828 315.155C538.844 316.676 540.977 318.035 543.207 319.218C545.56 320.271 548.061 320.956 550.622 321.25C554.95 321.717 561.045 320.905 564.417 318.06C564.835 317.589 565.401 317.274 566.022 317.167C566.515 317.201 566.991 317.362 567.404 317.634C570.71 319.379 574.439 320.165 578.169 319.903C581.899 319.641 585.482 318.341 588.512 316.151C592.406 319.631 597.502 321.459 602.72 321.247C607.938 321.035 612.869 318.799 616.467 315.013C620.328 316.756 624.608 317.356 628.799 316.74Z" fill="white"/>
<path opacity="0.4" d="M675.567 363.324C669.045 362.349 664.677 360.236 663.824 356.782C662.971 353.329 665.856 348.88 669.228 347.539C673.697 345.8 678.53 345.207 683.287 345.812C682.698 339.717 688.203 332.728 693.648 329.721C699.093 326.715 708.987 326.004 714.533 330.595C716.158 319.868 723.066 314.606 733.874 310.827C739.806 308.796 752.159 307.516 761.585 316.17C767.863 304.448 786.534 297.419 805.712 305.098C813.287 308.198 819.451 313.986 823.021 321.351C824.807 325.548 825.799 330.039 825.947 334.597C828.532 332.803 831.569 331.771 834.713 331.62C837.856 331.469 840.979 332.205 843.724 333.744C845.815 335.045 847.519 336.882 848.659 339.066C849.799 341.249 850.333 343.698 850.204 346.157C854.167 346.385 858.062 347.285 861.724 348.819C865.787 350.566 870.195 354.466 868.692 358.57C867.534 361.679 863.674 362.918 860.281 363.385C853.493 364.329 846.585 363.901 839.965 362.126C833.789 366.154 826.531 368.206 819.16 368.006C811.788 367.806 804.652 365.365 798.703 361.008C795.997 363.06 793.138 364.901 790.15 366.514C786.993 367.894 783.642 368.778 780.215 369.135C774.425 369.765 766.278 368.667 761.748 364.868C761.538 364.54 761.259 364.261 760.931 364.051C760.603 363.841 760.233 363.704 759.847 363.65C759.461 363.596 759.068 363.626 758.695 363.738C758.321 363.85 757.977 364.042 757.685 364.299C753.25 366.63 748.252 367.675 743.255 367.316C738.258 366.957 733.461 365.208 729.405 362.268C724.189 366.898 717.4 369.355 710.429 369.135C703.485 368.817 696.933 365.825 692.145 360.785C686.978 363.21 681.222 364.091 675.567 363.324Z" fill="white"/>
<path d="M823.637 462.442C823.637 462.442 787.398 397.241 780 391.374C774.369 386.921 758.54 349.747 747.066 323.749C745.681 320.603 740.384 323.185 739.121 320.275C734.832 310.417 731.352 302.229 729.56 298.013C725.915 289.418 704.795 293.385 701.345 298.013C699.571 300.394 687.053 335.473 679.083 352.073C676.52 357.413 659.7 360.826 652.794 363.566C646.112 366.214 628.212 416.673 623.031 420.335C594.385 440.593 587.302 458.706 581.604 462.381H823.637V462.442Z" fill="#37474F"/>
<path d="M759.193 462.31C759.193 462.31 693.992 438.827 685.731 435.765C682.196 434.453 660.323 398.221 658.337 396.101C655.239 392.802 644.973 389.346 639.543 383.284C638.261 381.857 630.067 371.658 629.387 370.984C627.322 368.961 619.267 369.411 615.155 369.411C610.678 369.411 576.353 422.256 572.775 426.709C569.198 431.161 549.857 447.197 543.868 448.825C537.879 450.453 521.394 462.31 521.394 462.31H759.193Z" fill="#455A64"/>
<path opacity="0.6" d="M849.159 461.952H616.341C616.341 461.952 658.86 451.772 674.471 451.772C690.082 451.772 714.524 452.13 714.524 452.13C714.524 452.13 743.219 442.314 762.006 442.314C780.794 442.314 849.159 461.952 849.159 461.952Z" fill="white"/>
<path opacity="0.8" d="M493.604 462.032H757.358C757.358 462.032 709.172 447.01 691.508 447.01C673.844 447.01 646.134 447.539 646.134 447.539C646.134 447.539 613.631 433.052 592.347 433.052C571.063 433.052 493.604 462.032 493.604 462.032Z" fill="white"/>
<rect x="0.341553" y="462.001" width="1351.26" height="159.789" fill="#95D6D8"/>
<path d="M326.365 501.37H377.123M448.371 505.267H397.613M364.428 514.054H405.419M462.035 506.248H480.589M505.968 501.37H556.726M627.974 505.267H577.216M544.031 514.054H585.034M641.638 506.248H660.192M685.571 501.37H736.329M807.577 505.267H756.831M723.634 514.054H764.637M821.253 506.248H839.795M865.174 501.37H915.932M987.192 505.267H936.434M903.237 514.054H944.24M1000.86 506.248H1019.4M958.884 545.936H916.984M858.18 539.827H900.069M927.456 526.104H893.625M846.896 538.309H831.594M810.638 545.936H768.75M709.934 539.827H751.834M779.222 526.104H745.391M698.661 538.309H683.347M662.403 545.936H620.515M561.699 539.827H603.599M630.987 526.104H597.144M550.426 538.309H535.113M514.168 545.936H472.28M413.464 539.827H455.353M482.752 526.104H448.909M402.191 538.309H386.878M1059.42 583.581H1002.8M923.308 575.332H979.936M1016.96 556.779H971.221M908.066 573.276H887.385M859.077 583.581H802.449M722.964 575.332H779.592M816.603 556.779H770.877M707.722 573.276H687.029M658.721 583.581H602.105M522.62 575.332H579.236M616.259 556.779H570.533M507.378 573.276H486.685M458.377 583.581H401.761M322.276 575.332H378.892M415.915 556.779H370.178M307.022 573.276H286.341" stroke="white" stroke-opacity="0.8" stroke-width="1.98831" stroke-miterlimit="10"/>
<path d="M522.746 451.343C523.209 482.744 528.044 513.928 537.111 543.995C545.671 571.624 563.668 600.295 578.689 622.059H553.695C553.695 622.059 532.124 568.632 527.346 544.65C516.717 491.059 520.856 450.613 520.856 450.613L522.746 451.343Z" fill="#806414"/>
<path d="M554.098 422.685L546.655 420.884L553.279 425.484C552.172 428.721 550.515 431.742 548.382 434.416L540.939 431.081L546.223 436.887C545.373 437.762 544.468 438.582 543.514 439.343L539.122 437.14L541.594 440.802C539.65 442.167 537.593 443.362 535.446 444.375L531.888 440.415L533.912 445.074C529.702 446.882 525.31 448.234 520.812 449.109L551.731 395.429C553.334 399.475 554.4 403.714 554.902 408.037H551.627L555.095 409.854C555.2 411.223 555.259 412.652 555.244 414.126L547.489 413.322L555.051 417.699C554.851 419.381 554.533 421.048 554.098 422.685Z" fill="#455A64"/>
<path d="M565.352 450.21L562.523 446.816L564.012 451.475C562.488 452.8 560.803 453.925 558.995 454.825L555.705 448.558L555.973 456.001C554.848 456.367 553.699 456.656 552.535 456.864L550.376 452.398L550.182 457.236C548.143 457.428 546.089 457.428 544.049 457.236L542.873 449.391L540.849 456.834C539.807 456.641 538.75 456.418 537.648 456.12V450.969L534.969 455.271C530.121 453.673 525.448 451.588 521.02 449.049L571.5 440.608C570.174 444.219 568.076 447.496 565.352 450.21Z" fill="#455A64"/>
<path d="M520.976 449.124C516.608 444.558 512.754 439.526 509.484 434.119L514.977 430.859L508.249 431.99C507.236 430.129 506.343 428.298 505.584 426.512L511.211 422.805L504.423 423.534C503.857 421.971 503.396 420.438 502.934 418.935L512.7 415.407L501.937 413.739C501.474 410.404 501.409 407.026 501.743 403.676L514.456 400.818L502.547 398.868C502.726 398.004 502.934 397.171 503.157 396.352L510.035 396.605L503.872 394.045C504.546 392.046 505.357 390.097 506.298 388.209L516.109 390.293L507.876 385.262C510.828 380.129 514.634 375.537 519.13 371.686L520.976 449.124Z" fill="#455A64"/>
<path d="M502.857 442.172L504.956 436.709L500.58 440.966C499.746 440.505 498.898 440.029 498.049 439.478L500.327 435.697L496.709 438.674C495.355 437.811 494.015 436.903 492.705 435.935L496.188 431.469L490.472 434.283C488.067 432.334 485.867 430.144 483.907 427.747L490.978 421.912L482.046 425.276C480.63 423.213 479.485 420.977 478.637 418.622L485.619 414.007L477.819 415.972C477.486 414.672 477.252 413.348 477.119 412.013L487.539 407.353L477 406.713C477.153 404.909 477.457 403.122 477.908 401.369L485.455 400.907L478.623 398.838C479.939 394.881 481.729 391.098 483.952 387.569C483.952 387.569 494.566 429.4 520.9 449.199C514.661 447.481 508.615 445.126 502.857 442.172Z" fill="#455A64"/>
<path d="M507.235 454.021L505.984 451.416L506.431 454.125C505.672 454.229 504.942 454.289 504.213 454.319L503.335 450.85L502.382 454.334C501.355 454.307 500.331 454.218 499.315 454.066L499.792 448.32L497.023 453.574C494.926 453.024 492.92 452.172 491.068 451.044L491.991 446.667L489.654 450.21C488.916 449.686 488.206 449.125 487.525 448.528L490.339 443.839L486.007 447.114C484.85 445.942 483.784 444.683 482.821 443.348L485.337 440.504L482.151 442.395C481.824 441.904 481.496 441.412 481.214 440.906L482.911 439.343L480.648 439.968C479.301 437.657 478.208 435.206 477.388 432.659C491.515 446.474 521.079 449.123 521.079 449.123C516.78 451.539 512.097 453.196 507.235 454.021Z" fill="#455A64"/>
<path d="M546.074 470.054L545.389 467.628L545.091 470.143C544.13 470.218 543.165 470.218 542.203 470.143L542.442 465.975L540.774 469.995C539.322 469.789 537.898 469.414 536.532 468.878L537.172 464.784L534.552 467.985C533.655 467.519 532.794 466.987 531.977 466.392L533.689 463.266L530.994 465.633C530.369 465.127 529.759 464.576 529.148 463.98L531.53 460.214L527.317 461.971C526.766 461.286 526.216 460.571 525.665 459.783L527.674 458.071L525.04 458.86C523.072 455.742 521.454 452.418 520.216 448.945C520.216 448.945 538.541 464.68 554.112 467.657C551.603 468.944 548.878 469.757 546.074 470.054Z" fill="#455A64"/>
<path d="M513.173 465.751L510.449 463.057L512.057 466.867C511.262 467.613 510.395 468.276 509.467 468.847L507.189 466.704L508.425 469.443C507.979 469.689 507.517 469.903 507.04 470.083L504.51 466.287L505.224 470.678C503.732 471.063 502.194 471.233 500.654 471.184L499.24 468.073L499.091 471.05C498.391 470.976 497.707 470.857 497.052 470.723L496.56 467.612L495.876 470.44C493.688 469.853 491.593 468.961 489.653 467.79C506.251 465.557 520.527 450.716 520.527 450.716C518.592 457.831 516.046 462.61 513.173 465.751Z" fill="#455A64"/>
<path d="M528.076 460.855C527.822 462.056 527.219 463.155 526.341 464.014C525.463 464.872 524.35 465.451 523.143 465.676C521.936 465.902 520.69 465.765 519.561 465.282C518.432 464.8 517.471 463.993 516.801 462.965C516.131 461.936 515.78 460.732 515.794 459.504C515.808 458.276 516.186 457.08 516.88 456.067C517.574 455.054 518.552 454.27 519.692 453.813C520.831 453.356 522.081 453.247 523.282 453.501C524.081 453.667 524.839 453.99 525.512 454.45C526.186 454.91 526.762 455.498 527.207 456.182C527.652 456.865 527.958 457.63 528.107 458.431C528.257 459.233 528.246 460.057 528.076 460.855Z" fill="#997717"/>
<path d="M523.969 454.349C523.715 455.551 523.111 456.65 522.232 457.508C521.353 458.366 520.239 458.944 519.032 459.169C517.824 459.394 516.577 459.255 515.448 458.771C514.32 458.286 513.36 457.478 512.691 456.448C512.021 455.418 511.673 454.213 511.689 452.985C511.705 451.757 512.085 450.561 512.781 449.549C513.477 448.537 514.457 447.754 515.598 447.299C516.739 446.845 517.99 446.739 519.191 446.995C519.988 447.163 520.744 447.487 521.416 447.948C522.088 448.408 522.662 448.997 523.106 449.68C523.55 450.363 523.855 451.127 524.003 451.929C524.151 452.73 524.14 453.552 523.969 454.349Z" fill="#B28B1B"/>
<path d="M530.282 454.541C530.029 455.743 529.425 456.842 528.547 457.7C527.669 458.558 526.556 459.137 525.35 459.363C524.143 459.589 522.896 459.452 521.767 458.969C520.638 458.486 519.678 457.68 519.007 456.651C518.337 455.622 517.987 454.418 518.001 453.19C518.015 451.963 518.392 450.767 519.086 449.754C519.78 448.741 520.758 447.956 521.898 447.499C523.038 447.043 524.287 446.934 525.489 447.187C526.287 447.354 527.045 447.676 527.718 448.136C528.392 448.596 528.968 449.185 529.413 449.868C529.859 450.552 530.165 451.316 530.314 452.118C530.463 452.92 530.452 453.743 530.282 454.541Z" fill="#CC9F1F"/>
<path d="M823.456 479.693C822.914 506.161 817.709 532.326 808.08 556.985C798.954 580.026 740.324 603.958 724.241 622.094H750.978C750.978 622.094 813.418 577.54 818.528 557.51C829.935 512.841 825.372 479.055 825.372 479.055L823.456 479.693Z" fill="#B28B1B"/>
<path d="M803.861 448.666H810.705L803.998 451.198C804.252 454.22 805.023 457.175 806.279 459.936L813.442 458.658L807.625 462.536C808.186 463.465 808.795 464.364 809.45 465.228L813.716 464.293L810.796 467.076C812.191 468.669 813.717 470.142 815.359 471.479L819.283 468.833L816.522 472.415C819.766 474.875 823.26 476.986 826.948 478.711L811.891 425.784C809.631 428.923 807.79 432.343 806.416 435.959L809.245 436.621L805.891 437.442C805.503 438.582 805.138 439.723 804.842 441.092L811.686 442.073L804.226 444.195C803.993 445.674 803.871 447.168 803.861 448.666Z" fill="#455A64"/>
<path d="M788.211 469.974L791.383 467.692L789.101 471.388C790.126 472.855 791.337 474.182 792.706 475.335L796.903 470.658L795.055 477.069C795.945 477.618 796.867 478.113 797.816 478.551L800.668 475.129L799.778 479.327C801.494 479.931 803.268 480.359 805.071 480.605L807.785 474.103L807.945 480.947C808.88 480.947 809.838 480.947 810.842 480.947L811.937 476.498L813.352 480.833C817.868 480.543 822.341 479.779 826.698 478.551L785.018 460.301C785.363 463.72 786.453 467.021 788.211 469.974Z" fill="#455A64"/>
<path d="M826.697 478.598C831.437 475.593 835.842 472.091 839.837 468.149L835.799 464.134L841.366 466.552C842.594 465.239 843.752 463.86 844.833 462.423L840.795 457.952L846.476 460.05C847.297 458.819 848.027 457.609 848.757 456.4L841.115 451.267L850.742 452.134C851.841 449.36 852.607 446.465 853.023 443.511L842.712 438.287L853.411 439.199C853.411 438.423 853.411 437.648 853.411 436.918L847.434 435.663L853.297 434.773C853.149 432.909 852.874 431.057 852.476 429.23L843.556 428.887L851.746 426.332C850.292 421.267 847.977 416.49 844.902 412.211L826.697 478.598Z" fill="#455A64"/>
<path d="M843.805 476.499L843.166 471.343L846.041 475.906C846.862 475.7 847.706 475.449 848.527 475.198L847.387 471.457L849.873 474.788C851.219 474.354 852.565 473.852 853.911 473.305L851.881 468.742L856.193 472.392C858.687 471.239 861.057 469.832 863.265 468.195L858.428 461.624L865.386 466.438C867.052 464.965 868.524 463.286 869.767 461.442L864.725 455.967L871.067 459.297C871.624 458.246 872.104 457.156 872.504 456.035L864.474 449.761L873.599 451.495C873.901 449.862 874.054 448.205 874.055 446.545L867.668 444.514L874.055 444.263C873.743 440.564 872.977 436.917 871.774 433.404C871.774 433.404 853.523 467.145 826.649 478.552C832.423 478.455 838.172 477.767 843.805 476.499Z" fill="#455A64"/>
<path d="M837.554 485.761L839.196 483.799L838.215 486.08C838.854 486.331 839.47 486.537 840.086 486.719L841.592 483.913V487.13C842.517 487.345 843.454 487.505 844.398 487.609L845.219 482.544L846.474 487.677C848.408 487.658 850.329 487.358 852.177 486.788L852.337 482.818L853.546 486.309C854.325 486.025 855.086 485.698 855.827 485.328L854.413 480.765L857.447 484.529C858.689 483.757 859.878 482.904 861.006 481.974L859.432 478.985L861.713 481.267C862.101 480.925 862.489 480.56 862.831 480.195L861.713 478.484L863.515 479.51C865.174 477.806 866.65 475.933 867.918 473.921C852.748 482.772 826.718 478.689 826.718 478.689C829.901 481.646 833.565 484.038 837.554 485.761Z" fill="#455A64"/>
<path d="M800.554 491.213L801.74 489.274L801.444 491.555C802.252 491.835 803.085 492.041 803.93 492.171L804.615 488.543L805.185 492.353C806.481 492.513 807.791 492.513 809.086 492.353L809.428 488.68L811.002 492.011C811.877 491.814 812.732 491.539 813.558 491.19L812.759 488.133L814.584 490.756C815.223 490.46 815.862 490.118 816.523 489.73L815.269 485.966L818.531 488.384C819.147 487.928 819.786 487.426 820.424 486.878L819.056 484.939L821.154 486.194C823.527 483.943 825.639 481.433 827.451 478.711C827.451 478.711 808.265 488.315 794.212 487.517C796.087 489.12 798.235 490.372 800.554 491.213Z" fill="#455A64"/>
<path d="M829.845 494.59L832.765 492.856L830.484 495.799C831.005 496.619 831.609 497.384 832.286 498.081L834.727 496.735L833.062 498.834C833.396 499.134 833.746 499.416 834.111 499.678L837.122 496.963L835.548 500.59C836.755 501.234 838.045 501.71 839.381 502.005L841.274 499.564L840.75 502.233C841.355 502.319 841.964 502.372 842.575 502.392L843.67 499.837V502.415C845.683 502.382 847.68 502.059 849.601 501.457C835.913 495.959 826.788 480.081 826.788 480.081C826.63 485.093 827.678 490.069 829.845 494.59Z" fill="#455A64"/>
<path d="M818.053 487.176C818.013 488.268 818.298 489.347 818.871 490.277C819.445 491.207 820.282 491.945 821.276 492.4C822.269 492.854 823.375 493.003 824.454 492.828C825.532 492.653 826.535 492.162 827.334 491.417C828.133 490.672 828.694 489.707 828.944 488.643C829.194 487.579 829.123 486.466 828.74 485.442C828.357 484.419 827.679 483.533 826.792 482.895C825.905 482.257 824.848 481.897 823.756 481.86C823.032 481.833 822.31 481.949 821.631 482.201C820.952 482.454 820.329 482.838 819.799 483.332C819.269 483.826 818.842 484.42 818.543 485.08C818.243 485.739 818.076 486.452 818.053 487.176Z" fill="#997717"/>
<path d="M822.979 482.451C822.939 483.542 823.224 484.62 823.797 485.55C824.369 486.479 825.205 487.217 826.197 487.672C827.19 488.127 828.295 488.277 829.372 488.104C830.45 487.93 831.452 487.441 832.252 486.699C833.052 485.956 833.614 484.993 833.867 483.931C834.12 482.869 834.052 481.756 833.672 480.733C833.293 479.709 832.618 478.821 831.734 478.181C830.85 477.541 829.796 477.177 828.705 477.136C827.98 477.108 827.257 477.224 826.576 477.476C825.896 477.729 825.272 478.113 824.74 478.606C824.208 479.1 823.779 479.694 823.477 480.354C823.175 481.013 823.005 481.726 822.979 482.451Z" fill="#B28B1B"/>
<path d="M817.501 481.244C817.461 482.335 817.746 483.413 818.319 484.343C818.891 485.272 819.727 486.01 820.719 486.465C821.712 486.92 822.817 487.07 823.894 486.896C824.972 486.723 825.974 486.234 826.774 485.492C827.574 484.749 828.136 483.786 828.389 482.724C828.642 481.662 828.574 480.549 828.195 479.526C827.815 478.502 827.14 477.614 826.256 476.974C825.372 476.334 824.318 475.97 823.227 475.929C822.502 475.901 821.779 476.017 821.098 476.269C820.418 476.522 819.794 476.906 819.262 477.399C818.731 477.893 818.301 478.487 817.999 479.146C817.697 479.806 817.528 480.519 817.501 481.244Z" fill="#CC9F1F"/>
<path d="M615.392 734.075C608.407 734.075 603.591 731.607 603.591 727.572C603.591 726.067 604.915 724.321 607.263 724.321C611.659 724.321 610.996 732.088 615.332 732.088C620.57 732.088 621.172 728.054 621.172 725.947C621.172 715.229 603.711 713.242 603.711 701.14C603.711 694.938 610.214 690.724 617.68 690.724C625.266 690.724 629.481 693.192 629.481 697.226C629.481 698.732 628.156 700.478 625.808 700.478C621.413 700.478 622.677 692.711 617.74 692.711C612.502 692.711 611.9 696.805 611.9 698.912C611.9 709.63 629.541 711.918 629.541 724.02C629.541 730.222 622.858 734.075 615.392 734.075Z" fill="#9E381B"/>
<path d="M635.438 700.418C635.438 695.48 633.752 694.095 633.752 692.711C633.752 691.326 635.438 691.326 635.438 691.326H643.446C645.132 691.326 645.132 692.711 645.132 692.711C645.132 694.095 643.446 695.48 643.446 700.418V724.381C643.446 729.319 645.132 730.703 645.132 732.088C645.132 733.473 643.446 733.473 643.446 733.473H635.438C633.752 733.473 633.752 732.088 633.752 732.088C633.752 730.703 635.438 729.319 635.438 724.381V700.418Z" fill="#9E381B"/>
<path d="M651.018 700.418C651.018 695.48 649.332 694.095 649.332 692.711C649.332 691.326 651.018 691.326 651.018 691.326H659.026C660.712 691.326 660.712 692.711 660.712 692.711C660.712 694.095 659.026 695.48 659.026 700.418V724.381C659.026 728.596 659.447 731.486 660.591 731.486H666.973C673.055 731.486 674.62 725.826 676.607 725.826C676.788 725.826 676.968 725.887 677.149 726.007C678.534 726.79 675.343 732.269 675.283 732.329C674.741 733.292 673.115 733.473 672.212 733.473H651.018C649.332 733.473 649.332 732.088 649.332 732.088C649.332 730.703 651.018 729.319 651.018 724.381V700.418Z" fill="#9E381B"/>
<path d="M683.414 700.418C683.414 695.48 681.728 694.095 681.728 692.711C681.728 691.807 682.27 691.326 683.414 691.326H691.422C693.108 691.326 693.108 692.711 693.108 692.711C693.108 694.095 691.422 695.48 691.422 700.418V709.69C697.744 707.221 701.417 700.779 702.44 694.818C702.561 693.794 701.537 692.951 701.537 692.349C701.537 691.687 702.199 691.326 703.584 691.326H707.799C709.846 691.326 709.846 692.349 709.846 692.349C709.846 693.132 709.184 693.433 708.762 694.457C707.076 700.779 702.139 707.402 695.095 710.653C704.066 712.339 707.197 726.067 708.16 728.415C708.883 730.222 710.508 730.463 710.508 732.088C710.508 733.172 709.666 733.473 708.702 733.473H701.116C700.092 733.473 699.61 732.51 699.189 730.342C698.226 725.284 695.817 713.182 691.422 713.182V724.381C691.422 729.319 693.108 730.703 693.108 732.088C693.108 732.991 692.566 733.473 691.422 733.473H683.414C681.728 733.473 681.728 732.088 681.728 732.088C681.728 730.703 683.414 729.319 683.414 724.381V700.418Z" fill="#9E381B"/>
<path d="M714.712 692.711C714.712 691.326 716.398 691.326 716.398 691.326H725.128C726.272 691.326 726.814 691.807 726.814 692.711C726.814 694.095 724.707 694.999 727.477 700.418L734.642 714.326L740.964 700.418C743.131 695.721 738.917 694.095 738.917 692.711C738.917 691.326 740.602 691.326 740.602 691.326H746.623C747.767 691.326 748.309 691.807 748.309 692.711C748.309 694.095 745.239 695.48 743.011 700.418L736.749 714.206C736.327 715.169 735.605 716.855 735.605 717.337V724.381C735.605 729.319 737.291 730.703 737.291 732.088C737.291 733.473 735.605 733.473 735.605 733.473H727.597C726.453 733.473 725.911 732.991 725.911 732.088C725.911 730.703 727.597 729.319 727.597 724.381V717.337C727.597 716.855 726.814 715.35 726.272 714.326L719.107 700.418C716.639 695.661 714.712 694.095 714.712 692.711Z" fill="#9E381B"/>
<path d="M505.472 800.075C498.488 800.075 493.671 797.607 493.671 793.572C493.671 792.067 494.996 790.321 497.344 790.321C501.739 790.321 501.077 798.088 505.412 798.088C510.651 798.088 511.253 794.054 511.253 791.947C511.253 781.229 493.792 779.242 493.792 767.14C493.792 760.938 500.294 756.724 507.76 756.724C515.347 756.724 519.562 759.192 519.562 763.226C519.562 764.732 518.237 766.478 515.889 766.478C511.493 766.478 512.758 758.711 507.821 758.711C502.582 758.711 501.98 762.805 501.98 764.912C501.98 775.63 519.622 777.918 519.622 790.02C519.622 796.222 512.939 800.075 505.472 800.075Z" fill="#9E381B"/>
<path d="M524.074 758.831C523.893 758.229 523.351 757.326 524.796 757.326H560.561C562.006 757.326 561.464 758.229 561.284 758.831L558.996 766.478C558.635 767.08 558.213 767.321 557.731 767.321C557.129 767.321 557.43 767.501 556.949 767.2C555.744 766.478 556.106 759.313 550.386 759.313H548.278C546.472 759.313 546.713 762.203 546.713 766.418V790.381C546.713 795.319 548.399 796.703 548.399 798.088C548.399 798.991 547.857 799.473 546.713 799.473H538.705C537.019 799.473 537.019 798.088 537.019 798.088C537.019 796.703 538.705 795.319 538.705 790.381V766.418C538.705 762.203 538.946 759.313 537.139 759.313H534.972C529.252 759.313 529.553 766.357 528.409 767.2C528.168 767.381 527.927 767.441 527.686 767.441C527.205 767.441 526.783 767.14 526.362 766.478L524.074 758.831Z" fill="#9E381B"/>
<path d="M565.754 798.088C565.754 796.703 567.44 795.319 567.44 790.381V766.418C567.44 761.48 565.754 760.095 565.754 758.711C565.754 757.807 566.296 757.326 567.44 757.326H575.448C576.05 757.326 576.412 757.567 577.014 757.567C577.435 757.567 577.857 757.446 576.893 757.928C578.519 757.145 580.265 756.724 582.192 756.724C588.815 756.724 594.114 761.721 594.114 770.03C594.114 776.774 590.621 781.711 585.744 783.337C590.501 786.889 592.187 792.609 592.909 794.415C593.632 796.222 595.258 796.463 595.258 798.088C595.258 799.172 594.415 799.473 593.451 799.473H585.865C584.841 799.473 584.359 798.51 583.938 796.342C583.215 792.549 582.011 786.407 579.362 783.517C577.977 783.156 576.653 782.494 575.448 781.591V790.381C575.448 795.319 577.134 796.703 577.134 798.088C577.134 798.991 576.592 799.473 575.448 799.473H567.44C565.754 799.473 565.754 798.088 565.754 798.088ZM575.448 766.418V778.52C576.653 779.724 578.158 780.507 579.783 780.507C584.058 780.507 585.263 775.329 585.263 770.03C585.263 764.671 584.058 760.095 579.783 760.095C575.569 760.095 575.448 762.925 575.448 766.418Z" fill="#9E381B"/>
<path d="M599.444 798.088C599.444 796.703 603.057 795.078 604.743 790.381L614.617 763.347L614.376 762.564C613.834 760.818 612.51 760.336 612.51 758.711C612.51 757.807 613.292 757.326 614.256 757.326H619.735C620.759 757.326 621.06 758.53 621.662 760.396L631.476 790.381C632.981 795.078 634.968 796.703 634.968 798.088C634.968 799.473 633.282 799.473 633.282 799.473H625.274C624.13 799.473 623.588 798.991 623.588 798.088C623.588 796.703 624.973 795.138 623.468 790.381L621.782 784.962C621.541 784.119 621.18 783.457 619.976 783.457H610.282C609.499 783.457 609.078 784.18 608.837 784.902L606.91 790.381C605.465 794.897 608.837 796.703 608.837 798.088C608.837 799.473 607.151 799.473 607.151 799.473H601.13C599.986 799.473 599.444 798.991 599.444 798.088ZM610.402 780.567C610.222 781.049 610.342 781.47 610.824 781.47H619.554C620.397 781.47 620.277 780.627 620.156 780.266L615.641 766.418L610.402 780.567Z" fill="#9E381B"/>
<path d="M636.353 766.418C634.908 761.661 631.958 760.095 631.958 758.711C631.958 757.326 633.644 757.326 633.644 757.326H642.374C643.518 757.326 644.06 757.807 644.06 758.711C644.06 760.095 643.097 761.059 644.722 766.418L653.694 796.463L659.414 766.418C659.534 765.635 659.594 764.912 659.594 764.25C658.21 761.119 655.861 759.855 655.861 758.711C655.861 757.326 657.547 757.326 657.547 757.326H666.097C667.241 757.326 667.783 757.807 667.783 758.711C667.783 760.095 667.241 760.938 668.445 766.418L675.008 796.463L683.137 766.418C684.401 761.842 681.09 760.095 681.09 758.711C681.09 757.326 682.775 757.326 682.775 757.326H688.796C689.94 757.326 690.482 757.807 690.482 758.711C690.482 760.095 686.508 761.601 685.184 766.418L677.116 796.342C676.634 798.088 676.152 799.473 674.948 799.473H669.168C668.144 799.473 667.241 798.389 666.82 796.463L660.919 769.368L655.741 796.342C655.38 798.088 654.838 799.473 653.634 799.473H647.673C646.649 799.473 645.927 798.389 645.324 796.463L636.353 766.418Z" fill="#9E381B"/>
<path d="M694.694 758.711C694.694 757.807 695.236 757.326 696.38 757.326H709.928C716.551 757.326 721.849 761.842 721.849 768.284C721.849 772.318 720.043 775.931 717.093 778.159C720.585 779.965 723.053 783.337 723.053 787.491C723.053 793.994 717.755 799.473 711.132 799.473H696.38C694.694 799.473 694.694 798.088 694.694 798.088C694.694 796.703 696.38 795.319 696.38 790.381V766.418C696.38 761.48 694.694 760.095 694.694 758.711ZM704.388 790.381C704.388 793.271 704.268 796.101 705.412 796.101H708.723C712.998 796.101 714.202 791.044 714.202 787.491C714.202 783.999 712.396 779.905 708.121 779.905C707.941 779.905 707.76 779.905 707.519 779.905C706.134 779.905 704.388 779.965 704.388 781.41V790.381ZM705.412 760.698C704.268 760.698 704.388 763.527 704.388 766.418V775.449C704.388 776.774 706.194 776.894 707.399 776.894C707.7 776.894 707.941 776.894 708.121 776.894C712.396 776.894 712.998 771.836 712.998 768.284C712.998 764.792 711.794 760.698 707.519 760.698H705.412Z" fill="#9E381B"/>
<path d="M727.267 758.711C727.267 757.326 728.953 757.326 728.953 757.326H753.82C755.265 757.326 754.903 758.229 754.542 758.831L752.254 762.564C751.893 763.166 751.471 763.407 750.99 763.407C750.388 763.407 750.689 763.588 750.207 763.287C749.003 762.564 749.364 759.313 743.644 759.313H738.526C737.382 759.313 736.961 762.203 736.961 766.418V777.978C742.982 777.737 742.741 774.004 744.487 774.004C745.45 774.004 745.45 775.208 745.45 775.208V782.735C745.45 783.939 744.487 783.939 744.487 783.939C742.741 783.939 742.982 780.206 736.961 779.965V790.381C736.961 794.596 737.382 797.486 738.526 797.486H744.908C750.99 797.486 752.555 791.826 754.542 791.826C754.723 791.826 754.903 791.887 755.084 792.007C756.469 792.79 753.278 798.269 753.217 798.329C752.676 799.292 751.05 799.473 750.147 799.473H728.953C727.267 799.473 727.267 798.088 727.267 798.088C727.267 796.703 728.953 795.319 728.953 790.381V766.418C728.953 761.48 727.267 760.095 727.267 758.711Z" fill="#9E381B"/>
<path d="M759.663 798.088C759.663 796.703 761.349 795.319 761.349 790.381V766.418C761.349 761.48 759.663 760.095 759.663 758.711C759.663 757.807 760.205 757.326 761.349 757.326H769.357C769.959 757.326 770.32 757.567 770.922 757.567C771.344 757.567 771.765 757.446 770.802 757.928C772.427 757.145 774.174 756.724 776.1 756.724C782.723 756.724 788.022 761.721 788.022 770.03C788.022 776.774 784.53 781.711 779.653 783.337C784.409 786.889 786.095 792.609 786.818 794.415C787.54 796.222 789.166 796.463 789.166 798.088C789.166 799.172 788.323 799.473 787.36 799.473H779.773C778.75 799.473 778.268 798.51 777.846 796.342C777.124 792.549 775.92 786.407 773.27 783.517C771.886 783.156 770.561 782.494 769.357 781.591V790.381C769.357 795.319 771.043 796.703 771.043 798.088C771.043 798.991 770.501 799.473 769.357 799.473H761.349C759.663 799.473 759.663 798.088 759.663 798.088ZM769.357 766.418V778.52C770.561 779.724 772.066 780.507 773.692 780.507C777.967 780.507 779.171 775.329 779.171 770.03C779.171 764.671 777.967 760.095 773.692 760.095C769.477 760.095 769.357 762.925 769.357 766.418Z" fill="#9E381B"/>
<path d="M793.352 798.088C793.352 796.703 795.038 795.319 795.038 790.381V766.418C795.038 761.48 793.352 760.095 793.352 758.711C793.352 757.807 793.894 757.326 795.038 757.326H803.046C803.648 757.326 804.01 757.567 804.612 757.567C805.033 757.567 805.455 757.446 804.491 757.928C806.117 757.145 807.863 756.724 809.79 756.724C816.413 756.724 821.712 761.721 821.712 770.03C821.712 776.774 818.219 781.711 813.342 783.337C818.099 786.889 819.785 792.609 820.507 794.415C821.23 796.222 822.856 796.463 822.856 798.088C822.856 799.172 822.013 799.473 821.049 799.473H813.463C812.439 799.473 811.958 798.51 811.536 796.342C810.814 792.549 809.609 786.407 806.96 783.517C805.575 783.156 804.251 782.494 803.046 781.591V790.381C803.046 795.319 804.732 796.703 804.732 798.088C804.732 798.991 804.19 799.473 803.046 799.473H795.038C793.352 799.473 793.352 798.088 793.352 798.088ZM803.046 766.418V778.52C804.251 779.724 805.756 780.507 807.382 780.507C811.656 780.507 812.861 775.329 812.861 770.03C812.861 764.671 811.656 760.095 807.382 760.095C803.167 760.095 803.046 762.925 803.046 766.418Z" fill="#9E381B"/>
<path d="M824.631 758.711C824.631 757.326 826.317 757.326 826.317 757.326H835.048C836.192 757.326 836.734 757.807 836.734 758.711C836.734 760.095 834.626 760.999 837.396 766.418L844.561 780.326L850.883 766.418C853.051 761.721 848.836 760.095 848.836 758.711C848.836 757.326 850.522 757.326 850.522 757.326H856.543C857.687 757.326 858.229 757.807 858.229 758.711C858.229 760.095 855.158 761.48 852.93 766.418L846.668 780.206C846.247 781.169 845.524 782.855 845.524 783.337V790.381C845.524 795.319 847.21 796.703 847.21 798.088C847.21 799.473 845.524 799.473 845.524 799.473H837.516C836.372 799.473 835.831 798.991 835.831 798.088C835.831 796.703 837.516 795.319 837.516 790.381V783.337C837.516 782.855 836.734 781.35 836.192 780.326L829.027 766.418C826.558 761.661 824.631 760.095 824.631 758.711Z" fill="#9E381B"/>
<path d="M558.836 163.758C558.391 152.642 551.499 153.086 551.499 149.863C551.499 148.084 553.722 148.084 553.722 148.084H562.504C581.401 148.084 598.741 185.656 606.967 205.886V163.758C606.522 152.642 599.63 153.086 599.63 149.863C599.63 148.084 601.854 148.084 601.854 148.084H615.748C617.193 148.084 617.972 148.64 617.972 149.863C617.972 153.086 611.08 152.642 610.635 163.758V210.222C611.08 221.337 617.972 220.893 617.972 224.116C617.972 225.895 615.748 225.895 615.748 225.895H598.964C597.074 225.895 596.185 224.116 595.406 220.115C593.628 210.777 571.285 164.424 562.504 164.424V210.222C562.948 221.337 569.84 220.893 569.84 224.116C569.84 225.895 567.617 225.895 567.617 225.895H553.722C552.277 225.895 551.499 225.339 551.499 224.116C551.499 220.893 558.391 221.337 558.836 210.222V163.758Z" fill="white"/>
<path d="M628.857 164.869C628.857 155.754 625.745 153.197 625.745 150.641C625.745 148.084 628.857 148.084 628.857 148.084H643.641C646.754 148.084 646.754 150.641 646.754 150.641C646.754 153.197 643.641 155.754 643.641 164.869V209.11C643.641 218.225 646.754 220.782 646.754 223.338C646.754 225.895 643.641 225.895 643.641 225.895H628.857C625.745 225.895 625.745 223.338 625.745 223.338C625.745 220.782 628.857 218.225 628.857 209.11V164.869Z" fill="white"/>
<path d="M657.619 164.869C657.619 155.754 654.507 153.197 654.507 150.641C654.507 148.973 655.507 148.084 657.619 148.084H672.403C675.516 148.084 675.516 150.641 675.516 150.641C675.516 153.197 672.403 155.754 672.403 164.869V181.987C684.075 177.43 690.855 165.536 692.745 154.531C692.967 152.642 691.078 151.085 691.078 149.974C691.078 148.751 692.301 148.084 694.857 148.084H702.638C706.418 148.084 706.418 149.974 706.418 149.974C706.418 151.419 705.195 151.975 704.417 153.864C701.304 165.536 692.189 177.763 679.184 183.766C695.746 186.878 701.527 212.222 703.305 216.558C704.639 219.892 707.64 220.337 707.64 223.338C707.64 225.339 706.084 225.895 704.306 225.895H690.3C688.41 225.895 687.521 224.116 686.743 220.115C684.964 210.777 680.518 188.435 672.403 188.435V209.11C672.403 218.225 675.516 220.782 675.516 223.338C675.516 225.006 674.515 225.895 672.403 225.895H657.619C654.507 225.895 654.507 223.338 654.507 223.338C654.507 220.782 657.619 218.225 657.619 209.11V164.869Z" fill="white"/>
<path d="M740.655 227.006C721.314 227.006 709.864 209.666 709.864 186.767C709.864 163.869 721.314 146.973 740.655 146.973C759.996 146.973 771.446 163.869 771.446 186.767C771.446 209.666 759.996 227.006 740.655 227.006ZM726.205 186.767C726.205 209.666 733.763 223.338 740.655 223.338C747.547 223.338 755.106 209.666 755.106 186.767C755.106 163.869 747.547 150.641 740.655 150.641C733.763 150.641 726.205 163.869 726.205 186.767Z" fill="white"/>
<path d="M782.337 164.869C782.337 155.754 779.225 153.197 779.225 150.641C779.225 148.084 782.337 148.084 782.337 148.084H797.121C800.234 148.084 800.234 150.641 800.234 150.641C800.234 153.197 797.121 155.754 797.121 164.869V209.11C797.121 218.225 800.234 220.782 800.234 223.338C800.234 225.895 797.121 225.895 797.121 225.895H782.337C779.225 225.895 779.225 223.338 779.225 223.338C779.225 220.782 782.337 218.225 782.337 209.11V164.869Z" fill="white"/>
<path d="M574.687 270.594C575.626 270.742 576.478 271.125 577.243 271.742C578.034 272.36 578.651 273.126 579.096 274.04C579.565 274.954 579.8 275.929 579.8 276.967C579.8 278.276 579.467 279.462 578.8 280.524C578.133 281.561 577.157 282.389 575.873 283.006C574.613 283.599 573.118 283.896 571.389 283.896H561.755V258.07H571.019C572.772 258.07 574.267 258.366 575.502 258.959C576.737 259.527 577.663 260.305 578.281 261.293C578.898 262.282 579.207 263.393 579.207 264.628C579.207 266.16 578.787 267.432 577.947 268.445C577.132 269.433 576.045 270.149 574.687 270.594ZM565.127 269.223H570.796C572.377 269.223 573.6 268.852 574.465 268.111C575.329 267.37 575.761 266.345 575.761 265.036C575.761 263.727 575.329 262.701 574.465 261.96C573.6 261.219 572.353 260.849 570.722 260.849H565.127V269.223ZM571.093 281.117C572.772 281.117 574.082 280.721 575.02 279.931C575.959 279.14 576.428 278.041 576.428 276.633C576.428 275.201 575.934 274.077 574.946 273.261C573.958 272.422 572.637 272.002 570.982 272.002H565.127V281.117H571.093Z" fill="white"/>
<path d="M609.934 283.896L603.784 273.336H599.708V283.896H596.336V258.07H604.673C606.624 258.07 608.267 258.403 609.601 259.07C610.959 259.737 611.972 260.639 612.639 261.775C613.306 262.911 613.64 264.208 613.64 265.666C613.64 267.444 613.121 269.013 612.083 270.371C611.071 271.73 609.539 272.632 607.489 273.076L613.973 283.896H609.934ZM599.708 270.631H604.673C606.501 270.631 607.872 270.186 608.786 269.297C609.7 268.383 610.157 267.172 610.157 265.666C610.157 264.134 609.7 262.948 608.786 262.109C607.896 261.269 606.525 260.849 604.673 260.849H599.708V270.631Z" fill="white"/>
<path d="M634.107 260.812V269.445H643.519V272.224H634.107V281.117H644.63V283.896H630.736V258.033H644.63V260.812H634.107Z" fill="white"/>
<path d="M694.047 258.07L686.563 283.896H682.783L676.781 263.109L670.556 283.896L666.814 283.933L659.588 258.07H663.182L668.814 279.968L675.039 258.07H678.819L684.747 279.894L690.416 258.07H694.047Z" fill="white"/>
<path d="M712.966 258.07V283.896H709.594V258.07H712.966Z" fill="white"/>
<path d="M750.874 283.896H747.502L733.941 263.331V283.896H730.569V258.033H733.941L747.502 278.56V258.033H750.874V283.896Z" fill="white"/>
<path d="M788.042 265.554C787.326 264.048 786.289 262.887 784.93 262.072C783.571 261.232 781.991 260.812 780.187 260.812C778.384 260.812 776.754 261.232 775.296 262.072C773.864 262.887 772.727 264.072 771.888 265.629C771.072 267.16 770.665 268.939 770.665 270.964C770.665 272.99 771.072 274.768 771.888 276.3C772.727 277.831 773.864 279.017 775.296 279.857C776.754 280.672 778.384 281.08 780.187 281.08C782.707 281.08 784.782 280.326 786.412 278.819C788.042 277.313 788.993 275.275 789.265 272.706H778.965V269.964H792.859V272.557C792.662 274.682 791.995 276.633 790.858 278.412C789.722 280.166 788.228 281.561 786.375 282.599C784.522 283.611 782.46 284.118 780.187 284.118C777.791 284.118 775.605 283.562 773.629 282.45C771.653 281.314 770.084 279.746 768.923 277.745C767.787 275.744 767.219 273.484 767.219 270.964C767.219 268.445 767.787 266.184 768.923 264.184C770.084 262.158 771.653 260.589 773.629 259.478C775.605 258.342 777.791 257.773 780.187 257.773C782.929 257.773 785.35 258.453 787.45 259.811C789.574 261.17 791.118 263.084 792.081 265.554H788.042Z" fill="white"/>
<path d="M550.816 316.964C550.816 314.445 551.385 312.184 552.521 310.184C553.657 308.158 555.201 306.577 557.152 305.441C559.129 304.305 561.315 303.736 563.711 303.736C566.527 303.736 568.985 304.416 571.084 305.774C573.184 307.133 574.715 309.06 575.679 311.554H571.64C570.924 309.998 569.886 308.8 568.528 307.96C567.194 307.121 565.588 306.701 563.711 306.701C561.907 306.701 560.29 307.121 558.857 307.96C557.424 308.8 556.3 309.998 555.485 311.554C554.67 313.086 554.262 314.889 554.262 316.964C554.262 319.014 554.67 320.818 555.485 322.374C556.3 323.905 557.424 325.091 558.857 325.931C560.29 326.771 561.907 327.191 563.711 327.191C565.588 327.191 567.194 326.783 568.528 325.968C569.886 325.128 570.924 323.93 571.64 322.374H575.679C574.715 324.844 573.184 326.758 571.084 328.117C568.985 329.451 566.527 330.118 563.711 330.118C561.315 330.118 559.129 329.562 557.152 328.45C555.201 327.314 553.657 325.746 552.521 323.745C551.385 321.744 550.816 319.484 550.816 316.964Z" fill="white"/>
<path d="M604.263 330.155C601.867 330.155 599.681 329.599 597.705 328.488C595.729 327.351 594.16 325.783 592.999 323.782C591.863 321.756 591.295 319.484 591.295 316.964C591.295 314.445 591.863 312.184 592.999 310.184C594.16 308.158 595.729 306.589 597.705 305.478C599.681 304.342 601.867 303.773 604.263 303.773C606.684 303.773 608.883 304.342 610.859 305.478C612.835 306.589 614.391 308.146 615.527 310.146C616.664 312.147 617.232 314.42 617.232 316.964C617.232 319.508 616.664 321.781 615.527 323.782C614.391 325.783 612.835 327.351 610.859 328.488C608.883 329.599 606.684 330.155 604.263 330.155ZM604.263 327.228C606.067 327.228 607.685 326.808 609.117 325.968C610.575 325.128 611.711 323.93 612.526 322.374C613.366 320.818 613.786 319.014 613.786 316.964C613.786 314.889 613.366 313.086 612.526 311.554C611.711 309.998 610.587 308.8 609.154 307.96C607.722 307.121 606.091 306.701 604.263 306.701C602.435 306.701 600.805 307.121 599.372 307.96C597.94 308.8 596.803 309.998 595.964 311.554C595.148 313.086 594.741 314.889 594.741 316.964C594.741 319.014 595.148 320.818 595.964 322.374C596.803 323.93 597.94 325.128 599.372 325.968C600.83 326.808 602.46 327.228 604.263 327.228Z" fill="white"/>
<path d="M659.736 304.255V329.896H656.364V310.776L647.842 329.896H645.471L636.912 310.739V329.896H633.54V304.255H637.171L646.656 325.449L656.142 304.255H659.736Z" fill="white"/>
<path d="M694.578 311.629C694.578 313.778 693.837 315.569 692.355 317.001C690.897 318.409 688.662 319.113 685.648 319.113H680.683V329.896H677.311V304.07H685.648C688.563 304.07 690.774 304.774 692.28 306.182C693.812 307.59 694.578 309.405 694.578 311.629ZM685.648 316.334C687.525 316.334 688.909 315.927 689.798 315.112C690.687 314.296 691.132 313.135 691.132 311.629C691.132 308.442 689.304 306.849 685.648 306.849H680.683V316.334H685.648Z" fill="white"/>
<path d="M725.891 324.152H714.627L712.552 329.896H708.995L718.332 304.218H722.223L731.523 329.896H727.966L725.891 324.152ZM724.928 321.41L720.259 308.368L715.59 321.41H724.928Z" fill="white"/>
<path d="M767.754 329.896H764.382L750.821 309.331V329.896H747.449V304.033H750.821L764.382 324.56V304.033H767.754V329.896Z" fill="white"/>
<path d="M803.44 304.07L795.029 320.151V329.896H791.658V320.151L783.21 304.07H786.952L793.325 317.149L799.698 304.07H803.44Z" fill="white"/>
<path d="M147.064 693.94H145.781V802.989H147.064V693.94Z" fill="black"/>
<path d="M149.629 693.94H148.347V802.989H149.629V693.94Z" fill="black"/>
<path d="M152.195 693.94H150.912V796.575H152.195V693.94Z" fill="black"/>
<path d="M158.61 693.94H153.478V796.575H158.61V693.94Z" fill="black"/>
<path d="M163.742 693.94H161.176V796.575H163.742V693.94Z" fill="black"/>
<path d="M167.591 693.94H166.308V796.575H167.591V693.94Z" fill="black"/>
<path d="M174.005 693.94H171.439V796.575H174.005V693.94Z" fill="black"/>
<path d="M176.571 693.94H175.288V796.575H176.571V693.94Z" fill="black"/>
<path d="M181.703 693.94H177.854V796.575H181.703V693.94Z" fill="black"/>
<path d="M185.552 693.94H182.986V796.575H185.552V693.94Z" fill="black"/>
<path d="M188.117 693.94H186.834V796.575H188.117V693.94Z" fill="black"/>
<path d="M194.532 693.94H189.4V796.575H194.532V693.94Z" fill="black"/>
<path d="M198.381 693.94H197.098V796.575H198.381V693.94Z" fill="black"/>
<path d="M203.513 693.94H200.947V796.575H203.513V693.94Z" fill="black"/>
<path d="M206.078 693.94H204.796V802.989H206.078V693.94Z" fill="black"/>
<path d="M208.644 693.94H207.361V802.989H208.644V693.94Z" fill="black"/>
<path d="M211.21 693.94H209.927V796.575H211.21V693.94Z" fill="black"/>
<path d="M217.625 693.94H213.776V796.575H217.625V693.94Z" fill="black"/>
<path d="M220.191 693.94H218.908V796.575H220.191V693.94Z" fill="black"/>
<path d="M222.757 693.94H221.474V796.575H222.757V693.94Z" fill="black"/>
<path d="M231.737 693.94H227.888V796.575H231.737V693.94Z" fill="black"/>
<path d="M234.303 693.94H233.02V796.575H234.303V693.94Z" fill="black"/>
<path d="M238.152 693.94H236.869V796.575H238.152V693.94Z" fill="black"/>
<path d="M244.567 693.94H243.284V796.575H244.567V693.94Z" fill="black"/>
<path d="M248.415 693.94H245.849V796.575H248.415V693.94Z" fill="black"/>
<path d="M252.264 693.94H249.698V796.575H252.264V693.94Z" fill="black"/>
<path d="M256.113 693.94H254.83V796.575H256.113V693.94Z" fill="black"/>
<path d="M261.244 693.94H259.962V796.575H261.244V693.94Z" fill="black"/>
<path d="M265.093 693.94H263.81V802.989H265.093V693.94Z" fill="black"/>
<path d="M267.659 693.94H266.376V802.989H267.659V693.94Z" fill="black"/>
<path d="M135.65 808.664C135.65 808.476 135.632 808.294 135.597 808.118C135.421 807.306 134.968 806.718 134.239 806.354C133.863 806.165 133.457 806.071 133.022 806.071C132.116 806.071 131.416 806.448 130.922 807.2C130.628 807.635 130.481 808.112 130.481 808.629C130.481 808.817 130.499 809 130.534 809.176C130.699 809.964 131.152 810.534 131.893 810.887C132.257 811.064 132.639 811.152 133.039 811.152C133.968 811.152 134.692 810.781 135.209 810.04C135.503 809.617 135.65 809.158 135.65 808.664ZM131.84 805.048C132.275 804.872 132.669 804.784 133.022 804.784C134.198 804.784 135.174 805.219 135.95 806.089C136.409 806.595 136.709 807.183 136.85 807.853C136.908 808.112 136.938 808.382 136.938 808.664C136.938 809.641 136.567 810.511 135.826 811.275C135.062 812.051 134.121 812.439 133.004 812.439C131.781 812.439 130.787 811.957 130.023 810.993C129.646 810.523 129.4 809.987 129.282 809.388C129.223 809.141 129.194 808.894 129.194 808.647C129.194 807.647 129.582 806.483 130.358 805.154C130.511 804.895 130.605 804.737 130.64 804.678L133.692 799.121L134.786 799.774L131.84 805.048Z" fill="black" stroke="black" stroke-width="0.256586"/>
<path d="M154.523 801.362L152.776 802.861L151.947 801.873L154.54 799.633H155.881V812.175H154.523V801.362Z" fill="black" stroke="black" stroke-width="0.256586"/>
<path d="M160.506 805.912C160.506 803.842 160.953 802.172 161.847 800.902C162.6 799.844 163.535 799.314 164.652 799.314C166.004 799.314 167.051 800.073 167.792 801.59C168.062 802.143 168.274 802.772 168.427 803.478C168.591 804.242 168.674 805.053 168.674 805.912C168.674 808.017 168.221 809.693 167.316 810.939C166.586 811.939 165.675 812.439 164.581 812.439C163.229 812.439 162.176 811.698 161.424 810.216C161.13 809.652 160.9 808.999 160.736 808.258C160.583 807.517 160.506 806.735 160.506 805.912ZM161.865 805.912C161.865 806.676 161.941 807.405 162.094 808.099C162.447 809.769 163.07 810.775 163.964 811.116C164.164 811.186 164.37 811.222 164.581 811.222C165.581 811.222 166.334 810.493 166.839 809.034C167.157 808.105 167.316 807.064 167.316 805.912C167.316 805.089 167.239 804.307 167.086 803.566C166.71 801.837 166.051 800.843 165.11 800.585C164.958 800.549 164.805 800.532 164.652 800.532C163.687 800.532 162.941 801.237 162.412 802.648C162.047 803.625 161.865 804.712 161.865 805.912Z" fill="black" stroke="black" stroke-width="0.256586"/>
<path d="M179.068 799.633L174.287 812.175H172.717L177.163 800.921H170.724V799.633H179.068Z" fill="black" stroke="black" stroke-width="0.256586"/>
<path d="M187.469 808.664C187.469 808.476 187.451 808.294 187.416 808.118C187.239 807.306 186.786 806.718 186.057 806.354C185.681 806.165 185.275 806.071 184.84 806.071C183.935 806.071 183.235 806.448 182.741 807.2C182.447 807.635 182.3 808.112 182.3 808.629C182.3 808.817 182.318 809 182.353 809.176C182.518 809.964 182.97 810.534 183.711 810.887C184.076 811.064 184.458 811.152 184.858 811.152C185.787 811.152 186.51 810.781 187.028 810.04C187.322 809.617 187.469 809.158 187.469 808.664ZM183.658 805.048C184.093 804.872 184.487 804.784 184.84 804.784C186.016 804.784 186.992 805.219 187.768 806.089C188.227 806.595 188.527 807.183 188.668 807.853C188.727 808.112 188.756 808.382 188.756 808.664C188.756 809.641 188.386 810.511 187.645 811.275C186.881 812.051 185.94 812.439 184.823 812.439C183.599 812.439 182.606 811.957 181.841 810.993C181.465 810.523 181.218 809.987 181.1 809.388C181.042 809.141 181.012 808.894 181.012 808.647C181.012 807.647 181.4 806.483 182.176 805.154C182.329 804.895 182.423 804.737 182.459 804.678L185.51 799.121L186.604 799.774L183.658 805.048Z" fill="black" stroke="black" stroke-width="0.256586"/>
<path d="M192.288 802.614L191.089 802.138C191.347 801.209 191.935 800.462 192.853 799.898C193.511 799.498 194.205 799.298 194.934 799.298C195.887 799.298 196.728 799.645 197.457 800.339C198.045 800.903 198.427 801.615 198.603 802.473C198.686 802.873 198.727 803.29 198.727 803.726C198.727 804.737 198.251 805.795 197.298 806.901L195.658 808.7L195.622 808.735L193.541 810.958H198.956V812.175H190.789L195.181 807.571C195.934 806.76 196.375 806.266 196.504 806.089C197.104 805.29 197.404 804.502 197.404 803.726C197.404 803.337 197.369 802.979 197.298 802.649C197.063 801.544 196.493 800.862 195.587 800.603C195.375 800.544 195.158 800.515 194.934 800.515C194.052 800.515 193.335 800.885 192.782 801.626C192.57 801.92 192.406 802.25 192.288 802.614Z" fill="black" stroke="black" stroke-width="0.256586"/>
<path d="M216.664 805.224C215.829 805.224 215.1 805.483 214.477 806C214.453 806.024 214.436 806.041 214.424 806.053L213.171 805.4L213.983 799.632H219.769V800.849H215.112L214.547 804.536C215.065 804.218 215.77 804.06 216.664 804.06C217.946 804.06 218.952 804.548 219.681 805.524C220.022 805.994 220.257 806.535 220.386 807.147C220.457 807.488 220.492 807.846 220.492 808.223C220.492 809.516 220.075 810.575 219.24 811.398C218.522 812.092 217.646 812.439 216.611 812.439C215.247 812.439 214.165 811.909 213.366 810.851C213.036 810.404 212.789 809.898 212.625 809.334L213.965 809.087C214.447 810.51 215.329 811.221 216.611 811.221C217.576 811.221 218.287 810.792 218.746 809.934C219.016 809.44 219.152 808.864 219.152 808.205C219.152 807.958 219.128 807.717 219.081 807.482C218.893 806.588 218.44 805.935 217.723 805.524C217.382 805.324 217.029 805.224 216.664 805.224Z" fill="black" stroke="black" stroke-width="0.256586"/>
<path d="M229.157 808.664C229.157 808.476 229.14 808.294 229.105 808.118C228.928 807.306 228.475 806.718 227.746 806.354C227.37 806.165 226.964 806.071 226.529 806.071C225.624 806.071 224.924 806.448 224.43 807.2C224.136 807.635 223.989 808.112 223.989 808.629C223.989 808.817 224.007 809 224.042 809.176C224.206 809.964 224.659 810.534 225.4 810.887C225.765 811.064 226.147 811.152 226.547 811.152C227.476 811.152 228.199 810.781 228.717 810.04C229.011 809.617 229.157 809.158 229.157 808.664ZM225.347 805.048C225.782 804.872 226.176 804.784 226.529 804.784C227.705 804.784 228.681 805.219 229.457 806.089C229.916 806.595 230.216 807.183 230.357 807.853C230.416 808.112 230.445 808.382 230.445 808.664C230.445 809.641 230.075 810.511 229.334 811.275C228.569 812.051 227.629 812.439 226.511 812.439C225.288 812.439 224.295 811.957 223.53 810.993C223.154 810.523 222.907 809.987 222.789 809.388C222.73 809.141 222.701 808.894 222.701 808.647C222.701 807.647 223.089 806.483 223.865 805.154C224.018 804.895 224.112 804.737 224.148 804.678L227.199 799.121L228.293 799.774L225.347 805.048Z" fill="black" stroke="black" stroke-width="0.256586"/>
<path d="M234.242 803.109C234.242 803.297 234.259 803.479 234.295 803.656C234.471 804.467 234.924 805.055 235.653 805.42C236.029 805.608 236.435 805.702 236.87 805.702C237.776 805.702 238.475 805.326 238.969 804.573C239.263 804.138 239.41 803.662 239.41 803.144C239.41 802.956 239.393 802.774 239.357 802.597C239.193 801.81 238.74 801.239 237.999 800.886C237.635 800.71 237.252 800.622 236.853 800.622C235.924 800.622 235.2 800.992 234.683 801.733C234.389 802.156 234.242 802.615 234.242 803.109ZM238.052 806.725C237.617 806.902 237.223 806.99 236.87 806.99C235.694 806.99 234.718 806.555 233.942 805.684C233.483 805.179 233.183 804.591 233.042 803.92C232.983 803.662 232.954 803.391 232.954 803.109C232.954 802.133 233.324 801.263 234.065 800.498C234.83 799.722 235.77 799.334 236.888 799.334C238.111 799.334 239.104 799.816 239.869 800.78C240.245 801.251 240.492 801.786 240.61 802.386C240.669 802.633 240.698 802.88 240.698 803.127C240.698 804.126 240.31 805.291 239.534 806.619C239.381 806.878 239.287 807.037 239.252 807.096L236.2 812.652L235.106 812L238.052 806.725Z" fill="black" stroke="black" stroke-width="0.256586"/>
<path d="M242.995 810.006L244.336 809.6C244.653 810.282 245.171 810.764 245.888 811.046C246.17 811.164 246.453 811.223 246.735 811.223C247.793 811.223 248.558 810.858 249.028 810.129C249.287 809.729 249.416 809.253 249.416 808.7C249.416 808.488 249.393 808.283 249.346 808.083C249.169 807.201 248.622 806.625 247.705 806.354C247.411 806.26 247.1 806.213 246.77 806.213H246.1V805.066H246.77C247.723 805.066 248.399 804.725 248.799 804.043C249.011 803.702 249.116 803.296 249.116 802.826C249.116 802.603 249.093 802.391 249.046 802.191C248.858 801.285 248.311 800.739 247.405 800.55C247.205 800.503 246.988 800.48 246.753 800.48H246.7C245.9 800.48 245.271 800.768 244.812 801.344C244.683 801.497 244.583 801.662 244.512 801.838L243.33 801.291C243.754 800.468 244.442 799.88 245.394 799.527C245.841 799.363 246.294 799.28 246.753 799.28C248.046 799.28 249.046 799.727 249.751 800.621C250.069 801.033 250.281 801.497 250.386 802.015C250.445 802.273 250.475 802.544 250.475 802.826C250.475 804.049 249.916 805.002 248.799 805.684C249.399 805.86 249.893 806.266 250.281 806.901C250.481 807.218 250.622 807.559 250.704 807.924C250.751 808.171 250.775 808.43 250.775 808.7C250.775 810.076 250.234 811.105 249.152 811.787C248.47 812.222 247.664 812.44 246.735 812.44C245.794 812.44 244.918 812.111 244.107 811.452C243.601 811.04 243.23 810.558 242.995 810.006Z" fill="black" stroke="black" stroke-width="0.256586"/>
<path d="M254.236 802.614L253.036 802.138C253.295 801.209 253.883 800.462 254.8 799.898C255.459 799.498 256.153 799.298 256.882 799.298C257.835 799.298 258.675 799.645 259.405 800.339C259.993 800.903 260.375 801.615 260.551 802.473C260.633 802.873 260.675 803.29 260.675 803.726C260.675 804.737 260.198 805.795 259.246 806.901L257.605 808.7L257.57 808.735L255.488 810.958H260.904V812.175H252.736L257.129 807.571C257.882 806.76 258.323 806.266 258.452 806.089C259.052 805.29 259.352 804.502 259.352 803.726C259.352 803.337 259.316 802.979 259.246 802.649C259.011 801.544 258.44 800.862 257.535 800.603C257.323 800.544 257.105 800.515 256.882 800.515C256 800.515 255.283 800.885 254.73 801.626C254.518 801.92 254.354 802.25 254.236 802.614Z" fill="black" stroke="black" stroke-width="0.256586"/>
<path d="M282.705 799.633L277.924 812.175H276.354L280.799 800.921H274.361V799.633H282.705Z" fill="black" stroke="black" stroke-width="0.256586"/>
</g>
<defs>
<clipPath id="clip0_97_248">
<rect width="1351.26" height="880" fill="white" transform="translate(0.341553)"/>
</clipPath>
<clipPath id="clip1_97_248">
<rect width="273.263" height="273.263" fill="white" transform="translate(89.4994 92.6309)"/>
</clipPath>
<clipPath id="clip2_97_248">
<rect width="273.263" height="273.263" fill="white" transform="translate(89.4994 92.6309)"/>
</clipPath>
<clipPath id="clip3_97_248">
<rect width="273.263" height="273.263" fill="white" transform="translate(89.4994 92.6309)"/>
</clipPath>
<clipPath id="clip4_97_248">
<rect width="273.263" height="273.263" fill="white" transform="translate(1032.03 488.632)"/>
</clipPath>
<clipPath id="clip5_97_248">
<rect width="273.263" height="273.263" fill="white" transform="translate(1032.03 488.632)"/>
</clipPath>
<clipPath id="clip6_97_248">
<rect width="273.263" height="273.263" fill="white" transform="translate(1032.03 488.632)"/>
</clipPath>
</defs>
</svg>
