<svg width="1352" height="880" viewBox="0 0 1352 880" fill="none" xmlns="http://www.w3.org/2000/svg">
<g clip-path="url(#clip0_97_2)">
<rect width="1351.26" height="880" transform="translate(0.395996)" fill="#FCFEE1"/>
<rect x="0.395996" width="1351.26" height="481.684" fill="#CF9800"/>
<rect opacity="0.8" x="940.027" y="129.104" width="391.368" height="474.737" fill="#FFE499" stroke="#926C03" stroke-width="1.15789"/>
<g clip-path="url(#clip1_97_2)">
<g clip-path="url(#clip2_97_2)">
<path d="M226.187 365.893C189.691 365.893 155.391 351.682 129.572 325.875C103.753 300.067 89.5542 265.759 89.5542 229.263C89.5542 192.767 103.768 158.467 129.572 132.648C155.377 106.829 189.691 92.6328 226.187 92.6328C262.683 92.6328 296.983 106.844 322.799 132.648C348.615 158.453 362.82 192.767 362.82 229.263C362.82 265.759 348.606 300.059 322.799 325.875C296.991 351.691 262.683 365.893 226.187 365.893ZM226.187 97.5885C191.016 97.5885 157.951 111.286 133.081 136.156C108.21 161.027 94.5128 194.091 94.5128 229.263C94.5128 264.434 108.21 297.499 133.081 322.369C157.951 347.24 191.016 360.935 226.187 360.935C261.359 360.935 294.423 347.24 319.294 322.369C344.164 297.499 357.859 264.434 357.859 229.263C357.859 194.091 344.164 161.027 319.294 136.156C294.423 111.286 261.359 97.5885 226.187 97.5885Z" fill="#926C03"/>
<path d="M129.34 223.94H118.692V234.588H129.34V223.94Z" fill="#926C03"/>
<path d="M333.699 223.94H323.051V234.588H333.699V223.94Z" fill="#926C03"/>
<path d="M244.431 283.221H210.202C209.655 283.222 209.124 283.04 208.692 282.706C208.26 282.371 207.951 281.902 207.815 281.373L189.471 210.437C189.377 210.072 189.367 209.69 189.444 209.321C189.52 208.952 189.679 208.605 189.91 208.308C190.14 208.01 190.436 207.769 190.774 207.602C191.113 207.436 191.484 207.35 191.861 207.35H261.797C262.171 207.35 262.54 207.435 262.877 207.599C263.213 207.762 263.508 208 263.739 208.294C263.97 208.589 264.131 208.932 264.21 209.297C264.289 209.663 264.285 210.042 264.196 210.405L246.824 281.341C246.693 281.877 246.386 282.354 245.952 282.695C245.518 283.036 244.982 283.221 244.431 283.221ZM212.114 278.289H242.496L258.65 212.285H195.037L212.114 278.289Z" fill="#926C03"/>
<path d="M188.244 230.194C188.137 230.194 188.03 230.182 187.926 230.157C182.808 228.908 178.249 225.998 174.962 221.882C171.602 217.694 169.781 212.479 169.802 207.11C169.807 201.131 172.071 195.375 176.14 190.994C180.208 186.613 185.782 183.932 191.744 183.486C197.706 183.04 203.617 184.863 208.291 188.59C212.966 192.317 216.061 197.673 216.955 203.584C216.981 203.759 216.972 203.937 216.929 204.108C216.886 204.279 216.81 204.441 216.705 204.583C216.6 204.724 216.468 204.844 216.316 204.935C216.165 205.026 215.997 205.086 215.823 205.112C215.648 205.138 215.47 205.129 215.299 205.086C215.127 205.043 214.966 204.967 214.824 204.862C214.682 204.757 214.563 204.625 214.472 204.474C214.381 204.322 214.321 204.154 214.295 203.98C213.508 198.733 210.767 193.978 206.621 190.668C202.475 187.359 197.23 185.74 191.94 186.136C186.649 186.532 181.704 188.914 178.097 192.804C174.49 196.694 172.487 201.804 172.491 207.11C172.475 211.871 174.094 216.494 177.077 220.205C179.988 223.853 184.026 226.433 188.559 227.543C188.877 227.622 189.155 227.815 189.342 228.085C189.528 228.355 189.609 228.683 189.571 229.009C189.532 229.335 189.376 229.635 189.132 229.854C188.887 230.072 188.572 230.194 188.244 230.197V230.194Z" fill="#926C03"/>
<path d="M211.569 280.431C211.443 280.431 211.317 280.42 211.194 280.397C210.933 280.349 210.684 280.25 210.461 280.105C210.239 279.961 210.048 279.774 209.898 279.554C209.748 279.335 209.644 279.089 209.59 278.829C209.537 278.569 209.535 278.301 209.586 278.041L224.84 197.007C224.896 196.701 225.023 196.412 225.211 196.163C225.398 195.914 225.641 195.712 225.92 195.574L262.238 177.471C262.475 177.353 262.733 177.282 262.997 177.264C263.261 177.245 263.526 177.279 263.778 177.363C264.029 177.447 264.261 177.579 264.461 177.753C264.661 177.927 264.824 178.138 264.942 178.375C265.061 178.612 265.131 178.87 265.15 179.134C265.168 179.398 265.134 179.663 265.05 179.915C264.966 180.166 264.834 180.398 264.66 180.598C264.486 180.797 264.275 180.961 264.038 181.079L228.617 198.738L213.558 278.786C213.473 279.251 213.227 279.67 212.863 279.971C212.5 280.272 212.041 280.435 211.569 280.431Z" fill="#926C03"/>
<path d="M256.102 234.422H197.866C197.684 234.431 197.502 234.402 197.332 234.338C197.161 234.274 197.005 234.177 196.873 234.051C196.742 233.925 196.637 233.774 196.565 233.606C196.493 233.439 196.457 233.259 196.457 233.077C196.457 232.894 196.493 232.714 196.565 232.547C196.637 232.379 196.742 232.228 196.873 232.102C197.005 231.977 197.161 231.879 197.332 231.815C197.502 231.751 197.684 231.723 197.866 231.731H256.102C256.448 231.747 256.775 231.896 257.014 232.146C257.253 232.397 257.387 232.73 257.387 233.077C257.387 233.423 257.253 233.756 257.014 234.007C256.775 234.258 256.448 234.406 256.102 234.422Z" fill="#926C03"/>
<path d="M124.952 281.021C124.31 281.021 123.318 281.058 123.1 281.05C122.765 281.024 122.318 280.838 122.002 280.156L119.815 275.409L139.939 266.114C140.108 266.053 140.294 266.058 140.459 266.128C140.625 266.198 140.757 266.328 140.831 266.492L143.387 272.024H141.521C141.2 272.024 140.725 271.855 140.409 271.164L139.615 269.444C139.588 269.376 139.546 269.314 139.493 269.263C139.44 269.212 139.377 269.172 139.308 269.147C139.239 269.121 139.166 269.11 139.092 269.114C139.019 269.119 138.947 269.138 138.882 269.172L132.725 272.015L134.201 275.211C133.559 275.211 132.539 275.263 132.321 275.257C131.985 275.231 131.553 275.074 131.237 274.397L130.827 273.509C130.762 273.379 130.649 273.278 130.512 273.228C130.376 273.178 130.225 273.182 130.091 273.239L122.902 276.561L124.952 281.021Z" fill="#926C03"/>
<path d="M132.57 297.694L131.963 296.808C131.243 295.756 131.963 295.026 132.289 294.687L140.183 286.249L129.661 293.443L128.337 291.506L147.171 278.628L147.779 279.514C148.515 280.591 148.131 281.13 147.667 281.606L139.234 290.293L150.08 282.879L151.404 284.816L132.57 297.694Z" fill="#926C03"/>
<path d="M159.788 294.514C159.881 294.596 159.956 294.697 160.007 294.811C160.058 294.924 160.085 295.047 160.085 295.171C160.085 295.296 160.058 295.419 160.007 295.532C159.956 295.646 159.881 295.747 159.788 295.829L145.818 309.045C145.273 309.562 144.548 309.844 143.798 309.832C143.048 309.82 142.332 309.514 141.805 308.979L141.782 309.002L140.773 307.936C140.517 307.66 140.318 307.336 140.188 306.982C140.057 306.629 139.997 306.253 140.012 305.877C140.027 305.501 140.115 305.131 140.273 304.789C140.431 304.447 140.654 304.139 140.931 303.883L141.263 303.571C141.808 303.055 142.292 303.046 142.61 303.193C142.794 303.244 143.682 303.614 144.276 303.86L142.785 305.271C142.667 305.382 142.572 305.516 142.506 305.665C142.439 305.813 142.403 305.973 142.398 306.136C142.394 306.299 142.421 306.461 142.479 306.613C142.537 306.765 142.625 306.904 142.737 307.022C142.848 307.14 142.982 307.235 143.131 307.301C143.279 307.368 143.439 307.404 143.602 307.409C143.765 307.413 143.927 307.386 144.079 307.328C144.231 307.27 144.37 307.182 144.488 307.071L158.83 293.496L159.788 294.514Z" fill="#926C03"/>
<path d="M170.396 303.498C170.973 303.98 171.344 304.664 171.432 305.41C171.52 306.157 171.318 306.909 170.869 307.511L160.195 321.389C159.725 321.973 159.049 322.355 158.306 322.456C157.563 322.558 156.809 322.371 156.2 321.934L154.767 320.839C154.163 320.369 153.765 319.682 153.658 318.924C153.551 318.166 153.743 317.397 154.193 316.778L164.881 302.925C165.117 302.622 165.409 302.369 165.742 302.179C166.076 301.99 166.443 301.868 166.824 301.82C167.204 301.773 167.59 301.801 167.96 301.903C168.329 302.005 168.675 302.179 168.977 302.415L170.396 303.498ZM156.839 319.836C156.97 319.936 157.12 320.009 157.28 320.051C157.44 320.092 157.607 320.102 157.77 320.078C157.934 320.055 158.091 319.999 158.233 319.914C158.375 319.829 158.498 319.717 158.596 319.584L168.731 306.399C168.835 306.27 168.911 306.122 168.957 305.963C169.003 305.804 169.017 305.637 168.998 305.473C168.978 305.309 168.927 305.15 168.845 305.006C168.764 304.861 168.655 304.735 168.524 304.633L168.238 304.416C167.968 304.225 167.636 304.144 167.309 304.191C166.982 304.238 166.686 304.409 166.481 304.668L156.346 317.852C156.147 318.117 156.058 318.447 156.097 318.775C156.135 319.103 156.298 319.404 156.552 319.615L156.839 319.836Z" fill="#926C03"/>
<path d="M176.553 323.419L172.03 331.756L170.568 330.965C170.412 330.876 170.295 330.73 170.242 330.558C170.188 330.385 170.203 330.199 170.282 330.037L174.478 322.298L178.373 309.242L179.889 310.068C180.061 310.172 180.187 310.338 180.24 310.532C180.293 310.726 180.27 310.933 180.176 311.111L177.376 319.423L182.822 312.544C182.92 312.369 183.081 312.237 183.272 312.176C183.464 312.115 183.672 312.129 183.853 312.214L185.372 313.037L176.553 323.419Z" fill="#926C03"/>
<path d="M211.417 341.986C211.062 342.519 210.523 343.354 210.394 343.531C210.182 343.792 209.775 344.053 209.036 343.927L203.896 343.053L207.623 321.206C207.667 321.032 207.777 320.881 207.928 320.785C208.08 320.688 208.263 320.652 208.439 320.685L214.459 321.711L213.401 323.25C213.223 323.516 212.81 323.823 212.071 323.683L210.208 323.364C210.136 323.349 210.061 323.348 209.989 323.363C209.917 323.378 209.849 323.407 209.788 323.45C209.728 323.493 209.678 323.547 209.64 323.61C209.602 323.674 209.578 323.744 209.569 323.817L208.422 330.501L211.89 331.095C211.535 331.628 210.99 332.493 210.861 332.671C210.649 332.932 210.274 333.199 209.534 333.072L208.571 332.906C208.427 332.886 208.281 332.922 208.162 333.006C208.044 333.09 207.961 333.217 207.932 333.359L206.596 341.167L211.417 341.986Z" fill="#926C03"/>
<path d="M226.663 345.173H225.654H225.49C224.315 345.153 224.143 343.74 224.115 343.554L221.2 322.267L222.991 322.295C223.154 322.295 223.544 322.433 223.662 323.187L225.614 337.518L228.173 322.367L230.521 322.404L226.663 345.173Z" fill="#926C03"/>
<path d="M248.513 340.758C248.346 341.377 248.103 342.34 248.034 342.549C247.919 342.865 247.615 343.24 246.887 343.358L241.728 344.169L238.289 322.271C238.277 322.092 238.332 321.914 238.445 321.774C238.558 321.634 238.719 321.541 238.896 321.514L244.915 320.568L244.408 322.365C244.325 322.675 244.027 323.085 243.285 323.2L241.419 323.486C241.345 323.494 241.275 323.518 241.211 323.555C241.147 323.592 241.092 323.641 241.048 323.701C241.005 323.761 240.974 323.829 240.958 323.901C240.943 323.973 240.942 324.047 240.957 324.12L242.009 330.818L245.486 330.271C245.32 330.89 245.082 331.884 245.016 332.093C244.898 332.409 244.629 332.781 243.886 332.899L242.921 333.051C242.778 333.078 242.65 333.159 242.565 333.276C242.479 333.394 242.441 333.54 242.459 333.684L243.692 341.509L248.513 340.758Z" fill="#926C03"/>
<path d="M264.202 338.783L261.547 330.872C261.192 329.82 260.521 329.668 259.937 329.866L258.761 330.259L261.883 339.56L259.659 340.308L252.398 318.688L256.446 317.329C256.803 317.209 257.18 317.161 257.556 317.186C257.931 317.212 258.298 317.312 258.636 317.479C258.973 317.647 259.274 317.88 259.521 318.164C259.768 318.448 259.957 318.778 260.077 319.135L262.318 325.81C262.318 325.81 262.983 327.479 262.158 327.995C263.17 328.138 263.646 329.766 263.646 329.766L266.426 338.046L264.202 338.783ZM259.232 327.762C259.805 327.567 260.292 327.132 259.96 326.143L258.002 320.333C257.732 319.531 257.073 319.407 256.486 319.605L255.311 320.001L258.056 328.146L259.232 327.762Z" fill="#926C03"/>
<path d="M276.633 322.989L281.044 331.387L279.574 332.161C279.412 332.239 279.226 332.252 279.055 332.199C278.883 332.146 278.738 332.03 278.648 331.874L274.555 324.084L265.873 313.582L267.404 312.78C267.586 312.695 267.794 312.684 267.985 312.748C268.176 312.812 268.335 312.946 268.43 313.124L273.767 320.071L271.078 311.725C270.985 311.547 270.963 311.341 271.016 311.148C271.07 310.955 271.194 310.789 271.365 310.684L272.895 309.882L276.633 322.989Z" fill="#926C03"/>
<path d="M298.47 296.647L296.561 294.824C296.444 294.711 296.305 294.622 296.153 294.563C296.002 294.503 295.84 294.474 295.677 294.478C295.514 294.481 295.353 294.516 295.204 294.581C295.055 294.647 294.92 294.741 294.807 294.858C294.694 294.976 294.605 295.114 294.546 295.266C294.487 295.418 294.458 295.579 294.461 295.742C294.464 295.905 294.499 296.066 294.565 296.215C294.63 296.364 294.724 296.499 294.841 296.612L296.418 298.123C297.384 299.046 299.333 299.51 299.333 299.51L305.085 301.132C307.378 301.751 308.422 302.881 308.422 302.881L310.52 304.887C310.795 305.153 311.016 305.471 311.168 305.823C311.321 306.174 311.403 306.552 311.409 306.935C311.415 307.318 311.346 307.699 311.205 308.055C311.065 308.411 310.855 308.736 310.588 309.012L309.574 310.072C309.031 310.594 308.309 310.89 307.555 310.899C306.801 310.907 306.073 310.628 305.518 310.118L303.821 308.496C303.624 308.338 303.475 308.127 303.392 307.888C303.31 307.649 303.296 307.392 303.354 307.146C303.44 306.959 303.787 305.985 304.005 305.38L306.871 308.129C306.99 308.24 307.13 308.326 307.282 308.383C307.435 308.44 307.597 308.466 307.76 308.46C307.922 308.454 308.082 308.416 308.23 308.349C308.378 308.281 308.511 308.185 308.622 308.066C308.733 307.947 308.819 307.807 308.876 307.654C308.933 307.502 308.959 307.34 308.953 307.177C308.947 307.014 308.91 306.855 308.842 306.707C308.774 306.559 308.678 306.425 308.559 306.314L306.676 304.512C305.707 303.589 303.738 303.101 303.738 303.101L298.006 301.502C295.713 300.886 294.669 299.754 294.669 299.754L292.973 298.134C291.826 297.028 291.683 295.096 292.809 293.918L293.821 292.858C294.927 291.748 296.842 291.82 297.974 292.903L298.61 293.511C298.808 293.669 298.956 293.88 299.039 294.118C299.122 294.357 299.135 294.615 299.078 294.861C299.035 295.067 298.702 296.019 298.47 296.647Z" fill="#926C03"/>
<path d="M302.503 282.576C302.568 282.471 302.655 282.381 302.757 282.311C302.859 282.241 302.974 282.193 303.095 282.17C303.217 282.147 303.341 282.149 303.462 282.177C303.582 282.204 303.696 282.256 303.795 282.329L321.706 294.941L320.752 296.299C320.431 296.752 320.11 296.646 319.958 296.586L301.697 283.722L302.503 282.576Z" fill="#926C03"/>
<path d="M310.042 269.733C310.384 269.042 310.982 268.512 311.709 268.255C312.436 267.998 313.234 268.035 313.934 268.358L319.214 270.992C321.197 271.98 322.146 273.654 321.143 275.669L320.518 276.922L329.675 281.491L328.936 282.978C328.687 283.474 328.363 283.417 328.205 283.342L308.225 273.379L310.042 269.733ZM313.309 270.559C313.021 270.451 312.704 270.455 312.418 270.569C312.132 270.683 311.899 270.899 311.764 271.175L311.211 272.281L318.563 275.947L319.116 274.838C319.254 274.564 319.286 274.248 319.204 273.952C319.123 273.656 318.934 273.401 318.675 273.236L313.309 270.559Z" fill="#926C03"/>
<path d="M125.37 176.747C121.755 173.952 120.075 176.238 119.061 175.387C118.501 174.917 119.088 174.217 119.088 174.217L121.407 171.454C126.397 165.508 142.799 169.973 151.337 172.727L138.081 161.602C134.466 158.806 132.786 161.092 131.771 160.241C131.212 159.771 131.799 159.072 131.799 159.072L135.468 154.7C135.85 154.245 136.23 154.147 136.615 154.47C137.629 155.321 135.669 157.372 139.05 160.448L153.67 172.718C157.286 175.513 158.966 173.227 159.98 174.079C160.54 174.548 159.953 175.248 159.953 175.248L155.52 180.53C155.021 181.124 154.226 180.934 152.762 180.122C149.354 178.216 128.868 173.006 126.549 175.769L140.96 187.863C144.575 190.659 146.255 188.373 147.269 189.224C147.829 189.694 147.242 190.393 147.242 190.393L143.573 194.766C143.191 195.22 142.811 195.318 142.426 194.996C141.412 194.144 143.371 192.093 139.991 189.018L125.37 176.747Z" fill="#926C03"/>
<path d="M167.363 133.612C165.324 130.471 163.68 130.287 163.108 129.406C162.536 128.525 163.608 127.829 163.608 127.829L168.701 124.521C169.774 123.825 170.346 124.706 170.346 124.706C170.918 125.587 170.417 127.164 172.457 130.304L182.355 145.546C184.394 148.686 186.039 148.871 186.611 149.752C187.183 150.633 186.11 151.329 186.11 151.329L181.017 154.637C179.945 155.333 179.373 154.452 179.373 154.452C178.801 153.571 179.301 151.994 177.262 148.854L167.363 133.612Z" fill="#926C03"/>
<path d="M217.043 118.052C217.043 114.308 215.765 113.258 215.765 112.207C215.765 111.523 216.176 111.157 217.043 111.157H223.116C224.395 111.157 224.395 112.207 224.395 112.207C224.395 113.258 223.116 114.308 223.116 118.052V125.085C227.911 123.212 230.697 118.326 231.473 113.806C231.564 113.029 230.788 112.39 230.788 111.934C230.788 111.431 231.29 111.157 232.34 111.157H235.537C237.089 111.157 237.089 111.934 237.089 111.934C237.089 112.527 236.587 112.755 236.268 113.532C234.989 118.326 231.245 123.349 225.902 125.815C232.706 127.094 235.08 137.505 235.811 139.286C236.359 140.656 237.592 140.838 237.592 142.071C237.592 142.893 236.953 143.122 236.222 143.122H230.468C229.692 143.122 229.327 142.391 229.007 140.747C228.276 136.911 226.45 127.733 223.116 127.733V136.226C223.116 139.971 224.395 141.021 224.395 142.071C224.395 142.756 223.984 143.122 223.116 143.122H217.043C215.765 143.122 215.765 142.071 215.765 142.071C215.765 141.021 217.043 139.971 217.043 136.226V118.052Z" fill="#926C03"/>
<path d="M270.343 153.343C262.291 148.114 261.482 139.857 266.78 131.7C272.077 123.543 279.948 120.923 288.001 126.152C296.054 131.382 296.862 139.638 291.565 147.796C286.267 155.953 278.396 158.572 270.343 153.343ZM274.466 136.691C269.169 144.849 269.268 150.191 271.464 151.617C273.66 153.044 278.581 150.961 283.878 142.804C289.176 134.647 289.077 129.304 286.88 127.878C284.684 126.452 279.763 128.534 274.466 136.691Z" fill="#926C03"/>
<path d="M318.001 166.359C320.869 163.952 320.852 162.297 321.656 161.622C322.461 160.947 323.283 161.927 323.283 161.927L327.187 166.579C328.008 167.559 327.204 168.234 327.204 168.234C326.399 168.909 324.773 168.604 321.905 171.011L307.982 182.693C305.114 185.1 305.131 186.755 304.327 187.43C303.522 188.105 302.7 187.125 302.7 187.125L298.797 182.473C297.975 181.494 298.779 180.819 298.779 180.819C299.584 180.143 301.21 180.448 304.079 178.041L318.001 166.359Z" fill="#926C03"/>
</g>
</g>
<g clip-path="url(#clip3_97_2)">
<path d="M1187.24 758.418C1150.74 758.418 1116.44 744.208 1090.62 718.4C1064.81 692.593 1050.61 658.284 1050.61 621.788C1050.61 585.293 1064.82 550.993 1090.62 525.174C1116.43 499.355 1150.74 485.158 1187.24 485.158C1223.73 485.158 1258.03 499.369 1283.85 525.174C1309.67 550.978 1323.87 585.293 1323.87 621.788C1323.87 658.284 1309.66 692.584 1283.85 718.4C1258.04 744.216 1223.73 758.418 1187.24 758.418ZM1187.24 490.114C1152.07 490.114 1119 503.812 1094.13 528.682C1069.26 553.552 1055.56 586.617 1055.56 621.788C1055.56 656.96 1069.26 690.025 1094.13 714.895C1119 739.765 1152.07 753.46 1187.24 753.46C1222.41 753.46 1255.48 739.765 1280.35 714.895C1305.22 690.025 1318.91 656.96 1318.91 621.788C1318.91 586.617 1305.22 553.552 1280.35 528.682C1255.48 503.812 1222.41 490.114 1187.24 490.114Z" fill="#926C03"/>
<path d="M1090.39 616.466H1079.74V627.114H1090.39V616.466Z" fill="#926C03"/>
<path d="M1294.75 616.466H1284.1V627.114H1294.75V616.466Z" fill="#926C03"/>
<path d="M1205.48 675.747H1171.25C1170.71 675.747 1170.18 675.566 1169.74 675.231C1169.31 674.896 1169 674.427 1168.87 673.898L1150.52 602.962C1150.43 602.597 1150.42 602.216 1150.5 601.847C1150.57 601.478 1150.73 601.131 1150.96 600.833C1151.19 600.535 1151.49 600.294 1151.83 600.128C1152.16 599.962 1152.54 599.875 1152.91 599.875H1222.85C1223.22 599.875 1223.59 599.96 1223.93 600.124C1224.26 600.288 1224.56 600.526 1224.79 600.82C1225.02 601.114 1225.18 601.457 1225.26 601.823C1225.34 602.188 1225.34 602.567 1225.25 602.93L1207.88 673.867C1207.74 674.403 1207.44 674.879 1207 675.22C1206.57 675.561 1206.03 675.747 1205.48 675.747ZM1173.17 670.814H1203.55L1219.7 604.811H1156.09L1173.17 670.814Z" fill="#926C03"/>
<path d="M1149.3 622.72C1149.19 622.72 1149.08 622.707 1148.98 622.682C1143.86 621.433 1139.3 618.523 1136.01 614.408C1132.65 610.219 1130.83 605.005 1130.85 599.635C1130.86 593.656 1133.12 587.9 1137.19 583.52C1141.26 579.139 1146.83 576.457 1152.8 576.011C1158.76 575.566 1164.67 577.389 1169.34 581.116C1174.02 584.843 1177.11 590.198 1178.01 596.11C1178.03 596.284 1178.02 596.462 1177.98 596.634C1177.94 596.805 1177.86 596.966 1177.76 597.108C1177.65 597.25 1177.52 597.37 1177.37 597.46C1177.22 597.551 1177.05 597.611 1176.87 597.637C1176.7 597.663 1176.52 597.655 1176.35 597.612C1176.18 597.569 1176.02 597.493 1175.88 597.388C1175.73 597.282 1175.61 597.15 1175.52 596.999C1175.43 596.848 1175.37 596.68 1175.35 596.505C1174.56 591.259 1171.82 586.503 1167.67 583.194C1163.53 579.884 1158.28 578.265 1152.99 578.661C1147.7 579.057 1142.76 581.439 1139.15 585.329C1135.54 589.219 1133.54 594.33 1133.54 599.635C1133.53 604.397 1135.15 609.019 1138.13 612.731C1141.04 616.378 1145.08 618.959 1149.61 620.068C1149.93 620.148 1150.21 620.34 1150.39 620.61C1150.58 620.88 1150.66 621.209 1150.62 621.534C1150.58 621.86 1150.43 622.16 1150.18 622.379C1149.94 622.598 1149.62 622.72 1149.3 622.722V622.72Z" fill="#926C03"/>
<path d="M1172.62 672.957C1172.5 672.957 1172.37 672.945 1172.25 672.922C1171.98 672.875 1171.74 672.775 1171.51 672.631C1171.29 672.486 1171.1 672.299 1170.95 672.08C1170.8 671.861 1170.7 671.614 1170.64 671.354C1170.59 671.095 1170.59 670.827 1170.64 670.566L1185.89 589.532C1185.95 589.226 1186.08 588.937 1186.26 588.688C1186.45 588.44 1186.69 588.238 1186.97 588.099L1223.29 569.996C1223.53 569.878 1223.79 569.808 1224.05 569.789C1224.31 569.771 1224.58 569.804 1224.83 569.888C1225.08 569.972 1225.31 570.105 1225.51 570.279C1225.71 570.452 1225.88 570.664 1225.99 570.9C1226.11 571.137 1226.18 571.395 1226.2 571.659C1226.22 571.924 1226.19 572.189 1226.1 572.44C1226.02 572.691 1225.89 572.923 1225.71 573.123C1225.54 573.323 1225.33 573.487 1225.09 573.605L1189.67 591.264L1174.61 671.312C1174.53 671.776 1174.28 672.196 1173.92 672.497C1173.55 672.797 1173.09 672.96 1172.62 672.957Z" fill="#926C03"/>
<path d="M1217.15 626.948H1158.92C1158.74 626.956 1158.55 626.928 1158.38 626.864C1158.21 626.8 1158.06 626.702 1157.93 626.576C1157.79 626.451 1157.69 626.299 1157.62 626.132C1157.55 625.964 1157.51 625.784 1157.51 625.602C1157.51 625.42 1157.55 625.24 1157.62 625.072C1157.69 624.905 1157.79 624.754 1157.93 624.628C1158.06 624.502 1158.21 624.404 1158.38 624.34C1158.55 624.277 1158.74 624.248 1158.92 624.256H1217.15C1217.5 624.272 1217.83 624.421 1218.07 624.672C1218.3 624.922 1218.44 625.255 1218.44 625.602C1218.44 625.949 1218.3 626.282 1218.07 626.532C1217.83 626.783 1217.5 626.932 1217.15 626.948Z" fill="#926C03"/>
<path d="M1086 673.547C1085.36 673.547 1084.37 673.584 1084.15 673.575C1083.82 673.549 1083.37 673.363 1083.05 672.681L1080.87 667.934L1100.99 658.639C1101.16 658.578 1101.35 658.583 1101.51 658.653C1101.68 658.723 1101.81 658.854 1101.88 659.018L1104.44 664.549H1102.57C1102.25 664.549 1101.78 664.38 1101.46 663.69L1100.67 661.97C1100.64 661.902 1100.6 661.84 1100.55 661.789C1100.49 661.737 1100.43 661.698 1100.36 661.672C1100.29 661.646 1100.22 661.635 1100.14 661.64C1100.07 661.644 1100 661.664 1099.93 661.698L1093.78 664.541L1095.25 667.737C1094.61 667.737 1093.59 667.788 1093.37 667.783C1093.04 667.757 1092.6 667.599 1092.29 666.923L1091.88 666.034C1091.81 665.904 1091.7 665.804 1091.56 665.754C1091.43 665.704 1091.28 665.708 1091.14 665.765L1083.95 669.087L1086 673.547Z" fill="#926C03"/>
<path d="M1093.62 690.219L1093.01 689.334C1092.3 688.282 1093.01 687.551 1093.34 687.213L1101.24 678.775L1090.71 685.969L1089.39 684.031L1108.22 671.153L1108.83 672.039C1109.57 673.117 1109.18 673.656 1108.72 674.131L1100.29 682.819L1111.13 675.404L1112.46 677.342L1093.62 690.219Z" fill="#926C03"/>
<path d="M1120.84 687.039C1120.93 687.121 1121.01 687.223 1121.06 687.336C1121.11 687.449 1121.14 687.572 1121.14 687.697C1121.14 687.821 1121.11 687.944 1121.06 688.058C1121.01 688.171 1120.93 688.272 1120.84 688.355L1106.87 701.571C1106.33 702.087 1105.6 702.37 1104.85 702.357C1104.1 702.345 1103.38 702.039 1102.86 701.505L1102.83 701.528L1101.83 700.462C1101.57 700.185 1101.37 699.861 1101.24 699.508C1101.11 699.154 1101.05 698.779 1101.06 698.402C1101.08 698.026 1101.17 697.656 1101.33 697.314C1101.48 696.972 1101.71 696.664 1101.98 696.409L1102.32 696.096C1102.86 695.58 1103.34 695.572 1103.66 695.718C1103.85 695.77 1104.73 696.139 1105.33 696.386L1103.84 697.796C1103.72 697.908 1103.62 698.042 1103.56 698.19C1103.49 698.339 1103.46 698.499 1103.45 698.661C1103.45 698.824 1103.47 698.986 1103.53 699.138C1103.59 699.29 1103.68 699.429 1103.79 699.547C1103.9 699.665 1104.03 699.76 1104.18 699.827C1104.33 699.893 1104.49 699.93 1104.65 699.934C1104.82 699.939 1104.98 699.911 1105.13 699.853C1105.28 699.795 1105.42 699.708 1105.54 699.596L1119.88 686.021L1120.84 687.039Z" fill="#926C03"/>
<path d="M1131.45 696.024C1132.03 696.505 1132.4 697.189 1132.48 697.936C1132.57 698.682 1132.37 699.434 1131.92 700.036L1121.25 713.915C1120.78 714.499 1120.1 714.881 1119.36 714.982C1118.61 715.083 1117.86 714.896 1117.25 714.459L1115.82 713.364C1115.21 712.894 1114.82 712.207 1114.71 711.45C1114.6 710.692 1114.79 709.922 1115.25 709.303L1125.93 695.45C1126.17 695.148 1126.46 694.894 1126.79 694.705C1127.13 694.515 1127.49 694.393 1127.88 694.346C1128.26 694.298 1128.64 694.326 1129.01 694.428C1129.38 694.53 1129.73 694.704 1130.03 694.94L1131.45 696.024ZM1117.89 712.361C1118.02 712.461 1118.17 712.534 1118.33 712.576C1118.49 712.618 1118.66 712.627 1118.82 712.604C1118.99 712.58 1119.14 712.524 1119.28 712.439C1119.43 712.354 1119.55 712.242 1119.65 712.109L1129.78 698.924C1129.89 698.795 1129.96 698.647 1130.01 698.488C1130.05 698.329 1130.07 698.163 1130.05 697.998C1130.03 697.834 1129.98 697.675 1129.9 697.531C1129.82 697.387 1129.71 697.26 1129.58 697.159L1129.29 696.941C1129.02 696.75 1128.69 696.67 1128.36 696.717C1128.03 696.764 1127.74 696.934 1127.53 697.193L1117.4 710.378C1117.2 710.642 1117.11 710.972 1117.15 711.3C1117.19 711.629 1117.35 711.929 1117.6 712.14L1117.89 712.361Z" fill="#926C03"/>
<path d="M1137.6 715.944L1133.08 724.282L1131.62 723.491C1131.46 723.401 1131.35 723.255 1131.29 723.083C1131.24 722.911 1131.25 722.724 1131.33 722.562L1135.53 714.823L1139.42 701.768L1140.94 702.593C1141.11 702.698 1141.24 702.864 1141.29 703.058C1141.34 703.252 1141.32 703.459 1141.23 703.636L1138.43 711.948L1143.87 705.069C1143.97 704.894 1144.13 704.763 1144.32 704.701C1144.52 704.64 1144.72 704.654 1144.9 704.74L1146.42 705.562L1137.6 715.944Z" fill="#926C03"/>
<path d="M1172.47 734.512C1172.11 735.045 1171.57 735.879 1171.45 736.057C1171.23 736.317 1170.83 736.578 1170.09 736.452L1164.95 735.578L1168.67 713.732C1168.72 713.557 1168.83 713.407 1168.98 713.31C1169.13 713.213 1169.31 713.177 1169.49 713.21L1175.51 714.236L1174.45 715.775C1174.27 716.042 1173.86 716.348 1173.12 716.208L1171.26 715.89C1171.19 715.874 1171.11 715.874 1171.04 715.888C1170.97 715.903 1170.9 715.933 1170.84 715.975C1170.78 716.018 1170.73 716.073 1170.69 716.136C1170.65 716.199 1170.63 716.27 1170.62 716.343L1169.47 723.027L1172.94 723.62C1172.59 724.153 1172.04 725.019 1171.91 725.197C1171.7 725.457 1171.33 725.724 1170.59 725.598L1169.62 725.432C1169.48 725.412 1169.33 725.448 1169.21 725.532C1169.1 725.616 1169.01 725.742 1168.98 725.884L1167.65 733.692L1172.47 734.512Z" fill="#926C03"/>
<path d="M1187.71 737.699H1186.71H1186.54C1185.37 737.679 1185.2 736.266 1185.17 736.079L1182.25 714.792L1184.04 714.821C1184.21 714.821 1184.6 714.958 1184.71 715.712L1186.67 730.043L1189.23 714.892L1191.57 714.93L1187.71 737.699Z" fill="#926C03"/>
<path d="M1209.56 733.283C1209.4 733.903 1209.15 734.866 1209.09 735.075C1208.97 735.39 1208.67 735.766 1207.94 735.883L1202.78 736.694L1199.34 714.796C1199.33 714.617 1199.38 714.44 1199.5 714.299C1199.61 714.159 1199.77 714.067 1199.95 714.04L1205.97 713.094L1205.46 714.891C1205.38 715.2 1205.08 715.61 1204.34 715.725L1202.47 716.012C1202.4 716.02 1202.33 716.043 1202.26 716.08C1202.2 716.117 1202.14 716.167 1202.1 716.226C1202.06 716.286 1202.03 716.354 1202.01 716.426C1201.99 716.498 1201.99 716.573 1202.01 716.645L1203.06 723.343L1206.54 722.796C1206.37 723.415 1206.13 724.41 1206.07 724.619C1205.95 724.934 1205.68 725.307 1204.94 725.424L1203.97 725.576C1203.83 725.603 1203.7 725.684 1203.62 725.802C1203.53 725.919 1203.49 726.065 1203.51 726.21L1204.74 734.034L1209.56 733.283Z" fill="#926C03"/>
<path d="M1225.25 731.31L1222.6 723.4C1222.24 722.348 1221.57 722.196 1220.99 722.394L1219.81 722.786L1222.93 732.087L1220.71 732.835L1213.45 711.215L1217.5 709.857C1217.85 709.737 1218.23 709.688 1218.61 709.714C1218.98 709.74 1219.35 709.839 1219.69 710.007C1220.02 710.175 1220.33 710.407 1220.57 710.691C1220.82 710.975 1221.01 711.305 1221.13 711.662L1223.37 718.338C1223.37 718.338 1224.04 720.006 1223.21 720.522C1224.22 720.665 1224.7 722.293 1224.7 722.293L1227.48 730.574L1225.25 731.31ZM1220.28 720.29C1220.86 720.095 1221.34 719.659 1221.01 718.67L1219.05 712.86C1218.78 712.058 1218.13 711.935 1217.54 712.132L1216.36 712.528L1219.11 720.674L1220.28 720.29Z" fill="#926C03"/>
<path d="M1237.68 715.514L1242.1 723.913L1240.63 724.686C1240.46 724.764 1240.28 724.777 1240.11 724.724C1239.93 724.671 1239.79 724.555 1239.7 724.4L1235.61 716.609L1226.92 706.108L1228.46 705.305C1228.64 705.221 1228.85 705.209 1229.04 705.273C1229.23 705.337 1229.39 705.471 1229.48 705.649L1234.82 712.597L1232.13 704.25C1232.04 704.073 1232.02 703.867 1232.07 703.674C1232.12 703.48 1232.25 703.315 1232.42 703.21L1233.95 702.407L1237.68 715.514Z" fill="#926C03"/>
<path d="M1259.52 689.172L1257.61 687.349C1257.5 687.236 1257.36 687.148 1257.21 687.088C1257.05 687.029 1256.89 687 1256.73 687.003C1256.57 687.006 1256.41 687.041 1256.26 687.107C1256.11 687.172 1255.97 687.266 1255.86 687.384C1255.75 687.501 1255.66 687.64 1255.6 687.791C1255.54 687.943 1255.51 688.105 1255.51 688.268C1255.52 688.431 1255.55 688.591 1255.62 688.741C1255.68 688.89 1255.78 689.025 1255.89 689.138L1257.47 690.648C1258.44 691.571 1260.38 692.035 1260.38 692.035L1266.14 693.658C1268.43 694.277 1269.47 695.406 1269.47 695.406L1271.57 697.412C1271.85 697.679 1272.07 697.997 1272.22 698.348C1272.37 698.699 1272.45 699.077 1272.46 699.46C1272.47 699.844 1272.4 700.224 1272.26 700.58C1272.12 700.937 1271.91 701.262 1271.64 701.537L1270.63 702.597C1270.08 703.12 1269.36 703.415 1268.61 703.424C1267.85 703.432 1267.13 703.153 1266.57 702.643L1264.87 701.021C1264.68 700.863 1264.53 700.652 1264.44 700.414C1264.36 700.175 1264.35 699.917 1264.41 699.671C1264.49 699.485 1264.84 698.51 1265.06 697.905L1267.92 700.654C1268.04 700.765 1268.18 700.851 1268.33 700.908C1268.49 700.965 1268.65 700.991 1268.81 700.985C1268.97 700.979 1269.13 700.942 1269.28 700.874C1269.43 700.806 1269.56 700.71 1269.67 700.591C1269.79 700.472 1269.87 700.332 1269.93 700.18C1269.99 700.027 1270.01 699.865 1270.01 699.702C1270 699.54 1269.96 699.38 1269.89 699.232C1269.83 699.084 1269.73 698.951 1269.61 698.84L1267.73 697.037C1266.76 696.114 1264.79 695.627 1264.79 695.627L1259.06 694.027C1256.76 693.411 1255.72 692.279 1255.72 692.279L1254.02 690.66C1252.88 689.553 1252.74 687.621 1253.86 686.443L1254.87 685.383C1255.98 684.274 1257.89 684.345 1259.03 685.429L1259.66 686.036C1259.86 686.194 1260.01 686.405 1260.09 686.644C1260.17 686.883 1260.19 687.14 1260.13 687.386C1260.09 687.593 1259.75 688.544 1259.52 689.172Z" fill="#926C03"/>
<path d="M1263.55 675.1C1263.62 674.995 1263.71 674.905 1263.81 674.835C1263.91 674.766 1264.03 674.718 1264.15 674.695C1264.27 674.671 1264.39 674.674 1264.51 674.701C1264.63 674.728 1264.75 674.78 1264.85 674.854L1282.76 687.465L1281.8 688.824C1281.48 689.276 1281.16 689.17 1281.01 689.11L1262.75 676.247L1263.55 675.1Z" fill="#926C03"/>
<path d="M1271.09 662.259C1271.44 661.568 1272.03 661.037 1272.76 660.781C1273.49 660.524 1274.29 660.56 1274.99 660.883L1280.27 663.517C1282.25 664.506 1283.2 666.18 1282.19 668.195L1281.57 669.447L1290.73 674.016L1289.99 675.504C1289.74 675.999 1289.41 675.942 1289.26 675.868L1269.28 665.905L1271.09 662.259ZM1274.36 663.084C1274.07 662.977 1273.76 662.98 1273.47 663.094C1273.18 663.208 1272.95 663.424 1272.82 663.7L1272.26 664.807L1279.61 668.473L1280.17 667.363C1280.31 667.089 1280.34 666.773 1280.26 666.477C1280.17 666.181 1279.99 665.926 1279.73 665.761L1274.36 663.084Z" fill="#926C03"/>
<path d="M1086.42 569.274C1082.81 566.478 1081.13 568.764 1080.11 567.913C1079.55 567.443 1080.14 566.744 1080.14 566.744L1082.46 563.981C1087.45 558.034 1103.85 562.5 1112.39 565.254L1099.13 554.128C1095.52 551.333 1093.84 553.619 1092.82 552.768C1092.26 552.298 1092.85 551.598 1092.85 551.598L1096.52 547.226C1096.9 546.771 1097.28 546.673 1097.67 546.996C1098.68 547.847 1096.72 549.899 1100.1 552.974L1114.72 565.244C1118.34 568.04 1120.02 565.754 1121.03 566.605C1121.59 567.075 1121 567.774 1121 567.774L1116.57 573.056C1116.07 573.651 1115.28 573.461 1113.81 572.649C1110.41 570.743 1089.92 565.532 1087.6 568.296L1102.01 580.39C1105.63 583.185 1107.31 580.899 1108.32 581.751C1108.88 582.22 1108.29 582.92 1108.29 582.92L1104.62 587.292C1104.24 587.747 1103.86 587.845 1103.48 587.522C1102.46 586.671 1104.42 584.619 1101.04 581.544L1086.42 569.274Z" fill="#926C03"/>
<path d="M1128.42 526.139C1126.38 522.999 1124.73 522.814 1124.16 521.934C1123.59 521.053 1124.66 520.356 1124.66 520.356L1129.75 517.049C1130.83 516.352 1131.4 517.233 1131.4 517.233C1131.97 518.114 1131.47 519.691 1133.51 522.831L1143.41 538.073C1145.45 541.214 1147.09 541.398 1147.66 542.279C1148.24 543.16 1147.16 543.856 1147.16 543.856L1142.07 547.164C1141 547.86 1140.42 546.98 1140.42 546.98C1139.85 546.099 1140.35 544.522 1138.31 541.381L1128.42 526.139Z" fill="#926C03"/>
<path d="M1178.09 510.58C1178.09 506.835 1176.82 505.785 1176.82 504.735C1176.82 504.05 1177.23 503.685 1178.09 503.685H1184.17C1185.45 503.685 1185.45 504.735 1185.45 504.735C1185.45 505.785 1184.17 506.835 1184.17 510.58V517.612C1188.96 515.74 1191.75 510.854 1192.52 506.333C1192.62 505.557 1191.84 504.917 1191.84 504.461C1191.84 503.959 1192.34 503.685 1193.39 503.685H1196.59C1198.14 503.685 1198.14 504.461 1198.14 504.461C1198.14 505.054 1197.64 505.283 1197.32 506.059C1196.04 510.854 1192.3 515.877 1186.95 518.343C1193.76 519.621 1196.13 530.032 1196.86 531.813C1197.41 533.183 1198.64 533.366 1198.64 534.599C1198.64 535.421 1198 535.649 1197.27 535.649H1191.52C1190.74 535.649 1190.38 534.918 1190.06 533.275C1189.33 529.439 1187.5 520.26 1184.17 520.26V528.754C1184.17 532.498 1185.45 533.548 1185.45 534.599C1185.45 535.284 1185.04 535.649 1184.17 535.649H1178.09C1176.82 535.649 1176.82 534.599 1176.82 534.599C1176.82 533.548 1178.09 532.498 1178.09 528.754V510.58Z" fill="#926C03"/>
<path d="M1231.4 545.87C1223.34 540.641 1222.53 532.384 1227.83 524.227C1233.13 516.07 1241 513.45 1249.05 518.68C1257.11 523.909 1257.91 532.166 1252.62 540.323C1247.32 548.48 1239.45 551.1 1231.4 545.87ZM1235.52 529.219C1230.22 537.376 1230.32 542.719 1232.52 544.145C1234.71 545.571 1239.63 543.488 1244.93 535.331C1250.23 527.174 1250.13 521.831 1247.93 520.405C1245.74 518.979 1240.82 521.062 1235.52 529.219Z" fill="#926C03"/>
<path d="M1279.05 558.885C1281.92 556.478 1281.9 554.824 1282.71 554.149C1283.51 553.474 1284.34 554.453 1284.34 554.453L1288.24 559.105C1289.06 560.085 1288.26 560.76 1288.26 560.76C1287.45 561.435 1285.83 561.131 1282.96 563.538L1269.03 575.22C1266.17 577.627 1266.18 579.281 1265.38 579.956C1264.57 580.631 1263.75 579.652 1263.75 579.652L1259.85 574.999C1259.03 574.02 1259.83 573.345 1259.83 573.345C1260.64 572.67 1262.26 572.974 1265.13 570.567L1279.05 558.885Z" fill="#926C03"/>
</g>
<path opacity="0.4" d="M628.854 316.74C633.73 316.009 636.98 314.444 637.63 311.864C637.804 310.426 637.501 308.972 636.766 307.723C636.032 306.475 634.908 305.503 633.567 304.957C630.228 303.658 626.617 303.218 623.064 303.677C623.51 299.187 619.386 293.905 615.323 291.649C611.26 289.394 603.885 288.886 599.72 292.3C598.522 284.295 593.361 280.354 585.296 277.55C581.792 276.354 578.035 276.1 574.401 276.813C570.768 277.526 567.386 279.181 564.594 281.613C559.921 272.857 545.964 267.615 531.641 273.345C525.994 275.649 521.394 279.952 518.72 285.433C517.388 288.561 516.644 291.908 516.526 295.306C514.6 293.959 512.333 293.184 509.986 293.069C507.639 292.954 505.307 293.504 503.259 294.656C501.699 295.627 500.427 296.999 499.577 298.628C498.726 300.257 498.328 302.085 498.424 303.92C495.466 304.111 492.561 304.797 489.83 305.952C486.722 307.252 483.492 310.178 484.629 313.246C485.483 315.562 488.367 316.476 490.907 316.841C495.959 317.532 501.098 317.207 506.022 315.887C510.631 318.914 516.053 320.466 521.566 320.335C527.079 320.205 532.422 318.398 536.882 315.155C538.898 316.676 541.031 318.035 543.262 319.218C545.615 320.271 548.116 320.956 550.677 321.25C555.004 321.717 561.099 320.905 564.472 318.06C564.89 317.589 565.456 317.274 566.077 317.167C566.57 317.201 567.045 317.362 567.458 317.634C570.765 319.379 574.494 320.165 578.224 319.903C581.954 319.641 585.536 318.341 588.567 316.151C592.46 319.631 597.556 321.459 602.775 321.247C607.993 321.035 612.924 318.799 616.522 315.013C620.383 316.756 624.662 317.356 628.854 316.74Z" fill="white"/>
<path opacity="0.4" d="M675.622 363.324C669.1 362.349 664.732 360.236 663.879 356.782C663.026 353.329 665.91 348.88 669.283 347.539C673.752 345.8 678.585 345.207 683.342 345.812C682.753 339.717 688.258 332.728 693.703 329.721C699.148 326.715 709.042 326.004 714.588 330.595C716.213 319.868 723.121 314.606 733.929 310.827C739.861 308.796 752.213 307.516 761.64 316.17C767.918 304.448 786.588 297.419 805.767 305.098C813.342 308.198 819.506 313.986 823.076 321.351C824.862 325.548 825.854 330.039 826.002 334.597C828.587 332.803 831.624 331.771 834.768 331.62C837.911 331.469 841.033 332.205 843.778 333.744C845.87 335.045 847.574 336.882 848.714 339.066C849.854 341.249 850.387 343.698 850.259 346.157C854.222 346.385 858.117 347.285 861.778 348.819C865.842 350.566 870.25 354.466 868.747 358.57C867.589 361.679 863.729 362.918 860.336 363.385C853.548 364.329 846.639 363.901 840.02 362.126C833.843 366.154 826.586 368.206 819.214 368.006C811.843 367.806 804.707 365.365 798.758 361.008C796.052 363.06 793.193 364.901 790.205 366.514C787.048 367.894 783.697 368.778 780.27 369.135C774.48 369.765 766.333 368.667 761.803 364.868C761.592 364.54 761.314 364.261 760.986 364.051C760.658 363.841 760.288 363.704 759.902 363.65C759.516 363.596 759.123 363.626 758.75 363.738C758.376 363.85 758.032 364.042 757.739 364.299C753.305 366.63 748.307 367.675 743.31 367.316C738.313 366.957 733.515 365.208 729.459 362.268C724.244 366.898 717.454 369.355 710.484 369.135C703.54 368.817 696.988 365.825 692.2 360.785C687.033 363.21 681.277 364.091 675.622 363.324Z" fill="white"/>
<path d="M823.691 462.442C823.691 462.442 787.453 397.241 780.054 391.374C774.424 386.921 758.594 349.747 747.12 323.749C745.735 320.603 740.438 323.185 739.175 320.275C734.887 310.417 731.406 302.229 729.614 298.013C725.97 289.418 704.85 293.385 701.4 298.013C699.626 300.394 687.107 335.473 679.138 352.073C676.574 357.413 659.755 360.826 652.849 363.566C646.167 366.214 628.266 416.673 623.085 420.335C594.439 440.593 587.357 458.706 581.659 462.381H823.691V462.442Z" fill="#37474F"/>
<path d="M759.247 462.31C759.247 462.31 694.047 438.827 685.786 435.765C682.25 434.453 660.377 398.221 658.391 396.101C655.293 392.802 645.028 389.346 639.597 383.284C638.316 381.857 630.122 371.658 629.441 370.984C627.376 368.961 619.322 369.411 615.21 369.411C610.733 369.411 576.408 422.256 572.83 426.709C569.252 431.161 549.912 447.197 543.923 448.825C537.934 450.453 521.448 462.31 521.448 462.31H759.247Z" fill="#455A64"/>
<path opacity="0.6" d="M849.213 461.952H616.396C616.396 461.952 658.915 451.772 674.526 451.772C690.136 451.772 714.579 452.13 714.579 452.13C714.579 452.13 743.273 442.314 762.061 442.314C780.848 442.314 849.213 461.952 849.213 461.952Z" fill="white"/>
<path opacity="0.8" d="M493.659 462.032H757.412C757.412 462.032 709.226 447.01 691.562 447.01C673.898 447.01 646.188 447.539 646.188 447.539C646.188 447.539 613.685 433.052 592.401 433.052C571.117 433.052 493.659 462.032 493.659 462.032Z" fill="white"/>
<rect x="0.395996" y="462.001" width="1351.26" height="159.789" fill="#95D6D8"/>
<path d="M326.419 501.37H377.178M448.426 505.267H397.668M364.482 514.054H405.474M462.09 506.248H480.643M506.022 501.37H556.781M628.029 505.267H577.271M544.085 514.054H585.089M641.693 506.248H660.246M685.625 501.37H736.384M807.632 505.267H756.886M723.688 514.054H764.692M821.308 506.248H839.849M865.228 501.37H915.987M987.247 505.267H936.489M903.291 514.054H944.295M1000.91 506.248H1019.45M958.939 545.936H917.039M858.235 539.827H900.123M927.511 526.104H893.68M846.95 538.309H831.649M810.692 545.936H768.804M709.989 539.827H751.889M779.276 526.104H745.445M698.715 538.309H683.402M662.458 545.936H620.57M561.754 539.827H603.654M631.042 526.104H597.199M550.481 538.309H535.167M514.223 545.936H472.335M413.519 539.827H455.407M482.807 526.104H448.964M402.246 538.309H386.933M1059.48 583.581H1002.86M923.363 575.332H979.991M1017.01 556.779H971.276M908.121 573.276H887.44M859.132 583.581H802.504M723.019 575.332H779.647M816.658 556.779H770.932M707.777 573.276H687.084M658.776 583.581H602.16M522.675 575.332H579.291M616.314 556.779H570.588M507.433 573.276H486.74M458.432 583.581H401.816M322.331 575.332H378.947M415.97 556.779H370.232M307.077 573.276H286.396" stroke="white" stroke-opacity="0.8" stroke-width="1.98831" stroke-miterlimit="10"/>
<path d="M500.043 451.343C500.506 482.744 505.341 513.928 514.408 543.995C522.968 571.624 540.965 600.295 555.986 622.059H530.992C530.992 622.059 509.421 568.632 504.643 544.65C494.014 491.059 498.153 450.613 498.153 450.613L500.043 451.343Z" fill="#806414"/>
<path d="M531.395 422.685L523.952 420.884L530.576 425.484C529.469 428.721 527.812 431.742 525.679 434.416L518.236 431.081L523.52 436.887C522.67 437.762 521.765 438.582 520.811 439.343L516.419 437.14L518.891 440.802C516.947 442.167 514.89 443.362 512.743 444.375L509.185 440.415L511.209 445.074C506.999 446.882 502.607 448.234 498.109 449.109L529.028 395.429C530.631 399.475 531.697 403.714 532.199 408.037H528.924L532.392 409.854C532.497 411.223 532.556 412.652 532.541 414.126L524.786 413.322L532.348 417.699C532.148 419.381 531.83 421.048 531.395 422.685Z" fill="#455A64"/>
<path d="M542.649 450.21L539.82 446.816L541.309 451.475C539.785 452.8 538.1 453.925 536.292 454.825L533.002 448.558L533.27 456.001C532.145 456.367 530.996 456.656 529.832 456.864L527.673 452.398L527.48 457.236C525.44 457.428 523.386 457.428 521.346 457.236L520.17 449.391L518.146 456.834C517.104 456.641 516.047 456.418 514.945 456.12V450.969L512.266 455.271C507.418 453.673 502.745 451.588 498.317 449.049L548.797 440.608C547.471 444.219 545.373 447.496 542.649 450.21Z" fill="#455A64"/>
<path d="M498.274 449.124C493.905 444.558 490.052 439.526 486.781 434.119L492.275 430.859L485.546 431.99C484.534 430.129 483.64 428.298 482.881 426.512L488.508 422.805L481.72 423.534C481.154 421.971 480.693 420.438 480.232 418.935L489.997 415.407L479.234 413.739C478.771 410.404 478.706 407.026 479.041 403.676L491.753 400.818L479.844 398.868C480.023 398.004 480.232 397.171 480.455 396.352L487.332 396.605L481.169 394.045C481.843 392.046 482.654 390.097 483.596 388.209L493.406 390.293L485.174 385.262C488.125 380.129 491.931 375.537 496.428 371.686L498.274 449.124Z" fill="#455A64"/>
<path d="M480.155 442.172L482.254 436.709L477.877 440.966C477.044 440.505 476.195 440.029 475.347 439.478L477.624 435.697L474.007 438.674C472.652 437.811 471.312 436.903 470.002 435.935L473.486 431.469L467.769 434.283C465.364 432.334 463.164 430.144 461.205 427.747L468.276 421.912L459.344 425.276C457.928 423.213 456.782 420.977 455.935 418.622L462.917 414.007L455.116 415.972C454.783 414.672 454.549 413.348 454.416 412.013L464.837 407.353L454.297 406.713C454.45 404.909 454.754 403.122 455.205 401.369L462.753 400.907L455.92 398.838C457.237 394.881 459.026 391.098 461.249 387.569C461.249 387.569 471.863 429.4 498.197 449.199C491.958 447.481 485.912 445.126 480.155 442.172Z" fill="#455A64"/>
<path d="M484.533 454.021L483.282 451.416L483.729 454.125C482.969 454.229 482.24 454.289 481.511 454.319L480.632 450.85L479.68 454.334C478.653 454.307 477.629 454.218 476.613 454.066L477.089 448.32L474.321 453.574C472.223 453.024 470.217 452.172 468.366 451.044L469.289 446.667L466.952 450.21C466.214 449.686 465.503 449.125 464.823 448.528L467.637 443.839L463.305 447.114C462.147 445.942 461.082 444.683 460.119 443.348L462.635 440.504L459.449 442.395C459.122 441.904 458.794 441.412 458.511 440.906L460.208 439.343L457.946 439.968C456.598 437.657 455.505 435.206 454.686 432.659C468.813 446.474 498.377 449.123 498.377 449.123C494.078 451.539 489.394 453.196 484.533 454.021Z" fill="#455A64"/>
<path d="M523.371 470.054L522.686 467.628L522.389 470.143C521.427 470.218 520.462 470.218 519.501 470.143L519.739 465.975L518.072 469.995C516.619 469.789 515.195 469.414 513.829 468.878L514.469 464.784L511.849 467.985C510.952 467.519 510.091 466.987 509.274 466.392L510.986 463.266L508.291 465.633C507.666 465.127 507.056 464.576 506.445 463.98L508.827 460.214L504.614 461.971C504.064 461.286 503.513 460.571 502.962 459.783L504.972 458.071L502.337 458.86C500.369 455.742 498.752 452.418 497.514 448.945C497.514 448.945 515.839 464.68 531.41 467.657C528.901 468.944 526.175 469.757 523.371 470.054Z" fill="#455A64"/>
<path d="M490.471 465.751L487.746 463.057L489.354 466.867C488.559 467.613 487.692 468.276 486.764 468.847L484.486 466.704L485.722 469.443C485.276 469.689 484.814 469.903 484.337 470.083L481.807 466.287L482.521 470.678C481.03 471.063 479.491 471.233 477.951 471.184L476.537 468.073L476.388 471.05C475.688 470.976 475.004 470.857 474.349 470.723L473.857 467.612L473.173 470.44C470.985 469.853 468.89 468.961 466.95 467.79C483.548 465.557 497.824 450.716 497.824 450.716C495.889 457.831 493.344 462.61 490.471 465.751Z" fill="#455A64"/>
<path d="M505.373 460.855C505.119 462.056 504.516 463.155 503.638 464.014C502.76 464.872 501.647 465.451 500.44 465.676C499.233 465.902 497.987 465.765 496.858 465.282C495.729 464.8 494.768 463.993 494.098 462.965C493.428 461.936 493.077 460.732 493.091 459.504C493.105 458.276 493.483 457.08 494.177 456.067C494.871 455.054 495.849 454.27 496.989 453.813C498.128 453.356 499.378 453.247 500.579 453.501C501.378 453.667 502.136 453.99 502.809 454.45C503.483 454.91 504.059 455.498 504.504 456.182C504.949 456.865 505.255 457.63 505.404 458.431C505.554 459.233 505.543 460.057 505.373 460.855Z" fill="#997717"/>
<path d="M501.266 454.349C501.012 455.551 500.408 456.65 499.529 457.508C498.65 458.366 497.536 458.944 496.328 459.169C495.121 459.394 493.874 459.255 492.745 458.771C491.616 458.286 490.657 457.478 489.987 456.448C489.318 455.418 488.969 454.213 488.985 452.985C489.001 451.757 489.381 450.561 490.077 449.549C490.773 448.537 491.754 447.754 492.895 447.299C494.036 446.845 495.286 446.739 496.488 446.995C497.285 447.163 498.041 447.487 498.713 447.948C499.385 448.408 499.959 448.997 500.403 449.68C500.847 450.363 501.151 451.127 501.3 451.929C501.448 452.73 501.436 453.552 501.266 454.349Z" fill="#B28B1B"/>
<path d="M507.579 454.541C507.326 455.743 506.722 456.842 505.844 457.7C504.966 458.558 503.853 459.137 502.646 459.363C501.439 459.589 500.193 459.452 499.064 458.969C497.935 458.486 496.975 457.68 496.304 456.651C495.634 455.622 495.283 454.418 495.297 453.19C495.311 451.963 495.689 450.767 496.383 449.754C497.077 448.741 498.055 447.956 499.195 447.499C500.334 447.043 501.584 446.934 502.785 447.187C503.584 447.354 504.342 447.676 505.015 448.136C505.689 448.596 506.265 449.185 506.71 449.868C507.155 450.552 507.461 451.316 507.611 452.118C507.76 452.92 507.749 453.743 507.579 454.541Z" fill="#CC9F1F"/>
<path d="M800.753 479.693C800.212 506.161 795.007 532.326 785.377 556.985C776.252 580.026 717.622 603.958 701.538 622.094H728.275C728.275 622.094 790.715 577.54 795.826 557.51C807.232 512.841 802.67 479.055 802.67 479.055L800.753 479.693Z" fill="#B28B1B"/>
<path d="M781.158 448.666H788.002L781.295 451.198C781.549 454.22 782.321 457.175 783.576 459.936L790.74 458.658L784.922 462.536C785.484 463.465 786.093 464.364 786.747 465.228L791.014 464.293L788.094 467.076C789.488 468.669 791.015 470.142 792.656 471.479L796.58 468.833L793.82 472.415C797.063 474.875 800.558 476.986 804.245 478.711L789.189 425.784C786.928 428.923 785.088 432.343 783.713 435.959L786.542 436.621L783.189 437.442C782.801 438.582 782.436 439.723 782.139 441.092L788.983 442.073L781.523 444.195C781.291 445.674 781.169 447.168 781.158 448.666Z" fill="#455A64"/>
<path d="M765.509 469.974L768.68 467.692L766.399 471.388C767.423 472.855 768.635 474.182 770.003 475.335L774.201 470.658L772.353 477.069C773.243 477.618 774.164 478.113 775.113 478.551L777.965 475.129L777.075 479.327C778.792 479.931 780.565 480.359 782.368 480.605L785.083 474.103L785.242 480.947C786.178 480.947 787.136 480.947 788.14 480.947L789.235 476.498L790.649 480.833C795.166 480.543 799.639 479.779 803.995 478.551L762.315 460.301C762.66 463.72 763.75 467.021 765.509 469.974Z" fill="#455A64"/>
<path d="M803.994 478.598C808.734 475.593 813.14 472.091 817.135 468.149L813.097 464.134L818.663 466.552C819.892 465.239 821.049 463.86 822.131 462.423L818.093 457.952L823.773 460.05C824.595 458.819 825.325 457.609 826.055 456.4L818.412 451.267L828.039 452.134C829.139 449.36 829.904 446.465 830.321 443.511L820.009 438.287L830.709 439.199C830.709 438.423 830.709 437.648 830.709 436.918L824.732 435.663L830.595 434.773C830.446 432.909 830.172 431.057 829.773 429.23L820.853 428.887L829.043 426.332C827.589 421.267 825.274 416.49 822.199 412.211L803.994 478.598Z" fill="#455A64"/>
<path d="M821.102 476.499L820.463 471.343L823.338 475.906C824.159 475.7 825.003 475.449 825.825 475.198L824.684 471.457L827.171 474.788C828.517 474.354 829.862 473.852 831.208 473.305L829.178 468.742L833.49 472.392C835.985 471.239 838.355 469.832 840.562 468.195L835.726 461.624L842.684 466.438C844.349 464.965 845.821 463.286 847.064 461.442L842.022 455.967L848.364 459.297C848.921 458.246 849.401 457.156 849.801 456.035L841.771 449.761L850.896 451.495C851.198 449.862 851.351 448.205 851.353 446.545L844.965 444.514L851.353 444.263C851.041 440.564 850.275 436.917 849.071 433.404C849.071 433.404 830.821 467.145 803.947 478.552C809.72 478.455 815.469 477.767 821.102 476.499Z" fill="#455A64"/>
<path d="M814.851 485.761L816.493 483.799L815.513 486.08C816.151 486.331 816.767 486.537 817.383 486.719L818.889 483.913V487.13C819.814 487.345 820.751 487.505 821.695 487.609L822.516 482.544L823.771 487.677C825.705 487.658 827.626 487.358 829.474 486.788L829.634 482.818L830.843 486.309C831.622 486.025 832.383 485.698 833.124 485.328L831.71 480.765L834.744 484.529C835.986 483.757 837.175 482.904 838.303 481.974L836.729 478.985L839.01 481.267C839.398 480.925 839.786 480.56 840.128 480.195L839.01 478.484L840.813 479.51C842.471 477.806 843.947 475.933 845.215 473.921C830.045 482.772 804.015 478.689 804.015 478.689C807.198 481.646 810.862 484.038 814.851 485.761Z" fill="#455A64"/>
<path d="M777.852 491.213L779.038 489.274L778.742 491.555C779.55 491.835 780.382 492.041 781.228 492.171L781.913 488.543L782.483 492.353C783.778 492.513 785.089 492.513 786.384 492.353L786.726 488.68L788.3 492.011C789.175 491.814 790.03 491.539 790.855 491.19L790.057 488.133L791.882 490.756C792.521 490.46 793.16 490.118 793.821 489.73L792.566 485.966L795.829 488.384C796.445 487.928 797.083 487.426 797.722 486.878L796.353 484.939L798.452 486.194C800.825 483.943 802.937 481.433 804.749 478.711C804.749 478.711 785.563 488.315 771.51 487.517C773.385 489.12 775.533 490.372 777.852 491.213Z" fill="#455A64"/>
<path d="M807.142 494.59L810.062 492.856L807.781 495.799C808.302 496.619 808.906 497.384 809.583 498.081L812.024 496.735L810.359 498.834C810.693 499.134 811.043 499.416 811.408 499.678L814.42 496.963L812.846 500.59C814.053 501.234 815.342 501.71 816.678 502.005L818.572 499.564L818.047 502.233C818.652 502.319 819.261 502.372 819.872 502.392L820.967 499.837V502.415C822.98 502.382 824.978 502.059 826.899 501.457C813.211 495.959 804.085 480.081 804.085 480.081C803.928 485.093 804.976 490.069 807.142 494.59Z" fill="#455A64"/>
<path d="M795.35 487.176C795.31 488.268 795.595 489.347 796.169 490.277C796.743 491.207 797.579 491.945 798.573 492.4C799.567 492.854 800.673 493.003 801.751 492.828C802.83 492.653 803.832 492.162 804.632 491.417C805.431 490.672 805.991 489.707 806.241 488.643C806.492 487.579 806.421 486.466 806.038 485.442C805.655 484.419 804.977 483.533 804.089 482.895C803.202 482.257 802.146 481.897 801.054 481.86C800.33 481.833 799.607 481.949 798.928 482.201C798.249 482.454 797.627 482.838 797.097 483.332C796.567 483.826 796.14 484.42 795.84 485.08C795.54 485.739 795.374 486.452 795.35 487.176Z" fill="#997717"/>
<path d="M800.277 482.451C800.237 483.542 800.521 484.62 801.094 485.55C801.667 486.479 802.502 487.217 803.495 487.672C804.487 488.127 805.592 488.277 806.67 488.104C807.748 487.93 808.75 487.441 809.55 486.699C810.35 485.956 810.912 484.993 811.165 483.931C811.417 482.869 811.35 481.756 810.97 480.733C810.59 479.709 809.916 478.821 809.032 478.181C808.148 477.541 807.094 477.177 806.003 477.136C805.278 477.108 804.554 477.224 803.874 477.476C803.194 477.729 802.57 478.113 802.038 478.606C801.506 479.1 801.077 479.694 800.774 480.354C800.472 481.013 800.303 481.726 800.277 482.451Z" fill="#B28B1B"/>
<path d="M794.799 481.244C794.759 482.335 795.044 483.413 795.616 484.343C796.189 485.272 797.025 486.01 798.017 486.465C799.01 486.92 800.114 487.07 801.192 486.896C802.27 486.723 803.272 486.234 804.072 485.492C804.872 484.749 805.434 483.786 805.687 482.724C805.94 481.662 805.872 480.549 805.492 479.526C805.113 478.502 804.438 477.614 803.554 476.974C802.67 476.334 801.616 475.97 800.525 475.929C799.8 475.901 799.077 476.017 798.396 476.269C797.716 476.522 797.092 476.906 796.56 477.399C796.028 477.893 795.599 478.487 795.297 479.146C794.995 479.806 794.826 480.519 794.799 481.244Z" fill="#CC9F1F"/>
<path d="M597.054 699.816C596.813 693.795 593.08 694.036 593.08 692.29C593.08 691.326 594.284 691.326 594.284 691.326H599.04C612.528 691.326 615.177 726.73 616.261 729.379L622.161 692.711C622.161 691.326 623.847 691.326 623.847 691.326H631.855C632.999 691.326 633.541 691.808 633.541 692.711C633.541 694.096 631.855 695.481 631.855 700.418V724.382C631.855 729.319 633.541 730.704 633.541 732.089C633.541 733.474 631.855 733.474 631.855 733.474H623.847C622.703 733.474 622.161 732.992 622.161 732.089C622.161 730.704 623.847 729.319 623.847 724.382V700.418C623.847 699.033 623.727 697.949 623.546 697.046L617.826 732.209C617.646 733.052 616.923 733.474 616.08 733.474H609.336C608.313 733.474 607.831 732.51 607.41 730.343C606.446 725.285 603.797 700.177 599.04 700.177V724.984C599.281 731.005 603.014 730.764 603.014 732.51C603.014 733.474 601.81 733.474 601.81 733.474H594.284C593.501 733.474 593.08 733.173 593.08 732.51C593.08 730.764 596.813 731.005 597.054 724.984V699.816ZM639.452 700.418C639.452 695.481 637.766 694.096 637.766 692.711C637.766 691.326 639.452 691.326 639.452 691.326H647.46C649.146 691.326 649.146 692.711 649.146 692.711C649.146 694.096 647.46 695.481 647.46 700.418V724.382C647.46 729.319 649.146 730.704 649.146 732.089C649.146 733.474 647.46 733.474 647.46 733.474H639.452C637.766 733.474 637.766 732.089 637.766 732.089C637.766 730.704 639.452 729.319 639.452 724.382V700.418ZM665.147 734.076C658.163 734.076 653.346 731.607 653.346 727.573C653.346 726.068 654.67 724.322 657.019 724.322C661.414 724.322 660.752 732.089 665.087 732.089C670.325 732.089 670.927 728.055 670.927 725.947C670.927 715.23 653.466 713.243 653.466 701.141C653.466 694.939 659.969 690.724 667.435 690.724C675.021 690.724 679.236 693.193 679.236 697.227C679.236 698.732 677.912 700.478 675.563 700.478C671.168 700.478 672.432 692.711 667.495 692.711C662.257 692.711 661.655 696.805 661.655 698.913C661.655 709.63 679.296 711.918 679.296 724.021C679.296 730.222 672.613 734.076 665.147 734.076ZM683.748 692.832C683.568 692.229 683.026 691.326 684.471 691.326H720.236C721.681 691.326 721.139 692.229 720.958 692.832L718.67 700.478C718.309 701.08 717.888 701.321 717.406 701.321C716.804 701.321 717.105 701.502 716.623 701.201C715.419 700.478 715.78 693.313 710.06 693.313H707.953C706.147 693.313 706.387 696.203 706.387 700.418V724.382C706.387 729.319 708.073 730.704 708.073 732.089C708.073 732.992 707.531 733.474 706.387 733.474H698.379C696.693 733.474 696.693 732.089 696.693 732.089C696.693 730.704 698.379 729.319 698.379 724.382V700.418C698.379 696.203 698.62 693.313 696.814 693.313H694.646C688.926 693.313 689.227 700.358 688.083 701.201C687.843 701.381 687.602 701.442 687.361 701.442C686.879 701.442 686.458 701.141 686.036 700.478L683.748 692.832ZM725.429 692.711C725.429 691.326 727.115 691.326 727.115 691.326H735.845C736.989 691.326 737.531 691.808 737.531 692.711C737.531 694.096 735.424 694.999 738.194 700.418L745.359 714.327L751.681 700.418C753.848 695.722 749.634 694.096 749.634 692.711C749.634 691.326 751.319 691.326 751.319 691.326H757.34C758.484 691.326 759.026 691.808 759.026 692.711C759.026 694.096 755.956 695.481 753.728 700.418L747.466 714.206C747.044 715.17 746.322 716.856 746.322 717.337V724.382C746.322 729.319 748.008 730.704 748.008 732.089C748.008 733.474 746.322 733.474 746.322 733.474H738.314C737.17 733.474 736.628 732.992 736.628 732.089C736.628 730.704 738.314 729.319 738.314 724.382V717.337C738.314 716.856 737.531 715.35 736.989 714.327L729.824 700.418C727.356 695.661 725.429 694.096 725.429 692.711ZM617.374 766.418C617.374 761.481 615.688 760.096 615.688 758.711C615.688 757.326 617.374 757.326 617.374 757.326H625.382C627.068 757.326 627.068 758.711 627.068 758.711C627.068 760.096 625.382 761.481 625.382 766.418V790.382C625.382 794.597 625.804 797.487 626.948 797.487H633.33C639.411 797.487 640.977 791.827 642.964 791.827C643.144 791.827 643.325 791.887 643.505 792.008C644.89 792.79 641.699 798.269 641.639 798.33C641.097 799.293 639.471 799.474 638.568 799.474H617.374C615.688 799.474 615.688 798.089 615.688 798.089C615.688 796.704 617.374 795.319 617.374 790.382V766.418ZM649.77 766.418C649.77 761.481 648.084 760.096 648.084 758.711C648.084 757.326 649.77 757.326 649.77 757.326H657.778C659.464 757.326 659.464 758.711 659.464 758.711C659.464 760.096 657.778 761.481 657.778 766.418V790.382C657.778 795.319 659.464 796.704 659.464 798.089C659.464 799.474 657.778 799.474 657.778 799.474H649.77C648.084 799.474 648.084 798.089 648.084 798.089C648.084 796.704 649.77 795.319 649.77 790.382V766.418ZM667.577 765.816C667.337 759.795 663.604 760.036 663.604 758.29C663.604 757.326 664.808 757.326 664.808 757.326H669.564C683.052 757.326 685.701 792.73 686.785 795.379L692.685 758.711C692.685 757.326 694.371 757.326 694.371 757.326H702.379C703.523 757.326 704.065 757.808 704.065 758.711C704.065 760.096 702.379 761.481 702.379 766.418V790.382C702.379 795.319 704.065 796.704 704.065 798.089C704.065 799.474 702.379 799.474 702.379 799.474H694.371C693.227 799.474 692.685 798.992 692.685 798.089C692.685 796.704 694.371 795.319 694.371 790.382V766.418C694.371 765.033 694.251 763.949 694.07 763.046L688.35 798.209C688.169 799.052 687.447 799.474 686.604 799.474H679.86C678.837 799.474 678.355 798.51 677.934 796.343C676.97 791.285 674.321 766.177 669.564 766.177V790.984C669.805 797.005 673.538 796.764 673.538 798.51C673.538 799.474 672.334 799.474 672.334 799.474H664.808C664.025 799.474 663.604 799.173 663.604 798.51C663.604 796.764 667.337 797.005 667.577 790.984V765.816ZM708.29 758.711C708.29 757.326 709.976 757.326 709.976 757.326H734.843C736.288 757.326 735.927 758.229 735.565 758.832L733.277 762.565C732.916 763.167 732.495 763.408 732.013 763.408C731.411 763.408 731.712 763.588 731.23 763.287C730.026 762.565 730.387 759.313 724.667 759.313H719.549C718.405 759.313 717.984 762.203 717.984 766.418V777.978C724.005 777.738 723.764 774.005 725.51 774.005C726.474 774.005 726.474 775.209 726.474 775.209V782.735C726.474 783.939 725.51 783.939 725.51 783.939C723.764 783.939 724.005 780.206 717.984 779.965V790.382C717.984 794.597 718.405 797.487 719.549 797.487H725.932C732.013 797.487 733.579 791.827 735.565 791.827C735.746 791.827 735.927 791.887 736.107 792.008C737.492 792.79 734.301 798.269 734.241 798.33C733.699 799.293 732.073 799.474 731.17 799.474H709.976C708.29 799.474 708.29 798.089 708.29 798.089C708.29 796.704 709.976 795.319 709.976 790.382V766.418C709.976 761.481 708.29 760.096 708.29 758.711Z" fill="#926C03"/>
<path d="M558.89 83.7575C558.445 72.6417 551.554 73.0863 551.554 69.8628C551.554 68.0842 553.777 68.0842 553.777 68.0842H562.558C581.455 68.0842 598.796 105.656 607.021 125.886V83.7575C606.577 72.6417 599.685 73.0863 599.685 69.8628C599.685 68.0842 601.908 68.0842 601.908 68.0842H615.803C617.248 68.0842 618.026 68.64 618.026 69.8628C618.026 73.0863 611.134 72.6417 610.69 83.7575V130.222C611.134 141.337 618.026 140.893 618.026 144.116C618.026 145.895 615.803 145.895 615.803 145.895H599.018C597.128 145.895 596.239 144.116 595.461 140.115C593.683 130.777 571.34 84.4244 562.558 84.4244V130.222C563.003 141.337 569.895 140.893 569.895 144.116C569.895 145.895 567.672 145.895 567.672 145.895H553.777C552.332 145.895 551.554 145.339 551.554 144.116C551.554 140.893 558.445 141.337 558.89 130.222V83.7575Z" fill="white"/>
<path d="M628.912 84.8691C628.912 75.7541 625.799 73.1975 625.799 70.6409C625.799 68.0842 628.912 68.0842 628.912 68.0842H643.696C646.808 68.0842 646.808 70.6409 646.808 70.6409C646.808 73.1975 643.696 75.7541 643.696 84.8691V129.11C643.696 138.225 646.808 140.782 646.808 143.338C646.808 145.895 643.696 145.895 643.696 145.895H628.912C625.799 145.895 625.799 143.338 625.799 143.338C625.799 140.782 628.912 138.225 628.912 129.11V84.8691Z" fill="white"/>
<path d="M657.674 84.8691C657.674 75.7541 654.561 73.1975 654.561 70.6409C654.561 68.9735 655.562 68.0842 657.674 68.0842H672.458C675.57 68.0842 675.57 70.6409 675.57 70.6409C675.57 73.1975 672.458 75.7541 672.458 84.8691V101.987C684.129 97.4299 690.91 85.536 692.8 74.5314C693.022 72.6417 691.132 71.0855 691.132 69.9739C691.132 68.7512 692.355 68.0842 694.912 68.0842H702.693C706.472 68.0842 706.472 69.9739 706.472 69.9739C706.472 71.419 705.249 71.9748 704.471 73.8645C701.359 85.536 692.244 97.7634 679.238 103.766C695.801 106.878 701.581 132.222 703.36 136.558C704.694 139.892 707.695 140.337 707.695 143.338C707.695 145.339 706.139 145.895 704.36 145.895H690.354C688.465 145.895 687.575 144.116 686.797 140.115C685.019 130.777 680.572 108.435 672.458 108.435V129.11C672.458 138.225 675.57 140.782 675.57 143.338C675.57 145.006 674.57 145.895 672.458 145.895H657.674C654.561 145.895 654.561 143.338 654.561 143.338C654.561 140.782 657.674 138.225 657.674 129.11V84.8691Z" fill="white"/>
<path d="M740.71 147.006C721.368 147.006 709.919 129.666 709.919 106.767C709.919 83.8687 721.368 66.9727 740.71 66.9727C760.051 66.9727 771.5 83.8687 771.5 106.767C771.5 129.666 760.051 147.006 740.71 147.006ZM726.259 106.767C726.259 129.666 733.818 143.338 740.71 143.338C747.601 143.338 755.16 129.666 755.16 106.767C755.16 83.8687 747.601 70.6409 740.71 70.6409C733.818 70.6409 726.259 83.8687 726.259 106.767Z" fill="white"/>
<path d="M782.392 84.8691C782.392 75.7541 779.28 73.1975 779.28 70.6409C779.28 68.0842 782.392 68.0842 782.392 68.0842H797.176C800.288 68.0842 800.288 70.6409 800.288 70.6409C800.288 73.1975 797.176 75.7541 797.176 84.8691V129.11C797.176 138.225 800.288 140.782 800.288 143.338C800.288 145.895 797.176 145.895 797.176 145.895H782.392C779.28 145.895 779.28 143.338 779.28 143.338C779.28 140.782 782.392 138.225 782.392 129.11V84.8691Z" fill="white"/>
<path d="M574.741 190.594C575.68 190.742 576.532 191.125 577.298 191.742C578.089 192.36 578.706 193.126 579.151 194.04C579.62 194.953 579.855 195.929 579.855 196.967C579.855 198.276 579.521 199.462 578.854 200.524C578.187 201.561 577.212 202.389 575.927 203.006C574.667 203.599 573.173 203.896 571.444 203.896H561.81V178.07H571.073C572.827 178.07 574.322 178.366 575.557 178.959C576.792 179.527 577.718 180.305 578.336 181.293C578.953 182.281 579.262 183.393 579.262 184.628C579.262 186.16 578.842 187.432 578.002 188.445C577.187 189.433 576.1 190.149 574.741 190.594ZM565.182 189.223H570.851C572.432 189.223 573.655 188.852 574.519 188.111C575.384 187.37 575.816 186.345 575.816 185.036C575.816 183.727 575.384 182.701 574.519 181.96C573.655 181.219 572.407 180.849 570.777 180.849H565.182V189.223ZM571.147 201.117C572.827 201.117 574.136 200.721 575.075 199.931C576.014 199.14 576.483 198.041 576.483 196.633C576.483 195.2 575.989 194.077 575.001 193.261C574.013 192.422 572.691 192.002 571.036 192.002H565.182V201.117H571.147ZM609.989 203.896L603.838 193.336H599.762V203.896H596.391V178.07H604.727C606.679 178.07 608.322 178.403 609.655 179.07C611.014 179.737 612.027 180.639 612.694 181.775C613.361 182.911 613.694 184.208 613.694 185.666C613.694 187.444 613.175 189.013 612.138 190.371C611.125 191.73 609.594 192.632 607.543 193.076L614.028 203.896H609.989ZM599.762 190.631H604.727C606.555 190.631 607.926 190.186 608.84 189.297C609.754 188.383 610.211 187.172 610.211 185.666C610.211 184.134 609.754 182.948 608.84 182.109C607.951 181.269 606.58 180.849 604.727 180.849H599.762V190.631ZM634.162 180.812V189.445H643.573V192.224H634.162V201.117H644.685V203.896H630.79V178.033H644.685V180.812H634.162ZM694.102 178.07L686.617 203.896H682.838L676.835 183.109L670.61 203.896L666.868 203.933L659.643 178.07H663.237L668.869 199.968L675.094 178.07H678.873L684.802 199.894L690.471 178.07H694.102ZM713.02 178.07V203.896H709.649V178.07H713.02ZM750.929 203.896H747.557L733.996 183.331V203.896H730.624V178.033H733.996L747.557 198.56V178.033H750.929V203.896ZM788.097 185.554C787.381 184.048 786.343 182.887 784.985 182.072C783.626 181.232 782.045 180.812 780.242 180.812C778.439 180.812 776.808 181.232 775.351 182.072C773.918 182.887 772.782 184.072 771.942 185.629C771.127 187.16 770.719 188.939 770.719 190.964C770.719 192.99 771.127 194.768 771.942 196.3C772.782 197.831 773.918 199.017 775.351 199.857C776.808 200.672 778.439 201.08 780.242 201.08C782.761 201.08 784.836 200.326 786.467 198.819C788.097 197.312 789.048 195.275 789.32 192.706H779.019V189.964H792.914V192.557C792.716 194.682 792.049 196.633 790.913 198.412C789.777 200.166 788.282 201.561 786.43 202.599C784.577 203.611 782.514 204.118 780.242 204.118C777.846 204.118 775.66 203.562 773.684 202.45C771.707 201.314 770.139 199.746 768.978 197.745C767.842 195.744 767.273 193.484 767.273 190.964C767.273 188.445 767.842 186.184 768.978 184.184C770.139 182.158 771.707 180.589 773.684 179.478C775.66 178.342 777.846 177.773 780.242 177.773C782.984 177.773 785.405 178.453 787.504 179.811C789.629 181.17 791.172 183.084 792.136 185.554H788.097ZM550.871 236.964C550.871 234.445 551.439 232.184 552.575 230.184C553.712 228.158 555.256 226.577 557.207 225.441C559.183 224.304 561.369 223.736 563.765 223.736C566.581 223.736 569.039 224.416 571.139 225.774C573.238 227.133 574.77 229.06 575.733 231.554H571.695C570.978 229.998 569.941 228.8 568.582 227.96C567.248 227.12 565.643 226.701 563.765 226.701C561.962 226.701 560.344 227.12 558.911 227.96C557.479 228.8 556.355 229.998 555.54 231.554C554.724 233.086 554.317 234.889 554.317 236.964C554.317 239.014 554.724 240.818 555.54 242.374C556.355 243.905 557.479 245.091 558.911 245.931C560.344 246.771 561.962 247.191 563.765 247.191C565.643 247.191 567.248 246.783 568.582 245.968C569.941 245.128 570.978 243.93 571.695 242.374H575.733C574.77 244.844 573.238 246.758 571.139 248.117C569.039 249.451 566.581 250.118 563.765 250.118C561.369 250.118 559.183 249.562 557.207 248.45C555.256 247.314 553.712 245.746 552.575 243.745C551.439 241.744 550.871 239.484 550.871 236.964ZM604.318 250.155C601.922 250.155 599.736 249.599 597.76 248.488C595.784 247.351 594.215 245.783 593.054 243.782C591.918 241.756 591.35 239.484 591.35 236.964C591.35 234.445 591.918 232.184 593.054 230.184C594.215 228.158 595.784 226.589 597.76 225.478C599.736 224.342 601.922 223.773 604.318 223.773C606.739 223.773 608.937 224.342 610.913 225.478C612.889 226.589 614.446 228.146 615.582 230.146C616.718 232.147 617.286 234.42 617.286 236.964C617.286 239.508 616.718 241.781 615.582 243.782C614.446 245.783 612.889 247.351 610.913 248.488C608.937 249.599 606.739 250.155 604.318 250.155ZM604.318 247.228C606.121 247.228 607.739 246.808 609.172 245.968C610.629 245.128 611.766 243.93 612.581 242.374C613.421 240.818 613.84 239.014 613.84 236.964C613.84 234.889 613.421 233.086 612.581 231.554C611.766 229.998 610.642 228.8 609.209 227.96C607.776 227.12 606.146 226.701 604.318 226.701C602.49 226.701 600.86 227.12 599.427 227.96C597.994 228.8 596.858 229.998 596.018 231.554C595.203 233.086 594.795 234.889 594.795 236.964C594.795 239.014 595.203 240.818 596.018 242.374C596.858 243.93 597.994 245.128 599.427 245.968C600.884 246.808 602.515 247.228 604.318 247.228ZM659.791 224.255V249.896H656.419V230.776L647.897 249.896H645.525L636.966 230.739V249.896H633.594V224.255H637.226L646.711 245.449L656.197 224.255H659.791ZM694.632 231.629C694.632 233.778 693.891 235.568 692.409 237.001C690.952 238.409 688.716 239.113 685.703 239.113H680.738V249.896H677.366V224.07H685.703C688.617 224.07 690.828 224.774 692.335 226.182C693.867 227.59 694.632 229.405 694.632 231.629ZM685.703 236.334C687.58 236.334 688.963 235.927 689.852 235.112C690.742 234.296 691.186 233.135 691.186 231.629C691.186 228.442 689.358 226.849 685.703 226.849H680.738V236.334H685.703ZM725.946 244.152H714.682L712.607 249.896H709.05L718.387 224.218H722.277L731.578 249.896H728.02L725.946 244.152ZM724.982 241.41L720.314 228.368L715.645 241.41H724.982ZM767.809 249.896H764.437L750.876 229.331V249.896H747.504V224.033H750.876L764.437 244.56V224.033H767.809V249.896ZM803.495 224.07L795.084 240.151V249.896H791.712V240.151L783.264 224.07H787.006L793.38 237.149L799.753 224.07H803.495Z" fill="white"/>
<path d="M146.65 693.94H145.367V802.989H146.65V693.94Z" fill="black"/>
<path d="M149.216 693.94H147.933V802.989H149.216V693.94Z" fill="black"/>
<path d="M151.782 693.94H150.499V796.575H151.782V693.94Z" fill="black"/>
<path d="M158.196 693.94H153.064V796.575H158.196V693.94Z" fill="black"/>
<path d="M163.328 693.94H160.762V796.575H163.328V693.94Z" fill="black"/>
<path d="M167.177 693.94H165.894V796.575H167.177V693.94Z" fill="black"/>
<path d="M173.591 693.94H171.025V796.575H173.591V693.94Z" fill="black"/>
<path d="M176.157 693.94H174.875V796.575H176.157V693.94Z" fill="black"/>
<path d="M181.289 693.94H177.44V796.575H181.289V693.94Z" fill="black"/>
<path d="M185.138 693.94H182.572V796.575H185.138V693.94Z" fill="black"/>
<path d="M187.704 693.94H186.421V796.575H187.704V693.94Z" fill="black"/>
<path d="M194.119 693.94H188.987V796.575H194.119V693.94Z" fill="black"/>
<path d="M197.968 693.94H196.685V796.575H197.968V693.94Z" fill="black"/>
<path d="M203.099 693.94H200.533V796.575H203.099V693.94Z" fill="black"/>
<path d="M205.665 693.94H204.382V802.989H205.665V693.94Z" fill="black"/>
<path d="M208.231 693.94H206.948V802.989H208.231V693.94Z" fill="black"/>
<path d="M210.797 693.94H209.514V796.575H210.797V693.94Z" fill="black"/>
<path d="M217.211 693.94H213.362V796.575H217.211V693.94Z" fill="black"/>
<path d="M219.777 693.94H218.494V796.575H219.777V693.94Z" fill="black"/>
<path d="M222.343 693.94H221.06V796.575H222.343V693.94Z" fill="black"/>
<path d="M231.323 693.94H227.475V796.575H231.323V693.94Z" fill="black"/>
<path d="M233.889 693.94H232.606V796.575H233.889V693.94Z" fill="black"/>
<path d="M237.738 693.94H236.455V796.575H237.738V693.94Z" fill="black"/>
<path d="M244.153 693.94H242.87V796.575H244.153V693.94Z" fill="black"/>
<path d="M248.002 693.94H245.436V796.575H248.002V693.94Z" fill="black"/>
<path d="M251.85 693.94H249.284V796.575H251.85V693.94Z" fill="black"/>
<path d="M255.699 693.94H254.417V796.575H255.699V693.94Z" fill="black"/>
<path d="M260.831 693.94H259.548V796.575H260.831V693.94Z" fill="black"/>
<path d="M264.68 693.94H263.397V802.989H264.68V693.94Z" fill="black"/>
<path d="M267.245 693.94H265.962V802.989H267.245V693.94Z" fill="black"/>
<path d="M135.237 808.664C135.237 808.476 135.219 808.294 135.184 808.118C135.007 807.306 134.555 806.718 133.825 806.354C133.449 806.165 133.043 806.071 132.608 806.071C131.703 806.071 131.003 806.448 130.509 807.2C130.215 807.635 130.068 808.112 130.068 808.629C130.068 808.817 130.086 809 130.121 809.176C130.286 809.964 130.738 810.534 131.479 810.887C131.844 811.064 132.226 811.152 132.626 811.152C133.555 811.152 134.278 810.781 134.796 810.04C135.09 809.617 135.237 809.158 135.237 808.664ZM131.426 805.048C131.861 804.872 132.255 804.784 132.608 804.784C133.784 804.784 134.76 805.219 135.537 806.089C135.995 806.595 136.295 807.183 136.436 807.853C136.495 808.112 136.524 808.382 136.524 808.664C136.524 809.641 136.154 810.511 135.413 811.275C134.649 812.051 133.708 812.439 132.591 812.439C131.368 812.439 130.374 811.957 129.609 810.993C129.233 810.523 128.986 809.987 128.868 809.388C128.81 809.141 128.78 808.894 128.78 808.647C128.78 807.647 129.168 806.483 129.945 805.154C130.097 804.895 130.191 804.737 130.227 804.678L133.279 799.121L134.372 799.774L131.426 805.048Z" fill="black" stroke="black" stroke-width="0.256586"/>
<path d="M154.109 801.362L152.363 802.861L151.534 801.873L154.127 799.633H155.467V812.175H154.109V801.362Z" fill="black" stroke="black" stroke-width="0.256586"/>
<path d="M160.093 805.912C160.093 803.842 160.54 802.172 161.433 800.902C162.186 799.844 163.121 799.314 164.238 799.314C165.591 799.314 166.637 800.073 167.378 801.59C167.649 802.143 167.86 802.772 168.013 803.478C168.178 804.242 168.26 805.053 168.26 805.912C168.26 808.017 167.807 809.693 166.902 810.939C166.173 811.939 165.261 812.439 164.168 812.439C162.815 812.439 161.763 811.698 161.01 810.216C160.716 809.652 160.487 808.999 160.322 808.258C160.169 807.517 160.093 806.735 160.093 805.912ZM161.451 805.912C161.451 806.676 161.528 807.405 161.68 808.099C162.033 809.769 162.656 810.775 163.55 811.116C163.75 811.186 163.956 811.222 164.168 811.222C165.167 811.222 165.92 810.493 166.426 809.034C166.743 808.105 166.902 807.064 166.902 805.912C166.902 805.089 166.825 804.307 166.673 803.566C166.296 801.837 165.638 800.843 164.697 800.585C164.544 800.549 164.391 800.532 164.238 800.532C163.274 800.532 162.527 801.237 161.998 802.648C161.633 803.625 161.451 804.712 161.451 805.912Z" fill="black" stroke="black" stroke-width="0.256586"/>
<path d="M178.654 799.633L173.874 812.175H172.304L176.749 800.921H170.311V799.633H178.654Z" fill="black" stroke="black" stroke-width="0.256586"/>
<path d="M187.055 808.664C187.055 808.476 187.037 808.294 187.002 808.118C186.826 807.306 186.373 806.718 185.644 806.354C185.267 806.165 184.862 806.071 184.427 806.071C183.521 806.071 182.821 806.448 182.327 807.2C182.033 807.635 181.886 808.112 181.886 808.629C181.886 808.817 181.904 809 181.939 809.176C182.104 809.964 182.557 810.534 183.298 810.887C183.662 811.064 184.044 811.152 184.444 811.152C185.373 811.152 186.097 810.781 186.614 810.04C186.908 809.617 187.055 809.158 187.055 808.664ZM183.245 805.048C183.68 804.872 184.074 804.784 184.427 804.784C185.603 804.784 186.579 805.219 187.355 806.089C187.814 806.595 188.113 807.183 188.255 807.853C188.313 808.112 188.343 808.382 188.343 808.664C188.343 809.641 187.972 810.511 187.231 811.275C186.467 812.051 185.526 812.439 184.409 812.439C183.186 812.439 182.192 811.957 181.428 810.993C181.051 810.523 180.804 809.987 180.687 809.388C180.628 809.141 180.599 808.894 180.599 808.647C180.599 807.647 180.987 806.483 181.763 805.154C181.916 804.895 182.01 804.737 182.045 804.678L185.097 799.121L186.191 799.774L183.245 805.048Z" fill="black" stroke="black" stroke-width="0.256586"/>
<path d="M191.874 802.614L190.675 802.138C190.934 801.209 191.522 800.462 192.439 799.898C193.097 799.498 193.791 799.298 194.52 799.298C195.473 799.298 196.314 799.645 197.043 800.339C197.631 800.903 198.013 801.615 198.19 802.473C198.272 802.873 198.313 803.29 198.313 803.726C198.313 804.737 197.837 805.795 196.884 806.901L195.244 808.7L195.208 808.735L193.127 810.958H198.542V812.175H190.375L194.767 807.571C195.52 806.76 195.961 806.266 196.09 806.089C196.69 805.29 196.99 804.502 196.99 803.726C196.99 803.337 196.955 802.979 196.884 802.649C196.649 801.544 196.079 800.862 195.173 800.603C194.961 800.544 194.744 800.515 194.52 800.515C193.638 800.515 192.921 800.885 192.368 801.626C192.157 801.92 191.992 802.25 191.874 802.614Z" fill="black" stroke="black" stroke-width="0.256586"/>
<path d="M216.251 805.224C215.416 805.224 214.686 805.483 214.063 806C214.04 806.024 214.022 806.041 214.01 806.053L212.758 805.4L213.569 799.632H219.355V800.849H214.698L214.134 804.536C214.651 804.218 215.357 804.06 216.251 804.06C217.532 804.06 218.538 804.548 219.267 805.524C219.608 805.994 219.843 806.535 219.973 807.147C220.043 807.488 220.079 807.846 220.079 808.223C220.079 809.516 219.661 810.575 218.826 811.398C218.109 812.092 217.233 812.439 216.198 812.439C214.833 812.439 213.752 811.909 212.952 810.851C212.623 810.404 212.376 809.898 212.211 809.334L213.552 809.087C214.034 810.51 214.916 811.221 216.198 811.221C217.162 811.221 217.873 810.792 218.332 809.934C218.603 809.44 218.738 808.864 218.738 808.205C218.738 807.958 218.714 807.717 218.667 807.482C218.479 806.588 218.026 805.935 217.309 805.524C216.968 805.324 216.615 805.224 216.251 805.224Z" fill="black" stroke="black" stroke-width="0.256586"/>
<path d="M228.744 808.664C228.744 808.476 228.726 808.294 228.691 808.118C228.515 807.306 228.062 806.718 227.333 806.354C226.957 806.165 226.551 806.071 226.116 806.071C225.21 806.071 224.51 806.448 224.016 807.2C223.722 807.635 223.575 808.112 223.575 808.629C223.575 808.817 223.593 809 223.628 809.176C223.793 809.964 224.246 810.534 224.987 810.887C225.351 811.064 225.733 811.152 226.133 811.152C227.062 811.152 227.786 810.781 228.303 810.04C228.597 809.617 228.744 809.158 228.744 808.664ZM224.934 805.048C225.369 804.872 225.763 804.784 226.116 804.784C227.292 804.784 228.268 805.219 229.044 806.089C229.503 806.595 229.802 807.183 229.944 807.853C230.002 808.112 230.032 808.382 230.032 808.664C230.032 809.641 229.661 810.511 228.92 811.275C228.156 812.051 227.215 812.439 226.098 812.439C224.875 812.439 223.881 811.957 223.117 810.993C222.74 810.523 222.493 809.987 222.376 809.388C222.317 809.141 222.288 808.894 222.288 808.647C222.288 807.647 222.676 806.483 223.452 805.154C223.605 804.895 223.699 804.737 223.734 804.678L226.786 799.121L227.88 799.774L224.934 805.048Z" fill="black" stroke="black" stroke-width="0.256586"/>
<path d="M233.828 803.109C233.828 803.297 233.846 803.479 233.881 803.656C234.058 804.467 234.51 805.055 235.24 805.42C235.616 805.608 236.022 805.702 236.457 805.702C237.362 805.702 238.062 805.326 238.556 804.573C238.85 804.138 238.997 803.662 238.997 803.144C238.997 802.956 238.979 802.774 238.944 802.597C238.78 801.81 238.327 801.239 237.586 800.886C237.221 800.71 236.839 800.622 236.439 800.622C235.51 800.622 234.787 800.992 234.269 801.733C233.975 802.156 233.828 802.615 233.828 803.109ZM237.639 806.725C237.204 806.902 236.81 806.99 236.457 806.99C235.281 806.99 234.305 806.555 233.528 805.684C233.07 805.179 232.77 804.591 232.629 803.92C232.57 803.662 232.541 803.391 232.541 803.109C232.541 802.133 232.911 801.263 233.652 800.498C234.416 799.722 235.357 799.334 236.474 799.334C237.697 799.334 238.691 799.816 239.456 800.78C239.832 801.251 240.079 801.786 240.196 802.386C240.255 802.633 240.285 802.88 240.285 803.127C240.285 804.126 239.897 805.291 239.12 806.619C238.968 806.878 238.873 807.037 238.838 807.096L235.786 812.652L234.693 812L237.639 806.725Z" fill="black" stroke="black" stroke-width="0.256586"/>
<path d="M242.582 810.006L243.923 809.6C244.24 810.282 244.758 810.764 245.475 811.046C245.757 811.164 246.04 811.223 246.322 811.223C247.38 811.223 248.145 810.858 248.615 810.129C248.874 809.729 249.003 809.253 249.003 808.7C249.003 808.488 248.98 808.283 248.933 808.083C248.756 807.201 248.209 806.625 247.292 806.354C246.998 806.26 246.686 806.213 246.357 806.213H245.687V805.066H246.357C247.31 805.066 247.986 804.725 248.386 804.043C248.597 803.702 248.703 803.296 248.703 802.826C248.703 802.603 248.68 802.391 248.633 802.191C248.444 801.285 247.898 800.739 246.992 800.55C246.792 800.503 246.575 800.48 246.339 800.48H246.286C245.487 800.48 244.858 800.768 244.399 801.344C244.27 801.497 244.17 801.662 244.099 801.838L242.917 801.291C243.341 800.468 244.028 799.88 244.981 799.527C245.428 799.363 245.881 799.28 246.339 799.28C247.633 799.28 248.633 799.727 249.338 800.621C249.656 801.033 249.867 801.497 249.973 802.015C250.032 802.273 250.062 802.544 250.062 802.826C250.062 804.049 249.503 805.002 248.386 805.684C248.985 805.86 249.479 806.266 249.867 806.901C250.067 807.218 250.209 807.559 250.291 807.924C250.338 808.171 250.361 808.43 250.361 808.7C250.361 810.076 249.82 811.105 248.739 811.787C248.056 812.222 247.251 812.44 246.322 812.44C245.381 812.44 244.505 812.111 243.693 811.452C243.188 811.04 242.817 810.558 242.582 810.006Z" fill="black" stroke="black" stroke-width="0.256586"/>
<path d="M253.823 802.614L252.623 802.138C252.882 801.209 253.47 800.462 254.387 799.898C255.046 799.498 255.74 799.298 256.469 799.298C257.421 799.298 258.262 799.645 258.991 800.339C259.579 800.903 259.962 801.615 260.138 802.473C260.22 802.873 260.261 803.29 260.261 803.726C260.261 804.737 259.785 805.795 258.833 806.901L257.192 808.7L257.157 808.735L255.075 810.958H260.491V812.175H252.323L256.716 807.571C257.468 806.76 257.909 806.266 258.039 806.089C258.638 805.29 258.938 804.502 258.938 803.726C258.938 803.337 258.903 802.979 258.833 802.649C258.597 801.544 258.027 800.862 257.121 800.603C256.91 800.544 256.692 800.515 256.469 800.515C255.587 800.515 254.869 800.885 254.317 801.626C254.105 801.92 253.94 802.25 253.823 802.614Z" fill="black" stroke="black" stroke-width="0.256586"/>
<path d="M282.291 799.633L277.511 812.175H275.941L280.386 800.921H273.947V799.633H282.291Z" fill="black" stroke="black" stroke-width="0.256586"/>
<rect x="969" y="164" width="174" height="46" rx="8" fill="#E3BD4F"/>
<rect x="969" y="227" width="65" height="20" rx="4" fill="#E3BD4F"/>
<rect x="969" y="269" width="328" height="16" rx="4" fill="#E3BD4F"/>
<rect x="969" y="300" width="328" height="16" rx="4" fill="#E3BD4F"/>
<rect x="969" y="331" width="328" height="16" rx="4" fill="#E3BD4F"/>
<rect x="969" y="362" width="328" height="16" rx="4" fill="#E3BD4F"/>
<rect x="969" y="401" width="328" height="16" rx="4" fill="#E3BD4F"/>
<rect x="969" y="432" width="328" height="16" rx="4" fill="#E3BD4F"/>
</g>
<defs>
<clipPath id="clip0_97_2">
<rect width="1351.26" height="880" fill="white" transform="translate(0.395996)"/>
</clipPath>
<clipPath id="clip1_97_2">
<rect width="273.263" height="273.263" fill="white" transform="translate(89.5537 92.6309)"/>
</clipPath>
<clipPath id="clip2_97_2">
<rect width="273.263" height="273.263" fill="white" transform="translate(89.5537 92.6309)"/>
</clipPath>
<clipPath id="clip3_97_2">
<rect width="273.263" height="273.263" fill="white" transform="translate(1050.61 485.157)"/>
</clipPath>
</defs>
</svg>
